/* XPM */
static char *danger_21708872537[] = {
/* columns rows colors chars-per-pixel */
"64 64 6 1 ",
"  c None",
". c #2F2F2E",
"X c gray24",
"o c #9094A3",
"O c #BBC3E1",
"+ c #BBC4E2",
/* pixels */
"                                                                ",
"                                                                ",
"                                                                ",
"                                                                ",
"                                                                ",
"                                                                ",
"                                                                ",
"                                                                ",
"                                                                ",
"                                                                ",
"                                                                ",
"                                                                ",
"                                                                ",
"                                                                ",
"                                                                ",
"                                                                ",
"                                                                ",
"                                                                ",
"                                                                ",
"                                                                ",
"                                                                ",
"                     O         O         O                      ",
"                     O         O         O                      ",
"                     Oo        Oo        Oo                     ",
"                    XOoX      XOoX      XOoX                    ",
"                   X.Oo.X    X.Oo.X    X.Oo.X                   ",
"                   ..Oo..    ..Oo..    ..Oo..                   ",
"                    .+o.      .+o.      .+o.                    ",
"                                                                ",
"                                                                ",
"                                                                ",
"                     O         O         O                      ",
"                     O         O         O                      ",
"                     Oo        Oo        Oo                     ",
"                    XOoX      XOoX      XOoX                    ",
"                   X.Oo.X    X.Oo.X    X.Oo.X                   ",
"                   ..Oo..    ..Oo..    ..Oo..                   ",
"                    .+o.      .+o.      .+o.                    ",
"                                                                ",
"                                                                ",
"                                                                ",
"                     O         O         O                      ",
"                     O         O         O                      ",
"                     Oo        Oo        Oo                     ",
"                    XOoX      XOoX      XOoX                    ",
"                   X.Oo.X    X.Oo.X    X.Oo.X                   ",
"                   ..Oo..    ..Oo..    ..Oo..                   ",
"                    .+o.      .+o.      .+o.                    ",
"                                                                ",
"                                                                ",
"                                                                ",
"                                                                ",
"                                                                ",
"                                                                ",
"                                                                ",
"                                                                ",
"                                                                ",
"                                                                ",
"                                                                ",
"                                                                ",
"                                                                ",
"                                                                ",
"                                                                ",
"                                                                "
};
