/* XPM */
static char *danger_11708872538[] = {
/* columns rows colors chars-per-pixel */
"64 64 7 1 ",
"  c None",
". c #2F2F2E",
"X c gray24",
"o c #3D3F3F",
"O c #9094A3",
"+ c #BBC3E1",
"@ c #BBC4E2",
/* pixels */
"                                                                ",
"                                                                ",
"                                                                ",
"                                                                ",
"                                                                ",
"                                                                ",
"                                                                ",
"                                                                ",
"                                                                ",
"                                                                ",
"                                                                ",
"                                                                ",
"                                                                ",
"                                                                ",
"                                                                ",
"                                                                ",
"                                                                ",
"                                                                ",
"                                                                ",
"                                                                ",
"                                                                ",
"                                                                ",
"                                                                ",
"                                                                ",
"                                                                ",
"                                                                ",
"                                                                ",
"                                                                ",
"                                                                ",
"                                                                ",
"                                                                ",
"                     XXXX      XoXX      XoXX                   ",
"                    X.@..X    X.@..X    X.+..X                  ",
"                    ..@O..    ..@O..    ..+O..                  ",
"                     .@O.      .@O.      .@O.                   ",
"                                                                ",
"                                                                ",
"                                                                ",
"                                                                ",
"                                                                ",
"                                                                ",
"                     XXXX      XXXX      XXXX                   ",
"                    X.@..X    X.@..X    X.@..X                  ",
"                    ..@O..    ..@O..    ..@O..                  ",
"                     .@O.      .@O.      .@O.                   ",
"                                                                ",
"                                                                ",
"                                                                ",
"                                                                ",
"                                                                ",
"                                                                ",
"                     XXXX      XXXX      XXXX                   ",
"                    X.+..X    X.@..X    X.@..X                  ",
"                    ..+O..    ..@O..    ..@O..                  ",
"                     .@O.      .@O.      .@O.                   ",
"                                                                ",
"                                                                ",
"                                                                ",
"                                                                ",
"                                                                ",
"                                                                ",
"                                                                ",
"                                                                ",
"                                                                "
};
