/* XPM */
static char *_d4ec6f224d748cad77cd644b7f8bf5dw8ZUzpoT4svEDyVb[] = {
/* columns rows colors chars-per-pixel */
"63 63 238 2 ",
"   c None",
".  c #0E113A",
"X  c #0E134A",
"o  c #151949",
"O  c #0F1452",
"+  c #0F155E",
"@  c #101554",
"#  c #151A53",
"$  c #11165B",
"%  c #141A5B",
"&  c #191E5D",
"*  c #1A1E53",
"=  c #0B0E47",
"-  c #1E235B",
";  c #1F2A5C",
":  c #21244A",
">  c #252959",
",  c #303358",
"<  c #151B64",
"1  c #151C6C",
"2  c #191F6B",
"3  c #161B62",
"4  c #171E74",
"5  c #181F74",
"6  c #181F79",
"7  c #1C2265",
"8  c #1C226C",
"9  c #1C2374",
"0  c #1B237C",
"q  c #1E2977",
"w  c #202564",
"e  c #21266C",
"r  c #242A6B",
"t  c #292E6D",
"y  c #272C65",
"u  c #2D336B",
"i  c #353969",
"p  c #212774",
"a  c #242A74",
"s  c #292E73",
"d  c #242B7B",
"f  c #262C7C",
"g  c #2D3274",
"h  c #2C327C",
"j  c #28347A",
"k  c #353A7C",
"l  c #393D7B",
"z  c #343976",
"x  c #3D417E",
"c  c #3B4065",
"v  c #46497A",
"b  c #464971",
"n  c #1C2483",
"m  c #1E2886",
"M  c #242C83",
"N  c #282F83",
"B  c #252C89",
"V  c #242B85",
"C  c #2B3384",
"Z  c #2C338B",
"A  c #2D3B8C",
"S  c #273587",
"D  c #343A83",
"F  c #30378B",
"G  c #343B8C",
"H  c #393E8B",
"J  c #343A83",
"K  c #2B3B93",
"L  c #343C91",
"P  c #393F93",
"I  c #303790",
"U  c #3C4283",
"Y  c #33438D",
"T  c #3C428C",
"R  c #394586",
"E  c #2E4194",
"W  c #3C4394",
"Q  c #3A4A94",
"!  c #3B4C9B",
"~  c #354698",
"^  c #3E529C",
"/  c #3C5698",
"(  c #3D55A3",
")  c #3D5CA7",
"_  c #394EA0",
"`  c #444984",
"'  c #41478C",
"]  c #454B8B",
"[  c #464B87",
"{  c #4C5289",
"}  c #54588A",
"|  c #444B94",
" . c #494F93",
".. c #444B9A",
"X. c #494E9B",
"o. c #414795",
"O. c #4D5295",
"+. c #42549C",
"@. c #4C529C",
"#. c #485B9D",
"$. c #555B94",
"%. c #51569D",
"&. c #545A9C",
"*. c #575B96",
"=. c #5C619C",
"-. c #5C6191",
";. c #5D6189",
":. c #666A9A",
">. c #636797",
",. c #74769A",
"<. c #6A6E96",
"1. c #4454A1",
"2. c #445BA3",
"3. c #4A5CA3",
"4. c #485AA5",
"5. c #5156A1",
"6. c #555BA2",
"7. c #595EA4",
"8. c #4A61A3",
"9. c #4B64AA",
"0. c #4867AA",
"q. c #5C62A5",
"w. c #5E64A8",
"e. c #536CAD",
"r. c #5366A9",
"t. c #5973AE",
"y. c #566DB0",
"u. c #5574B4",
"i. c #5B73B4",
"p. c #5C7CBB",
"a. c #577AB8",
"s. c #4C6FB2",
"d. c #6165A5",
"f. c #656AA4",
"g. c #6166A9",
"h. c #656AAB",
"j. c #696EAC",
"k. c #696DA3",
"l. c #6D72AD",
"z. c #6977A9",
"x. c #7376A3",
"c. c #7276AD",
"v. c #7479AD",
"b. c #797CA7",
"n. c #6E74B1",
"m. c #657BB5",
"M. c #7176B1",
"N. c #757AB3",
"B. c #7A7EB4",
"V. c #5B83BB",
"C. c #6483BC",
"Z. c #6B83BC",
"A. c #6986BA",
"S. c #7D82B5",
"D. c #7E83B8",
"F. c #728ABC",
"G. c #7689B5",
"H. c #5B88C4",
"J. c #5E94CD",
"K. c #668AC3",
"L. c #6C8CC4",
"P. c #6886C1",
"I. c #738CC2",
"U. c #6A95C9",
"Y. c #7A9CCC",
"T. c #7597C9",
"R. c #6F9ED3",
"E. c #79A8D6",
"W. c #77A4D2",
"Q. c #79B7E3",
"!. c #8588AB",
"~. c #8286B5",
"^. c #8285B9",
"/. c #858ABB",
"(. c #8A8EBD",
"). c #888BB5",
"_. c #8D91BD",
"`. c #8E91B5",
"'. c #9194BD",
"]. c #9598B8",
"[. c #9EA2BD",
"{. c #8A95C4",
"}. c #9295C2",
"|. c #9599C3",
" X c #9A9DC5",
".X c #9C9DC8",
"XX c #8B8FC0",
"oX c #9EA2C8",
"OX c #82A4D3",
"+X c #84AAD5",
"@X c #89ACD6",
"#X c #8CB5DD",
"$X c #87B3DA",
"%X c #93B3D9",
"&X c #97B7DB",
"*X c #8CA6D0",
"=X c #A4A7CA",
"-X c #A6BADB",
";X c #B6B8D4",
":X c #B0B2CF",
">X c #8BBBE2",
",X c #83B9E2",
"<X c #93BDE2",
"1X c #9BBDE1",
"2X c #89C5EA",
"3X c #96C3E4",
"4X c #9CCCEC",
"5X c #98C6E8",
"6X c #98D7F5",
"7X c #8CD6F8",
"8X c #A6CAE8",
"9X c #ACD2ED",
"0X c #B8D4ED",
"qX c #A3D4F1",
"wX c #A8DBF5",
"eX c #B5DBF3",
"rX c #B3CFEA",
"tX c #8DE1FF",
"yX c #97E2FE",
"uX c #A4E5FE",
"iX c #ACE4FC",
"pX c #ADE8FF",
"aX c #B2E5FC",
"sX c #BCE3F8",
"dX c #B4EAFF",
"fX c #BBECFF",
"gX c #BCE1F6",
"hX c #BEC1D9",
"jX c #C5C7DD",
"kX c #C4EDFE",
"lX c #CAEDFD",
"zX c #C4E5F8",
"xX c #D6EDFA",
"cX c #CEF0FF",
"vX c #D3F1FF",
"bX c #DBF3FF",
"nX c #E1F4FF",
"mX c #CCCDE0",
/* pixels */
"                                                        tXtXtXtXkXdXpXkX                                                      ",
"                                              kXuXtXuX6XE.2XpXpXtX2X7X6XpXpXpX6XE.                                            ",
"                                        fXuXlXcXpXyX2Xu.9.K.8XaXQ.V.V.a.,X2X>Xp.2.s.H.p.                                      ",
"                                    cXzX8X#X8XsXdX6XC.8.8.Y.kXgXU./ D D Y ! ( ( ~ E K ~ ( 2.                                  ",
"                                nXlXrX%XF.z.A.F.5XdX6XT.@XfXcXkX+Xa.j 1 C.1 6 n ! qXT.B K 9.K.#X                              ",
"                            OX*X*X{.I.I.Z.i.i.e.P.3XdXdXfX9XF.+.E L n +.iX<XY 0 3XwXiXi.K u.qXzXbXnX                          ",
"                          1.r.r.r.3.4.e.Y.#XP.u.9.9.Z S C d q 1 5 C Z 9.i.aX5X9 N Z OXT.0 E $XvXnXbXvX                        ",
"                        A.#.#.#.r.4.! +.r.OX+XQ q 1 1 M S F F f 0 9 C Z B n 5 1 9 M Z Z V 0 0 m.0XbXvXlX                      ",
"                    &XxX-X8.+.m.&X*X+.G F a < < < 1 a C C P P W F Z V L Z B n 6 L.L.M B I B 0 0 @X8X%XT.T.Z.                  ",
"                  V.0XnX8Xy.4X4XzX-X+.q 4 5 0 V C W O.@.@...@.W ....P F L Z B n dXdX0 n B Z V 0 3X5XA K ~ ! 1.                ",
"                  H.zXnX&Xr.T.<X1XY.S 0 M V Z ..%.g.j.g.w.q.j.g.q.6.5.@.@.W L V 5 C.C.5 n Z Z M C.T.0 V ~ 2.L.                ",
"                s.$XxXxXOX1.P.r.4.Z B dXF P ..q.j.B.S.^.S.^.D.(.(.S.j.h.7.@...Z 0 1 < R 3XM I S M 5 5 V C.>XuXdX              ",
"              ^ p.8XvXsXP.T.A A 3.OXC 5XL 6.h.M.N.|./.XX^.^./.(..X}.XX^.B.M.h.%.L q 4 1 3XY.Z Z V 0 5 0 Y.fXpXuX6X            ",
"            2.0.Y.xXvX1X#XW.T C 3.Y.V P X.w.h.N.N.B.N.B.l.h.l.q.d.w.l.M.B.^.l.l.6.T p 4 Y.^ H P Z 9 1 4 M *X9XwXW.e.          ",
"          W.u.U.gXxXrXL.+.C q 9 0 V F @.7.j.h.B.N.f.O.] D g a a a z J O.d.c.N.B.j.q.D a 1 5 M ..L M dX3X4 Q I.C.a.3.#.        ",
"          5X+XwXgXrX{.3.C 9 #XT.B P 5.j.n.l.=.O.O.D s & @ X X $ $ @ % 7 ` @.M.D.B.j.| h 9 1 0 H B N T.Y.1 d ! ! 1.^ Q         ",
"        {.*X5X0X9X&XZ.Y.#XY dX5XP 6.l.B.S.q.| a 8 $ @ # & - r s y & $ < < d H q.M.S.h. .C 9 5 H F Z 1 < 1 0 L ~ 4.y.3.~       ",
"        3.t.&XeX+Xa.2.3XT.Q 4XW @.N.B.^.7.D 8 % O O # 8 l T  .| @.T r % $ y r D &.N.N.*.D 9 1 C H L d < 1 9 P y.OX1Xm.3.      ",
"      r.+.t.&XL.>Xa.j 4 5 M W ..n.B.l.&.a % @ X # 7 ] @.l.q.7.6.6.l.7.U 3 X ; z ] l.^.N.| h 1 d H Z M < 5 q W m.9XfX@Xa.V.    ",
"      m.Z.&X+Xa.4X+X0 C.C.Z @.h.N.h. .f @ $ $ 8 H =.~.c.B.l.l.N.S.^.^.N.O.C < 8 D 7.l./.f.| 9 q ' H F $ 1 h 5.w.aXdXdXE.R.    ",
"    4X+X0XlXE.9.~ q ^ dXP.L j.S.l. .s 1 $ e e  .q.v.v.} } } :.k.S.S.(.N.f.H N 1 4 G &.S.v.%.D p ' P G 3 4 U 6.q.@XfXlXlXsXdX  ",
"    qX5X0XeXL.8.~ 0 ^ / C H h.j.O.D 9 < e g T c.B.>.[ t a w a r k ] l.~.B.=.J d 1 G q./.(.=.| f  . .P 8 3XQ L X.i.eXgXeXlXlX  ",
"    wX5X1XI.9.! K n 6 0 S X.j.M.O.D 1 8 f H q.g. .k p 1 1 2 < @ O # s x.S.}.$.T 3 D $.M./.f.=.F %.%.W r wXT.P ..1.Y.I.<XwXkX  ",
"  dXdX4XY.e.+.! V 0 0 n C w.M.w.U 9 < h ' h.S.f.x e + 3 a k h e < O @ e O./.B.*.t e D f.^.S.c.@.@.@.H d Y.#.W W L #.Q u.5XaXyX",
"  pXaX<XY.u.+.+.S M 0 N H N.j.6.s 9 a W q.S.l.[ > & w ` =.N.S.h.@.a 2 r 8 *.l.f.g e l &.~.^.S.6.@.6.H h ^ 3.P Z 1.G A Y K.7XtX",
"  fXsX8X1X5XA.1.V d n S W N.w.O.a d D d.n.S.q.z r z } !.(._.|.|._.h.k 8 $ z *.c.[ r t $./.}.(.g.@.5.G F n B W +X4XC S A p.7XyX",
"  kXaX8X9XkX@X! d 0 M V 7.S.q.` 8 p T l.M.&.k 8 h x.v.(.h.$.O.v.}..Xf.T 8 8 ] j.&.z s [ v.(.(.h.@...Z Z 0 Z P 1.H k Y Y R.2X6X",
"  fXiX2X4XsX8X~ 9 5 f V N.h.%.t 4 k | N.g.[ w 8 D _.}.^.| w $ r :.:X}.f.w & s *.6.z k ] S._./.q...W f M 0 B W Z G Q 8.2.p.7X6X",
"dXkXiX<X1XzX0XQ 0 M M Z S.d.&.e q U q.c.5.g 2 1 k.}.}.=.> = . o v [.=X/.l & a >.n.v g x ~.}._.6.@.W h M 6 S ....o.z.@Xe.0.a.tX",
"dXdXwX%X%X0X8XM 0 S B ..N.@.' 2 J ' l.N.%.t < r )./.D.i o o . - t `.|.S.U & 8 >.N.{ u g b.^.(.%.6.L h q 5 Z ..W h @XiXC.1.( U.",
"dXpXpX5X<X0X-X0 0 Z B 7.j.X.D a ] D n.w.] r 2 ` =X}.S.: > i { { [ _.}.B.x 7 e :.l.[ y t b./. Xg.q.F a 4 5 | 7.6.D 4XiXE.( ! H.",
"pXfXaXqX8X-X/.0 0 n n 6.h.%.U e h C g.6.U - < }  X^.} . * b b.B.v.=X Xc.z 3 9 S.S.*., r ,.(.|.l.q.W C N M w.5.@.f ,XaXE.( ! J.",
"lXfXpX8X@X&X6.n C.dXB 7.7.5.` D D T N.l.[ w < ,.|.~.i X > v ).`.].:X}.l.y % 8 `.^.x.y f <.(.}.M.@.F q C T g.5.U p 0.+XK.2.) Q.",
"tXuX7XW.C.dXwX0 >XdXZ h.h.7.l s f T B.n.{ t f ].oX/.> # i >.].|.:X:X=X:.y O 7 ).B.x.> z <.|. XN.%.f d C O.d.| g q ~ e.2.2.H.uX",
"tXuX2XR.a.+X3Xn qXaXW N.h.w.z g f O.S.n.` > g !.|.S.> * b x.=X=X;X=X'.` * O t ].D.x.y U <. X/.M.X.C G T q.$.k p 5 A ! ~ ( R.aX",
"yX7XQ.H.e./ Y 0 L.L...S.h.q.g s a &.B.j.' 7 l `.=X(., o i !.hXjXmX=X/.u - & v ].^.>.r U x. X^.M.G D | %.7.H a 2 9 Z 9.4.i.#XlX",
"  uX2XH.0.) E V Z B W S.h.d.r t 8 $.B.j.] & l !.oX_.u o u ,.;XjXjX Xb.> - w x.=X~.v w ` x.}.D.M.G | %...| h p f A 4.m.L.Y.9XcX",
"  uX6XR.E.+XC.E B B I l.q.d.g k p q./.l.` & t ,.'.oXv : , <.;XjX=XS.x 7 8 g S.oXb.{ h { ). X(.N...j.7.7.k p 9 C H i.C.W.<XsXlX",
"  pX6XU.E.wXqX9.B B F w.7.%.h h q &.B.q.` & g !.=X:X-., > v [.=X(.$.* # & } (.XX:.i R } /./.N.q.5.N.w.$.t 9 d P ..y.e.p.Y.sXlX",
"  iX,XL.3.^ A C +.5XP j.g.q.Z F Z o.D.w.[ o & }  X:XS., o c ,.B.} r X O i !.oX'.} y { >.^.S.M.l.n.j.O.D d d G ....P.u.p.R.8XvX",
"  iXyXE.#.Y D d Y.aXm.q.@.q.C H F O.XXl.} # & } '.=X'.v : , b ` y @ O u >.).=X~.v t x x..X(.B.l.h.O.D q 6 F X...1.2XW.H.R.sXvX",
"    uXE.8.+.Q f M dX+Xw.5.7.C f Z @.}.S.=.- # v !.}. X*.i : , > o * u } (.}._.} i g [ ~.}.N.h.@.O.D f 5 0 F Z L 3.qXqXE.Q.sX  ",
"    4XU.9.u.r.f d Z Z q.7.h.H a 9  .(./.d.s X 7 -./..X/.:., : o o @ l b.}.|.v.v u g $.S.(.B.h.5...D 0 0 F W P P r.E.wX#XE.gX  ",
"    5XU.p.T.+X4XC Z Z q...q.L f 0 $./.}.j.J $ 8 { /.|.(.N.{ i : > i b.'.}./.*.U g k B./.}.B.j.X.P N C H ..W G C 3.0.K.$X>XsX  ",
"      P.I.OX4XwXt.H P j.5.g.L M 4 ' B.}.c.U % $ z =.B././.v.:.;.>.b.`.}.~.=.g a e ] v.c.}.w.q.T G G T  .| ' h N 8.2.0.U.qX    ",
"      L.T.K.@XC.d M F @.5.h.@.F 2 f k.=X}.$.a < 7 $.j.S.}.}._._.'.=X!.b.=.k e 8 g k.B.B.M.q.7.o.o.&.$.O.H s 9 9 A.e./ a.>X    ",
"        +XC.8.V G Z P X.X.6...F 9 f ] B.XXv.` d 2 ` { f.j.l.~.B.d.k.` ` z a p 9 *.v._.~.l.q.6.o.| T G C q 5 5 A #XT.e.s.      ",
"        gX%Xm.4.H B Z Z o.@.5.F p 2 U d././.-.k 8 w u z v ` *.>.=.} l z g h R U c.B.B.j.h.q.&.] W N M 0 4 5 4 ^ U.%XZ.a.      ",
"          eX%XZ.T wXW.n o.%.j.@.G 9 h O.j.XX~.>.l 3 * - > e r l z u k ` g a ] f.S./.N.j.7.&.T F 0 0 0 6 6 0 0 A 8.Z.F.        ",
"          F.e.C.O.aXqX5 F T X.X.F M f T O.N.).S.x.| s y - e s Y j 9 a g J $.M.D.^.D.M.7.| F M 0 9 1 4 Y.Y.0 S G ! 9.m.        ",
"            Y Q #.9.4X6 d C W ..W C f h T d.D.b.~.l.l.:.v z t r g g x ] =.v.^.B.g.q.W G f 9 4 1 8 8 9 3X3Xd m.I.p.u.          ",
"              E #.L Z 0 5 9 H W W Z 0 p h ' 7.l.N.^.^.}.}.S.f.O.T ] %.f.c.B.N.l.d.6.G f 1 1 1 e d A.0 4 4 F.0XzXeX            ",
"                #.! Q 0 4 4 d F P P B a g f W o.7.h.n.j.S.(.}./.~.S.^.^.S.h.q.@.@.U h 9 1 4 A.iXW.P.n B ~ I.eXlX              ",
"                  4.3.Z Y.Y.9 M B B n 0 a 8 a G ..h.S.^.N.h.S.S.}._.XX^.S.h.6.H h a 9 4 0 V I.iXOXB L 3.Z.OX$X                ",
"                  Y.{.m.i.4X4 q C S B n 0 f a d F X.h.^./.^.N.h.j.N.N.S.N.h.q.P N 0 n V B P Z L W ..j.#X5XT.K.                ",
"                    bX8Xr.0 4 1 q N Z B n M h d f L ..g.M.B.j.q.O.5...X.@...h.6.6.......@...W P P W <X4XwXL.                  ",
"                        a.~ n 6 dXiXY Z Z B M f r dXd F W %.q.w.g.@.X.o.W P P X.q.N.M.l.l.q.7.o...1.e.p.                      ",
"                          E B m ^ dXe.M Z I Z S a qXiXF.a h W W 6.5.6.@.Z.dXT.W | T H T W | @.#.r.4.8.                        ",
"                            Z <XT.n 4 5 q V L Z S 9 Y.A.$ < d C W W @.@.1...I.Z S q j r.E.L.C.p.F.t.                          ",
"                                dXK K E E C M M V V n 5 4 1 5 1 f f C F P L L E L ~ 2.>X6X8X>XL.                              ",
"                                    ( 2.a.%X0X-XY.4.Z m n 6 m S A A G 4.m.-X8X@Xa.2._ u.OX%X                                  ",
"                                        $XzXvXlXiX9XC.9.( 0.H.2XaX5X>X<X1XrXrX5XQ.s.0.K.                                      ",
"                                              fXdXdXuXE.H.H.Q.6XdXiXwX6X8XlXlXeXuX                                            "
};
