/* XPM */
static char *exit_41708619962[] = {
/* columns rows colors chars-per-pixel */
"64 64 240 2 ",
"   c None",
".  c #0E113A",
"X  c #0E134A",
"o  c #151949",
"O  c #0F1452",
"+  c #0F155E",
"@  c #101554",
"#  c #151A53",
"$  c #11165B",
"%  c #141A5B",
"&  c #191E5D",
"*  c #1A1E53",
"=  c #0B0E47",
"-  c #1E245B",
";  c #21244A",
":  c #252959",
">  c #303358",
",  c #151B64",
"<  c #151C6C",
"1  c #191F6B",
"2  c #161B62",
"3  c #171E74",
"4  c #181F74",
"5  c #181F79",
"6  c #1C2265",
"7  c #1C226C",
"8  c #1C2374",
"9  c #1B237C",
"0  c #1E2977",
"q  c #202564",
"w  c #21266C",
"e  c #242A6B",
"r  c #292E6D",
"t  c #272C65",
"y  c #2D336B",
"u  c #353969",
"i  c #212774",
"p  c #242A74",
"a  c #292E73",
"s  c #242B7B",
"d  c #262C7C",
"f  c #2D3274",
"g  c #2C327C",
"h  c #28347A",
"j  c #353A7C",
"k  c #393D7B",
"l  c #343976",
"z  c #3D417E",
"x  c #3B4065",
"c  c #46497A",
"v  c #464971",
"b  c #1C2483",
"n  c #1E2886",
"m  c #242C83",
"M  c #282F83",
"N  c #252C89",
"B  c #242B85",
"V  c #2B3384",
"C  c #2C338B",
"Z  c #2D3B8C",
"A  c #273587",
"S  c #343A83",
"D  c #30378B",
"F  c #343B8C",
"G  c #393E8B",
"H  c #343A83",
"J  c #2B3B93",
"K  c #343C91",
"L  c #393F93",
"P  c #303790",
"I  c #3C4283",
"U  c #33438D",
"Y  c #3C428C",
"T  c #394586",
"R  c #2E4194",
"E  c #3C4394",
"W  c #3A4A94",
"Q  c #3B4C9B",
"!  c #354698",
"~  c #3E529C",
"^  c #3C5698",
"/  c #3D55A3",
"(  c #3D5CA7",
")  c #394EA0",
"_  c #444984",
"`  c #41478C",
"'  c #454B8B",
"]  c #464B87",
"[  c #4C5289",
"{  c #54588A",
"}  c #444B94",
"|  c #494F93",
" . c #444B9A",
".. c #494E9B",
"X. c #414795",
"o. c #4D5295",
"O. c #42549C",
"+. c #4C529C",
"@. c #485B9D",
"#. c #555B94",
"$. c #51569D",
"%. c #545A9C",
"&. c #575B96",
"*. c #5C619C",
"=. c #5C6191",
"-. c #5D6189",
";. c #666A9A",
":. c #636797",
">. c #74769A",
",. c #6A6E96",
"<. c #4454A1",
"1. c #445BA3",
"2. c #4A5CA3",
"3. c #485AA5",
"4. c #5156A1",
"5. c #555BA2",
"6. c #595EA4",
"7. c #4A61A3",
"8. c #4B64AA",
"9. c #4867AA",
"0. c #5C62A5",
"q. c #5E64A8",
"w. c #536CAD",
"e. c #5366A9",
"r. c #5973AE",
"t. c #566DB0",
"y. c #5574B4",
"u. c #5B73B4",
"i. c #5C7CBB",
"p. c #577AB8",
"a. c #4C6FB2",
"s. c #6165A5",
"d. c #656AA4",
"f. c #6166A9",
"g. c #656AAB",
"h. c #696EAC",
"j. c #696DA3",
"k. c #6D72AD",
"l. c #6977A9",
"z. c #7376A3",
"x. c #7276AD",
"c. c #7479AD",
"v. c #797CA7",
"b. c #6E74B1",
"n. c #657BB5",
"m. c #7176B1",
"M. c #757AB3",
"N. c #7A7EB4",
"B. c #5B83BB",
"V. c #6483BC",
"C. c #6B83BC",
"Z. c #6986BA",
"A. c #7D82B5",
"S. c #7E83B8",
"D. c #728ABC",
"F. c #7689B5",
"G. c #5B88C4",
"H. c #5E94CD",
"J. c #668AC3",
"K. c #6C8CC4",
"L. c #6886C1",
"P. c #738CC2",
"I. c #6A95C9",
"U. c #7A9CCC",
"Y. c #7597C9",
"T. c #6F9ED3",
"R. c #79A8D6",
"E. c #77A4D2",
"W. c #79B7E3",
"Q. c #7DCAF1",
"!. c #8588AB",
"~. c #8286B5",
"^. c #8285B9",
"/. c #858ABB",
"(. c #8A8EBD",
"). c #888BB5",
"_. c #8D91BD",
"`. c #8E91B5",
"'. c #9194BD",
"]. c #9598B8",
"[. c #9EA2BD",
"{. c #8A95C4",
"}. c #9295C2",
"|. c #9599C3",
" X c #9A9DC5",
".X c #9C9DC8",
"XX c #8B8FC0",
"oX c #9EA2C8",
"OX c #82A4D3",
"+X c #84AAD5",
"@X c #89ACD6",
"#X c #8CB5DD",
"$X c #87B3DA",
"%X c #95B5DA",
"&X c #8CA6D0",
"*X c #A4A7CA",
"=X c #A6BADB",
"-X c #B6B8D4",
";X c #B0B2CF",
":X c #8BBBE2",
">X c #83B9E2",
",X c #93BDE2",
"<X c #9BBDE1",
"1X c #89C5EA",
"2X c #96C3E4",
"3X c #9CCCEC",
"4X c #98C6E8",
"5X c #89DCFC",
"6X c #98D7F5",
"7X c #8DCEF2",
"8X c #A6CAE8",
"9X c #ACD2ED",
"0X c #B8D4ED",
"qX c #A3D4F1",
"wX c #A7DBF5",
"eX c #B5DBF3",
"rX c #B3CFEA",
"tX c #8DE1FF",
"yX c #93E1FF",
"uX c #9DE2FE",
"iX c #A4E5FE",
"pX c #ACE4FC",
"aX c #ADE8FF",
"sX c #A4E9FF",
"dX c #B2E5FC",
"fX c #BCE3F8",
"gX c #B4EAFF",
"hX c #BBECFF",
"jX c #BCE1F6",
"kX c #BEC1D9",
"lX c #C5C7DD",
"zX c #C4EDFE",
"xX c #CAEDFD",
"cX c #C4E5F8",
"vX c #D6EDFA",
"bX c #CEF0FF",
"nX c #D3F1FF",
"mX c #DBF3FF",
"MX c #E1F4FF",
"NX c #CCCDE0",
/* pixels */
"                                                        uXsXwX5X5XgXdXzX                                                        ",
"                                              uXtXuX5XyXyXH.G.H.R.iXdXxXxXxXbXnXnX                                              ",
"                                        gXzXzXgX6X7X1X7XB./ ) ! ( H.T.:X9XfXfX9XdXdXjXfX                                        ",
"                                    B.T.hXbXwX4XV.i.Y.B.9./ / / ( ( <.y.U.,XU.Y.T.W.R.>XwX#X                                    ",
"                                ! 7.p.R.zXjX,Xu.U Z U 1.w.B.R.R.J.3.! <.I.E.n.i.G.R.#X$XI.p.a.u.                                ",
"                            @.W 7.n.@XaXzXfXD.E Z m T 7.$XgXpXgX+Xa.) 8.n.L.t.y.E.qXpXJ.9.^ 9.Z.D.n.                            ",
"                          w.1.~ t.%XhXgXzXeXU.O.F V j W l.@X3X>X9.! P C 3.u.t.L.1XqXR.9.( a.U.%XD.9.y.                          ",
"                        6XE.p./ 3.OX9XdX@Xu.O.K O.3XK F W f j g i 9 3 4 D K  . .@.7.9.7.7.Z.#XY.7.Q i.eX                        ",
"                      gXaXwXL.! Q q.n.q.6... .L P @X<.P  .Q 5.+.T g i 1 s V L  . .P L C M 8 Z W J F P.cXzX                      ",
"                  3.I.wXaX9XP.) P L X.4.6.K E E K L K L ..X.6.4.4.} k p i 7 i G ..P L G g 8 4 3 9 V n.0XeX$XJ.                  ",
"                L.) 3.:XdX&XQ B 5 4 8 g G W U.@.2.N C N C D X.q.s.s.o.G g i 8 s D D E E ` p 3 3 9 9 s D.P.U.Y.K.                ",
"                Y.! ! V.U.B < < < 3 3 3 3 ,XwXU. .b b 5 5 3 3 m ` o.0.6...j a i 9 9 C ..} T 8 8 5 U.2X5 E L.7XwX                ",
"              xXY.J m m b 3 %XU., , , $ 2 w w s V D V m d i 4 M M S E $...%.{ S 8 8 b G } o.C 9 5 Y.2X3 N 4.$X3XB.              ",
"            nXnX@XZ 9 3 3 < gXY.< s B V F G X.K G F V d M g s g 9 i H } +.6.q.o.V d 9 V Y o.G m 9 3 8 9 B K g.,Xt.7.            ",
"          MXmXmX8X4XY.3 9 8 g N C K C K L | 4...4.4.<.X.L K D E D g V D ..h.M.h.o.S C M G 5.Y V 9 3 7 Z.L.N X.Q <.1.r.          ",
"          mXMX0X@X2XV.m N C P C D K G ` ` | $.4.4...4. .+.5.0.6.$.o.| G D ..4.b.g.+.X.G G ` } E 9 8 7 d R.OXE L  .e.D.          ",
"        #XcXnXn.b 8 B N C L  .G U V s 9 i d D +.5.f.g.6.5.4.g.k.m.M.m.M.b.M.0.k.b.+.4...Y  .W ` C 9 1 7 pXpXD K  .+.B.D.        ",
"        J.qX@X9 9 N C P P K m 9 4 3 , 1 H } *.x.A.XX(./.(.XX|.|.}. X/.^.S.(.M.m.N.g.g.h.0.6.5.%.Y s 3 , Z.P.C Q 6.+.B.#X        ",
"      1.8.y.J 9 N P C 0 U.~ 5 < 8 8 d } $.:.d.A.^.}.(._.}.~.(.).XX|. X|.}. X/.S.XXM.N.N.0.0.q.q.%.C 8 < 3 B L  .0.} K.3X%X      ",
"      / J J 9 M P N n 2X2XU.< 8 g S | j.x.(./.^.~./.c.A.~.z.v.>.,.,.,.v.z.).).S..X}.(.|.}.m.k.q.6.} s 3 3 9 N  .b.L R.qX+X      ",
"    G.) N u.K.D N b 4 I < 4 p M o.%.N.^.N./.m.d.%.&.] ' z f r e d h I _ _ [ #.*.z.~.A.(.k.A./.h.h.6.H g 8 3 B X.k.Y 9.:Xy.J.    ",
"    p.R T.pX+XC b 9 V., 3 i H  .d.m.^.m.5.6.#.H k e r j y l t > t : t e : f T [ I ] &.v.v.N._.N.N.x.E D g 8 b  .m.Y h 1.) 9.    ",
"    a.! qXwXC m K.gXn.< i L q.h.N.M.h.%.G G j w q e f l c [ [ { z.z.z.=.c { u t y f f j ' j.v.N.^.S.0.5.H i 9  .M.G b Q ( a.    ",
"  W.1.! Q 2XM 4 P.gX4 9 G 5.h.N.m.6.| j 3 < 2 r l ] %.6.k.M.z.A.S.A.S./.^.v.;.{ c u y d e f %.c.S.^.q.s.+.g M 5.0.} C J p.>XsX  ",
"  6Xi.( b 5 3 3 5 b n C 4.k.N.N.0.S l 7 , i Y &.d.v.j.&.:.;.;.A.`.!.].].oXoX{.'.~.{ c T p 7 0 I d.S.N.h.+.G L 5. .Q C L +X4XeX  ",
"  aX>X/ 5 U 4X8 b n P  .g.b.M.m.G w - , V H %.N.k.&.' a p 7 w 8 7 6 r z >.A.(.oXoX_.v.=.f w i T ` m.^.m.6.5.0.g.K U.P.K 8XrXxX  ",
"  aX7X) , ,XpXn N C L 4.m.S.x.$.a 6 X A G %.}.).&.l i & & % 6 2 % @ O # q f { !.`.}. X/.*.j a f p #.m.N.g.g.h. .L hX .K =XrXxX  ",
"  gX>XZ Z.pXu.C C K <.6.N.N.s._ , + - o.j.M.A.o.7 $ 1 q j z z l t t - - : w 2 u :./.}.|.^.*.g f a G :.m.N.S.m...E n.<.K n.<X8X  ",
"zX6XB.A , ^ 8.C P P ..g.^.m.| 1 + - I m.N.^.z.e w 7 G d./.A.M.x.j.,._ t : : @ @ y { v.'.'.A.T l _ f [ f.^.^.A...X.+.+.D 1.,XqXgX",
"gX7XB.z A n C N B L 4.h.XXb.H 2 $ 0 5./.(.k.r O 7 j d.}.*X|.}..X|.*X'.^.x.k * X O y k >.`.!.] z h f z %.^.{.M.....5.+.C F :XwXgX",
"gX7XB.^ p.R h 8 C  .4.N.}.0.j @ - T b.^.A.' # O p h. X;X[.`.(.*X;X;X;X*X XN.o.t o * O u A.[.j.{ f 8 r ' A.(.M.4.+.4.E M Z 4XiXhX",
"zXtXW.I.W.R 3 8 P  .6.XX.Xs.i $ 6 $.5.S.A.j O 1 +._.|.;.c t ] v.'.;X-XNXlX;X_.{ t ; . : ,.`.*.*.l h l Y S.}.g.+.q.5.E s P dXgXaX",
"tXaXdXjXzX@., d E E f.(.(.6.p % a } 5.M.j.w @ 7 h.|.m.e o : [ c.`.|.*XlXlXlX;Xv.c : . : -.'.M.:.k T e o./.A.h.6.q.E M 3 N 7X6XyX",
"tXaX3XzXxXP.8 D L ..h.^./.l.p X t o.5.k.d.p , S A.|.o.@ . . [ v.).|.;XkX-X-X[.>.v > ; x ,._.~.&.r a r j.}.S.M.h.0.E s 3 n B.$X5X",
"5X1XJ.U.zX9Xs Z L  .6.^.^.d.f = - Y 0.k.{ 6 1 j M._.o.q = X u v c ,.>.v.>.,.c v ; ; > [ x.}.x._ q e l A.(.g.^.N.%.V 2 , 5 9.H.Q.",
"tXR.9.7.@XhXV N C ..f.S.^.m.S # & j h.A.{ p 1 p :.(.h.' : o : * > u v u > > ; ; ; u ;.M.^.|.d._ : - c '.S.M.^.m.E i % 3 b ( G.Q.",
"  6Xy.7.Y.gXV m C +.d.^.XXN.' & # 7 o.x.{ a , 2 _ A.(.^.&.u : . o # * X X ; > > c &.(././.~.d.u - e ;.|.h.^.^.f.F D.n.3 b 9.R.  ",
"  iX1XV.qXgXA < p ..h.N./.M.+.f @ # ' ~.x.] 8 $ q { x.}.}.S.A.{ u > ; > y c =.~.'. X*X|.N.j.o.u - a h./.m.A.g. .s dXU.B A V.iX  ",
"  tXyX6XgX2X9.< < E f.N.}.N.d.S $ O 6 *.x.:.j w * k z.(.|./.}.^.).).N.(.(.*X-X;X*X}./.^.:.#._ 6 % ` l.^.g.g. .K gXqX4 B @.qXgX  ",
"  uXaXgX4XL.8.8 2 N 4.b.M.N.M.o.7 O % T 0.N.| c : e f H ,.).*X X'. X|.*X.X'.oX X`.!.:.{ g 1 1 7 k z.~.m.6. .P d e p C M Y.pXgX  ",
"  zXbXfXD.w.y.U , n  .6.m.N.N.+.i % X 7 | x.d.d.] u 7 1 , p ` { >.].!.`.!.>.!.{ { v 6 7 $ , i l =.A.c.b.X.G s p d A C m =XxXhX  ",
"    zX9XZ.u.D.R., 9 C <.g.f.f.*.` 8 + O w Y 0.S.k.0.j w 1 , 1 , 2 a l k k r a & & # X $ % r Y =.!./.A.0.X.s i d m C D M rXnX    ",
"    sX#Xn.u.$XE.p 8 B E 5.q.h.b.0.j % $ w f G g.S.N.%.] f r e - : r - 2 % 2 % # # : a H H &.c.)._.M.s.` p w s m B P N A %XfX    ",
"    gX8XF.L.{.e.D 3 m D P ..6.b.S.5.a + % 7 a ` 0.m.M.f.$.%.| c ' [ _ ] _ ] _ ] { &.;.h.m.}.}.^.k.o.` g f p b n N C i R p.$X    ",
"      cX%XP.r.O.H 8 b gX4XK +.g.N.~.%.d < , < g ` f.m.N.m.m.f.5.k.b.m.h.g.h.s.s.b.N.^.|.|.oXN.s.o.Y g w p 9 n N C g 3 R 9.      ",
"      nXrXD.2.Q O.O.V N M M P 4.b.N.k.| a 8 , , i H G } 6.k.k.g.M.N.S.N.N./.N.S.}.|.(.^.N.j.] G g p d 9 N n N C G w.4 J /       ",
"        xX{.2.3.{.8X{.C OXU.B L 5.N.N.g.| S C 7 8 i i j ` ` H M L G o.%.$.s.$. ...$.| #.` d g 1 8 m C C L n C V pXgXb J         ",
"        mXOX6.0.%XcX4X2.2.7.9 N L +.b.M.l.+.o.I a i 4 4 i H _ g D a a s w i i V D V 8 9 4 1 1 i G D E E L m V 8 gX~ Y.gX        ",
"          &X0.@.n.8X,Xt.P M 8 Y.4XW  .f.S.g.b.0.5.+._ r w 1 e w j a g a e j g D G g p M M D D D 4. . .Q Z m 9 < 5 n ,X          ",
"          OXe.@.~ 3XY.L.P G 9 $XgX3XE 4.g.g.g.m.k.f.0.$.%.` H _ _ k f f p f g C V V G P K .. .4.h. .E G 0 8 4 < n N J           ",
"            3.@.7.r.e.<.Y.E.V 8 T W B C K G +.f.M.M.N.h.0.<...4.4.5.q.0.d.s.5.0.6.6.g.6.f.f.4.4.$.L V 4 3 U.3Xb ! R             ",
"              Z.=X8X%X&XL.$X~ S #XI.8 V.L.N C M L X.6.m.S.m.h.g.6.f.g.f.g.q.6.f.4.4.6. .4.4. .Q  .D s 4 3 U.y.9.i.              ",
"                vXMXmXvXcX<XK.5.U.2X3 V.gX^ 9 b m N m M P  .5.4.6.g.m.S.S.b.0.h.6.q.6.0.g.+. .C s 5 5 5 5 C n.9X                ",
"                %X0XcXnXnXnX9X{.V.7.h 9 Q ~ 5 9 9 B m d m N N b N P E X.L P P L n.+XP P E C E P OXqX3XP E 3.{.mX                ",
"                  B.G.$X8XvXnXrX%Xi.p.$Xi b 9 9 M m 9 8 m C C b gXgXdXK.N N N 4XdXgXC C G m D m wXdXe.P Q 3.E.                  ",
"                      y.i.U.cXjX9XR.#X3X! ! R N N B 9 8 9 9 5 5 L.:XwXK.C n N <.U.0 s N r.s G G G o.@.@.%.                      ",
"                        O.9.I.wX0XdXD.p.9.( Q  .<.<.Q ! W M b 9 b 5 b 0 N E 7.V h m d 3XpXV.d @.Z.V.Q R                         ",
"                          1.u.R.<X%X%X@XR.K.7.O.<.n.@X8X0X8X=XS.6.qX2XU R V.qXZ h W 9.$X4X+X@.Z.%Xw.U                           ",
"                            R.4X+Xr.r.%XxXjXP.u.u.2XcXfXcXrX0X=X,XgXOX^ ( +XwXQ R ^ y.P.OXJ.V.%X0XZ.                            ",
"                                {.7.o.C.0X0X<XU.U.<X9X3X<X%X,X8X&XL.p.a.9.R.R.7.@.7.9.i.D.Y.R.jX                                ",
"                                    w.n.&X2X4XqX,X8X3X1X,X%X4XqX8XE.T.G.G.T.I.I.R.R.I.I.K.K.                                    ",
"                                        3XqXwXgXdXjXdXpXwXwXaXaXaX7X1XW.1X6X6X>XuXiX3X4X                                        ",
"                                              gXpXhXzXhXzXgXaXhXgXsXiX7XiXiXaXaXdX                                              ",
"                                                        gXgXgXaXbX5XtXyX                                                        "
};
