/* XPM */
static char *_c08baefdda747b3fadec445275c4412TY4XiPlpvrj2wPFA[] = {
/* columns rows colors chars-per-pixel */
"64 64 240 2 ",
"   c None",
".  c #0E113A",
"X  c #0E134A",
"o  c #151949",
"O  c #0F1452",
"+  c #0F155E",
"@  c #101554",
"#  c #151A53",
"$  c #11165B",
"%  c #141A5B",
"&  c #191E5D",
"*  c #1A1E53",
"=  c #0B0E47",
"-  c #1E245B",
";  c #21244A",
":  c #252959",
">  c #303358",
",  c #151B64",
"<  c #151C6C",
"1  c #191F6B",
"2  c #161B62",
"3  c #171E74",
"4  c #181F74",
"5  c #181F79",
"6  c #1C2265",
"7  c #1C226C",
"8  c #1C2374",
"9  c #1B237C",
"0  c #1E2977",
"q  c #202564",
"w  c #21266C",
"e  c #242A6B",
"r  c #292E6D",
"t  c #272C65",
"y  c #2D336B",
"u  c #353969",
"i  c #212774",
"p  c #242A74",
"a  c #292E73",
"s  c #242B7B",
"d  c #262C7C",
"f  c #2D3274",
"g  c #2C327C",
"h  c #28347A",
"j  c #353A7C",
"k  c #393D7B",
"l  c #343976",
"z  c #3D417E",
"x  c #3B4065",
"c  c #46497A",
"v  c #464971",
"b  c #1C2483",
"n  c #1E2886",
"m  c #242C83",
"M  c #282F83",
"N  c #252C89",
"B  c #242B85",
"V  c #2B3384",
"C  c #2C338B",
"Z  c #2D3B8C",
"A  c #273587",
"S  c #343A83",
"D  c #30378B",
"F  c #343B8C",
"G  c #393E8B",
"H  c #343A83",
"J  c #2B3B93",
"K  c #343C91",
"L  c #393F93",
"P  c #303790",
"I  c #3C4283",
"U  c #33438D",
"Y  c #3C428C",
"T  c #394586",
"R  c #2E4194",
"E  c #3C4394",
"W  c #3A4A94",
"Q  c #3B4C9B",
"!  c #354698",
"~  c #3E529C",
"^  c #3C5698",
"/  c #3D55A3",
"(  c #3D5CA7",
")  c #394EA0",
"_  c #444984",
"`  c #41478C",
"'  c #454B8B",
"]  c #464B87",
"[  c #4C5289",
"{  c #54588A",
"}  c #444B94",
"|  c #494F93",
" . c #444B9A",
".. c #494E9B",
"X. c #414795",
"o. c #4D5295",
"O. c #42549C",
"+. c #4C529C",
"@. c #485B9D",
"#. c #555B94",
"$. c #51569D",
"%. c #545A9C",
"&. c #575B96",
"*. c #5C619C",
"=. c #5C6191",
"-. c #5D6189",
";. c #666A9A",
":. c #636797",
">. c #74769A",
",. c #6A6E96",
"<. c #4454A1",
"1. c #445BA3",
"2. c #4A5CA3",
"3. c #485AA5",
"4. c #5156A1",
"5. c #555BA2",
"6. c #595EA4",
"7. c #4A61A3",
"8. c #4B64AA",
"9. c #4867AA",
"0. c #5C62A5",
"q. c #5E64A8",
"w. c #536CAD",
"e. c #5366A9",
"r. c #5973AE",
"t. c #566DB0",
"y. c #5574B4",
"u. c #5B73B4",
"i. c #5C7CBB",
"p. c #577AB8",
"a. c #4C6FB2",
"s. c #6165A5",
"d. c #656AA4",
"f. c #6166A9",
"g. c #656AAB",
"h. c #696EAC",
"j. c #696DA3",
"k. c #6D72AD",
"l. c #6977A9",
"z. c #7376A3",
"x. c #7276AD",
"c. c #7479AD",
"v. c #797CA7",
"b. c #6E74B1",
"n. c #657BB5",
"m. c #7176B1",
"M. c #757AB3",
"N. c #7A7EB4",
"B. c #5B83BB",
"V. c #6483BC",
"C. c #6B83BC",
"Z. c #6986BA",
"A. c #7D82B5",
"S. c #7E83B8",
"D. c #728ABC",
"F. c #7689B5",
"G. c #5B88C4",
"H. c #5E94CD",
"J. c #668AC3",
"K. c #6C8CC4",
"L. c #6886C1",
"P. c #738CC2",
"I. c #6A95C9",
"U. c #7A9CCC",
"Y. c #7597C9",
"T. c #6F9ED3",
"R. c #79A8D6",
"E. c #77A4D2",
"W. c #79B7E3",
"Q. c #7DCAF1",
"!. c #8588AB",
"~. c #8286B5",
"^. c #8285B9",
"/. c #858ABB",
"(. c #8A8EBD",
"). c #888BB5",
"_. c #8D91BD",
"`. c #8E91B5",
"'. c #9194BD",
"]. c #9598B8",
"[. c #9EA2BD",
"{. c #8A95C4",
"}. c #9295C2",
"|. c #9599C3",
" X c #9A9DC5",
".X c #9C9DC8",
"XX c #8B8FC0",
"oX c #9EA2C8",
"OX c #82A4D3",
"+X c #84AAD5",
"@X c #89ACD6",
"#X c #8CB5DD",
"$X c #87B3DA",
"%X c #95B5DA",
"&X c #8CA6D0",
"*X c #A4A7CA",
"=X c #A6BADB",
"-X c #B6B8D4",
";X c #B0B2CF",
":X c #8BBBE2",
">X c #83B9E2",
",X c #93BDE2",
"<X c #9BBDE1",
"1X c #89C5EA",
"2X c #96C3E4",
"3X c #9CCCEC",
"4X c #98C6E8",
"5X c #89DCFC",
"6X c #98D7F5",
"7X c #8DCEF2",
"8X c #A6CAE8",
"9X c #ACD2ED",
"0X c #B8D4ED",
"qX c #A3D4F1",
"wX c #A7DBF5",
"eX c #B5DBF3",
"rX c #B3CFEA",
"tX c #8DE1FF",
"yX c #93E1FF",
"uX c #9DE2FE",
"iX c #A4E5FE",
"pX c #ACE4FC",
"aX c #ADE8FF",
"sX c #A4E9FF",
"dX c #B2E5FC",
"fX c #BCE3F8",
"gX c #B4EAFF",
"hX c #BBECFF",
"jX c #BCE1F6",
"kX c #BEC1D9",
"lX c #C5C7DD",
"zX c #C4EDFE",
"xX c #CAEDFD",
"cX c #C4E5F8",
"vX c #D6EDFA",
"bX c #CEF0FF",
"nX c #D3F1FF",
"mX c #DBF3FF",
"MX c #E1F4FF",
"NX c #CCCDE0",
/* pixels */
"                                                        gXgXhXaXyX5XQ.5X                                                        ",
"                                              sXeXxXxX8X6XwXpXgX6X>XG.G.R.iXgXgXhX                                              ",
"                                        J.9.a.W.4XrXrX<X,X#X4XdX7XG.9./ 8.V.9XaXzXnXcX$X                                        ",
"                                    %XOXy.) 1.p.@X8X=Xn.@.F Z Z A b 5 b b C 1.Y.=X0X%Xp.1./                                     ",
"                                K.:X8X3X:X1.! R ! K K L D V d s < 3 < 3 3 b B m B m V R R J J gX                                ",
"                            r.D.i.V.K.R.e.h 0 C C P. .<.+.+.E E V s , $ Z.E.8 C C D m 9 3 3 b Y.,XC                             ",
"                          7.1.e.@.+.X.E Y G Y } E Y.gXC.+.5.4.5.E E g i D.pXqXp C C P C m w.gX~ n N R                           ",
"                        i.w.<. . .6.q.k.k.m.m.0...E L E X...+.f.q.q.$.E D s gXw s m N C C U pXgX5 b ! p.                        ",
"                    K.wX3X,XE L L E  .+. . . .5.5.g. .+... .4.+.0.h.N.m.f. .K d s g B b N C M 8 3 3 9 e.8XmX                    ",
"                  J.Y.4X#Xh. .E K C K N B b 9 M L q.g.m.A.M.M.g.h.M.^./.^.g...D s i s 9 b N C V 9 < 3Xu.n.{.U.                  ",
"                  @XOXC.2.K N OXpXP.B 9 3 8 i g G 5.g.S.^.XX_.}.S.S.h.M.^.A.g. .G i 7 a 9 b N N m 8 U.U.C 2.3.                  ",
"                xXeXP.E N b L.E.pXZ.3 < 8 g I +.+.0.g.N.^.^.A.~./.}.(.A.h.b.g.6.X.E s f a N L L D s 3 3 9 W Q @.                ",
"              eXcX0XD.4 3 9 Z.s w < < < d F 5.f.h.m.N.c.d.$.' Y o.d.A.}.}.^.^.m.k.6.` g i 9 Z E E F 8 4 5 Z K O.R               ",
"            y.i.P.n.s 2X2X8 7 7 < 3 8 s F E 0.f.N.^.x.*.[ z f f t r k c ;.k.l.).v.S.f.Y g s V E  .E V s 4 3X8.@.W U             ",
"          n.8.Q Z A 9 U.U.3 < 8 9 m D } 6.m.S.^.S.m.#.H f a 8 h U a w - t a X.z.A.).M.o.Y s m D  ...Y D 3 qXdXo.V.w.D.          ",
"          D.C.7.Z 9 9 5 5 9 9 9 D Y %.5.h.N.^.A.d.' p f _ j f l k e w : - * 2 k :.~.XXh.o.g 8 F +.h.$.X.b E.pXY C.%XeX          ",
"        p.C.%XI.~ 3 3 3 9 B M E ' %.q.f.g.N.N.x.T T h f j k { *.:.&._ _ k y q 7 l =././.s.I 1 i D 4.+.X.C Z N G 2.n.%XjX        ",
"        a.w.Y.#XZ 3 4 8 V G Y } X.4.q.k.~._.c.&.8 i p l _ ] j.s.N.~.k.h.d.[ _ 2 s T c.XXN.' d 8 D  .4.....L Z D m 7.V.+X        ",
"      :Xp.^ w.Z.8 8 a G o.#.%.X.X.6.q.m.N.N.j.f 7 w j *.v.!.*X'._._.}.}.A.h.#.6 , p #.}.*Xj.d 1 D +.f.4.+.D m s V.@XJ.Y.K.      ",
"      qXI.9.1.7.V g ` } | Y G G Y q.q.}.x.c.' w p f *.~.|.`.v.:.-.:.x.^./.N.*.l $ % I m.}.N.` 4 m K f.4.g.L G r.wX3XOXP.L.      ",
"    jX:X$XJ.9.2.V F E  .F V M L ..g.N.|./.N.S f I &./.}.'.v.u : ; u [ M.(.|./.[ 7 $ H h.|./.#.9 d K 0. .q.C C V 3X$XP.i.I.4X    ",
"    jXR.#XwXR.8.L L E D 9 9 H  .4.g.N.(.A.#.f y c v.|.}.v.k @ o o ; > ;./..X/.=.6 X a s./.(.| 8 p G g.6.0.Z C s s e.y.8.I.3X    ",
"    fXW.R.wXqX2.K Z D 9 3 d S +.+.g.M.}.~.] f u { _.}.).[ y o o : > ; u &. X}.!.c # - *.A.|.o.V d V 6.4.q.+XgXb d W O.7.R.sX    ",
"  nXjXT.G.E.1X<. ...D 5 8 S o.f.k.N.(. Xz.z r c ~.*X).:.y O @ y _ v > ; c '.*X'.[ & # { k.XX+.D G V 0.+.0.n.dXY.d S U @.R.uXaX  ",
"  nX8XT.i.y.V. . .F s s S o.h.b.k.m.A.^.:.[ t [ '.oX!.u O X t { c.>.x o > ~.;X X{ & o ' q.S.X.C D C q.f.h.L 4XO.V Z ~ 7.K.>XaX  ",
"  xXjXU.i.w.t. .L s 8 r #.q.M.4.q.M././.{ T u ;.XX(.{ & # * #.).;X[.c : > =.-X*X!.f & _ 0.N.%.9 g g $.6.q.D N N 8.qXwXR.I.6XaX  ",
"  xXfX,XE.V.u.F V 8 i j 5.5.g. .m.(. X).[ f [ v.oXA.f 7 6 k S.;XlX-X,.: ; c oX'.>.r & ] k./.0.i j f f.q.k.P N N R V.+XR.T.6XsX  ",
"  bX9XU.K.n.2.Z s i g }  .$.} F m.S.|.z._ q c ~.*Xz.q - : v. XlXlX-X>.y o y XXoX!.k & ' g.N.#.7 r e f.g.A.E N C m R ( 9.G.1XiX  ",
"zXzX#Xy.3.8.C 8 1 p G 6.$.} H G m.^. Xv.T t :.^.].c & - t /.*XNXlXkX!.u o > (.*X`.k 6 ` h.N.%.i a f 0.f.A. .K.K.9 U ^ w.G.W.7XyX",
"gXgXT./ ! Q Z 3 i j $.0.Y F V ..m./. Xj.I q z.S.].r O * _ '.*X-X*X;Xv.v * : N.|.!.f : _ b.S.o.s f l q.g.M.E dXqXb 2X+Xp.T.1XiXtX",
"aXsXG.1.3.w.! 9 f } s.o.V s d $.m. X|.,.l : z.N.).6 O t ;.*X;X;X|.].:.u # : /.oX].a r [ b.N.Y s a k 6.f.g.C gX:X9 wXgXV.E.7XsX5X",
"5XW.( 1.J.+X9.i I 4.f.Y V 8 D +.m.}.(.,.s t z./.`.7 % t l.}.;X].`.).c : X u ~.|.>., q [ k.N.Y H S _ 4.5.6.N gXV.b 5.%X@X8XaXhXxX",
"yXH.! / R.gX>Xd +.4.q.B M g E 0.k.|.).>.t : &.A.A.8 2 l x. X*Xv.v.v.v * . { ^. X{ , - I 5.f.V h w I $.g.4.b b 9 9 /.=X8XqXdXhXaX",
"wXG.! / R.aX3XS 5.6.} 3 4 p D q.f. X/.v.r t [ k.;.w 6 z N.}._.' [ [ u : ; A.}.*X_ 1 t [ q.b.H ' p S ..h.5.N C 9 9 =X0X,X4XaXaXgX",
"sXI./ <.V.pX@Xg E  .Z 3 9 g K 5.$.(.^.v.f y [ M.:.7 & I A.|.`.r - . o o u S./.).w , r $.M.k.` H 1 ` +.m. .N C 9 m 8X0X%X%XwXgXgX",
"uX5Xp.9.w.@Xl.`  . .C 5 m g E +.4._.}.~.z f c b.:.p & k /.*X[.c o . = : *.}.}.j.< 1 f 4.x.q.T 8 w %.f.A.Z m B 9 W 0XcX<X,XpXzXgX",
"  5X7Xi.1.7.W F Z E N 9 m d E  .0./._.A.' j l 5.&.a & q d.}.;X;.e @ q } ^.}._.S 7 q [ f.N.} j 3 r $.g.M.m d 4 8 E 8XfX3X1XpXhX  ",
"  5X1XY.W U g F <.L Z 9 C C  .+.g.(.(.c.] a l %.j.' 7 7 Y d..X}.x.o.#.g.(.c.z.g 7 l %.m.k.Y i 7 _ q.A.6.m m 9 s Q @XzX9X8XdXzX  ",
"  yX7Xi.Z A V 3X+XE N b D F 4.+.f.(.}./.#.r t ] x.&.l $ 7 j h._.|.|._.(.!.{ k t l 0.A.b.f.S s p o.q.M.E C b s B <.C.4X<X8XjXhX  ",
"  tX7XL.U Z F <.Z L 2.~ g G 4.+.4.A.^.~.%.k w f d.k.&.7 w 2 a +.h.S.M.*._ q * : ' k.S.q.E i 8 a 5.h.M.F M 9 m C O.O.y.U.,XdXaX  ",
"  uXgX4Xy.W O.K E E @.U.p F +.+.+.x.A.^.d.S w r &.N./.o.w @ O , w g j p 2 + w z d.S.g.` g , 8 I q.m.q.V b 9 9 m Q O.w.U.3XgXgX  ",
"    zXwX,XP.U.<. .L Y.wXw E $.$.D *.d./.m.#.S 2 Y #.}.A.z.a # O @ , 2 < < i j | f.0.Y s 7 < H o.m.g...C 9 5 b Z Q 8.P.<X4XwX    ",
"    zXxXeXjXeXu...K W 2X7 L | | d } *.(./.0.G < s H *.N.~.k.' j e p q p r [ :.N.x.Y f w , 8 H +.h.g.F V ~ ~ 9 ! 1.K.eX0X4XqX    ",
"    gXfXzXzXhX+X6.5.I 3 2 F E ` i H $.c.A.$.G 3 < M G d.N.(.A.A.j.;.{ { { x.x.0.| w w $ < a | k.S.h.K L.gX~ 0 ! 8.R.xX0X+X3X    ",
"      T.R.gXgXeXq.4.f < % D F ` 8 8 } d./.k.5.S 7 , V o.M.^.^.S.N.k.k.N.x.~.*.G 7 $ $ @ d | h.M.f.+.Z V.V.9 +X3Xp.+X%XC.n.      ",
"      B.i.@XhX9Xn.E 9 3 , m C G s < g ' M.^.k.[ l - X 2 I 5.b.4.5.5.q.k.+.' 6 # X @ % a %.k.N.b. .E B 3 3 h i.:XK.%Xr.O.e.      ",
"        2.n.<XOXt.K 8 < , s K G V < 8 S %.M.M.5.S w t $ % e Y o.} } Y k 7 # O O % 7 S 5.~.N.N.+.E 3XW Y.2X1.p.+XeX%Xr.2.        ",
"        ! 2.y.3.E K 9 < , < Z D G 4 8 V | g.A.m.0.G s , , $ & t a e - * # @ $ 7 i X.q.A.N.k.5.L 4XgXU #XU.C.%X9X0X4X&X{.        ",
"          W ~ <.Q Q s < U.Y.M N F 9 3 8 g } h.N.S.m.+.` 6 % @ $ $ X X @ & a S o.o.*.k.b.g.4.L N Y.#X8 V 2.{.rXjXwX+X4X          ",
"          @.2.p.V.P.W 3 2XgXm K  .m 3 < i S q.h.N.M.x.f.o.H l p i p f S [ o.d.M.N.g.g.6.+.D m 9 8 8 V O.K.rXvXjXI.y.E.          ",
"            w.E.wX9X&XB 3 < 8 Z L F ~ U.3 i Y 5.k.k.^.N.m.k.q.f.q.k.g.k.N.M.N.N.N.g.q...L m U.2.V Y E.#X<XnXvXU.9.1.            ",
"              6XsXaXhXU.9 3 9 m C Z U.2X< 3 9 K +.g.b.N.^.XX}. X(./.^.^.XX/.|.M.m.g.4.K 4XV OX2.Z Z Y.L.jXnX8Xi.~               ",
"                gXiX:XV.m 3 3 B C P B 2XT , < 9 C  .+.6.g.g.A.(.(.S.^.S.^.S.N.h.0. .L D gXN C 1.e.L.<.@XvXvX@Xa.                ",
"                  K.3.! B 9 Y.V.B C Z b 3 V.V.3 B K E +.+.4.5.q.f.h.0.q.f.h.f.4. .C m m 9 V U.<X,XY.e.%XMXcXG.                  ",
"                  <.Q ! J Z 4X2X9 B Z N b 9 gXgXb N N K D L  . .E +. .+.+.+.E V m 9 4 8 8 O.=XcX8X3Xt.8XMX0XB.                  ",
"                    C.Y.Y.%X8X@X9 9 N P N B K.K.9 b N C K B Z D E L L V V i < , , , i D G O.{.%Xn.O.7.=XvX%X                    ",
"                        zXnXmX0Xn.9 9 m Z Z m 8 3 3 b N Z V 8 9 s D D C B < < 0 W +XU.e.O.Q 2.e.@.@.@.V.                        ",
"                          nXmXMXnX@XZ 9 I.OXC M 8 4XdXu.8.Z V 3 < 8 s V C C 8.8.y.L.$XU.w.3.2.e.e.e.<.                          ",
"                            MXmXcXqXy.J u.pXwX2X9 U ,XpXO.b R R O.D.9XhXgXgX2XL.w.u.u.C.P.P.{.&X&XOX                            ",
"                                #XJ.8.J N Y.qXQ b 5 < Z.< h p.$XzXbXzX@XY.6XgX4XD.Z.l.D.%XrXxXMX                                ",
"                                    1./ ! J R ! / / Q Z Z Z ^ I.jXzXU.7.7.V.6XgXjX8X#X8XcXbX                                    ",
"                                        i.G.a.1.i.:X1X>Xp.B.B.W.dX8XJ.8.y.1XyXaXbXxXiXhX                                        ",
"                                              R.6XaXaXgX6X7X1X5XaXaX1XR.6XiXtXiXzX                                              ",
"                                                        zXaXgXzXtXtX5XyX                                                        "
};
