/* XPM */
static char *a264d5e2ae15457bfd38b7e7672298d95MoejHCxwbdOIJk6[] = {
/* columns rows colors chars-per-pixel */
"64 64 240 2 ",
"   c None",
".  c #0E113A",
"X  c #0E134A",
"o  c #151949",
"O  c #0F1452",
"+  c #0F155E",
"@  c #101554",
"#  c #151A53",
"$  c #11165B",
"%  c #141A5B",
"&  c #191E5D",
"*  c #1A1E53",
"=  c #0B0E47",
"-  c #1E245B",
";  c #21244A",
":  c #252959",
">  c #303358",
",  c #151B64",
"<  c #151C6C",
"1  c #191F6B",
"2  c #161B62",
"3  c #171E74",
"4  c #181F74",
"5  c #181F79",
"6  c #1C2265",
"7  c #1C226C",
"8  c #1C2374",
"9  c #1B237C",
"0  c #1E2977",
"q  c #202564",
"w  c #21266C",
"e  c #242A6B",
"r  c #292E6D",
"t  c #272C65",
"y  c #2D336B",
"u  c #353969",
"i  c #212774",
"p  c #242A74",
"a  c #292E73",
"s  c #242B7B",
"d  c #262C7C",
"f  c #2D3274",
"g  c #2C327C",
"h  c #28347A",
"j  c #353A7C",
"k  c #393D7B",
"l  c #343976",
"z  c #3D417E",
"x  c #3B4065",
"c  c #46497A",
"v  c #464971",
"b  c #1C2483",
"n  c #1E2886",
"m  c #242C83",
"M  c #282F83",
"N  c #252C89",
"B  c #242B85",
"V  c #2B3384",
"C  c #2C338B",
"Z  c #2D3B8C",
"A  c #273587",
"S  c #343A83",
"D  c #30378B",
"F  c #343B8C",
"G  c #393E8B",
"H  c #343A83",
"J  c #2B3B93",
"K  c #343C91",
"L  c #393F93",
"P  c #303790",
"I  c #3C4283",
"U  c #33438D",
"Y  c #3C428C",
"T  c #394586",
"R  c #2E4194",
"E  c #3C4394",
"W  c #3A4A94",
"Q  c #3B4C9B",
"!  c #354698",
"~  c #3E529C",
"^  c #3C5698",
"/  c #3D55A3",
"(  c #3D5CA7",
")  c #394EA0",
"_  c #444984",
"`  c #41478C",
"'  c #454B8B",
"]  c #464B87",
"[  c #4C5289",
"{  c #54588A",
"}  c #444B94",
"|  c #494F93",
" . c #444B9A",
".. c #494E9B",
"X. c #414795",
"o. c #4D5295",
"O. c #42549C",
"+. c #4C529C",
"@. c #485B9D",
"#. c #555B94",
"$. c #51569D",
"%. c #545A9C",
"&. c #575B96",
"*. c #5C619C",
"=. c #5C6191",
"-. c #5D6189",
";. c #666A9A",
":. c #636797",
">. c #74769A",
",. c #6A6E96",
"<. c #4454A1",
"1. c #445BA3",
"2. c #4A5CA3",
"3. c #485AA5",
"4. c #5156A1",
"5. c #555BA2",
"6. c #595EA4",
"7. c #4A61A3",
"8. c #4B64AA",
"9. c #4867AA",
"0. c #5C62A5",
"q. c #5E64A8",
"w. c #536CAD",
"e. c #5366A9",
"r. c #5973AE",
"t. c #566DB0",
"y. c #5574B4",
"u. c #5B73B4",
"i. c #5C7CBB",
"p. c #577AB8",
"a. c #4C6FB2",
"s. c #6165A5",
"d. c #656AA4",
"f. c #6166A9",
"g. c #656AAB",
"h. c #696EAC",
"j. c #696DA3",
"k. c #6D72AD",
"l. c #6977A9",
"z. c #7376A3",
"x. c #7276AD",
"c. c #7479AD",
"v. c #797CA7",
"b. c #6E74B1",
"n. c #657BB5",
"m. c #7176B1",
"M. c #757AB3",
"N. c #7A7EB4",
"B. c #5B83BB",
"V. c #6483BC",
"C. c #6B83BC",
"Z. c #6986BA",
"A. c #7D82B5",
"S. c #7E83B8",
"D. c #728ABC",
"F. c #7689B5",
"G. c #5B88C4",
"H. c #5E94CD",
"J. c #668AC3",
"K. c #6C8CC4",
"L. c #6886C1",
"P. c #738CC2",
"I. c #6A95C9",
"U. c #7A9CCC",
"Y. c #7597C9",
"T. c #6F9ED3",
"R. c #79A8D6",
"E. c #77A4D2",
"W. c #79B7E3",
"Q. c #7DCAF1",
"!. c #8588AB",
"~. c #8286B5",
"^. c #8285B9",
"/. c #858ABB",
"(. c #8A8EBD",
"). c #888BB5",
"_. c #8D91BD",
"`. c #8E91B5",
"'. c #9194BD",
"]. c #9598B8",
"[. c #9EA2BD",
"{. c #8A95C4",
"}. c #9295C2",
"|. c #9599C3",
" X c #9A9DC5",
".X c #9C9DC8",
"XX c #8B8FC0",
"oX c #9EA2C8",
"OX c #82A4D3",
"+X c #84AAD5",
"@X c #89ACD6",
"#X c #8CB5DD",
"$X c #87B3DA",
"%X c #95B5DA",
"&X c #8CA6D0",
"*X c #A4A7CA",
"=X c #A6BADB",
"-X c #B6B8D4",
";X c #B0B2CF",
":X c #8BBBE2",
">X c #83B9E2",
",X c #93BDE2",
"<X c #9BBDE1",
"1X c #89C5EA",
"2X c #96C3E4",
"3X c #9CCCEC",
"4X c #98C6E8",
"5X c #89DCFC",
"6X c #98D7F5",
"7X c #8DCEF2",
"8X c #A6CAE8",
"9X c #ACD2ED",
"0X c #B8D4ED",
"qX c #A3D4F1",
"wX c #A7DBF5",
"eX c #B5DBF3",
"rX c #B3CFEA",
"tX c #8DE1FF",
"yX c #93E1FF",
"uX c #9DE2FE",
"iX c #A4E5FE",
"pX c #ACE4FC",
"aX c #ADE8FF",
"sX c #A4E9FF",
"dX c #B2E5FC",
"fX c #BCE3F8",
"gX c #B4EAFF",
"hX c #BBECFF",
"jX c #BCE1F6",
"kX c #BEC1D9",
"lX c #C5C7DD",
"zX c #C4EDFE",
"xX c #CAEDFD",
"cX c #C4E5F8",
"vX c #D6EDFA",
"bX c #CEF0FF",
"nX c #D3F1FF",
"mX c #DBF3FF",
"MX c #E1F4FF",
"NX c #CCCDE0",
/* pixels */
"                                                        yXtX5XxXaXgXgXgX                                                        ",
"                                              aXaXaXiXiX7XiXiXhXhXaXgXzXhXzXhXaXgX                                              ",
"                                        4X3XiXuX>X6X6X1XW.1X7XaXdXaXwXpXpXdXjXdXgXwXqX3X                                        ",
"                                    K.K.I.I.R.R.K.I.T.G.G.T.E.8XqX4X#X,X1X8X8X,X3X4X4X+Xn.w.                                    ",
"                                jX+XY.P.i.9.7.@.2.R.R.9.w.p.V.@X8X,X%X<X3X9X<XU.U.<X0XrXC.O.2.{.                                ",
"                            D.eX%XV.J.OXP.y.O.U ~ wX+X( ^ +XgX%X=X0XrXcXfXzX4Xy.w.P.eXxX%Xr.r.&X4XE.                            ",
"                          U w.%Xn.7.@X3X+X9.W S Z qXV.R U 2XwX5./.=X8X0X8X@XC.O.O.7.K.+X+X%X%X4X+Xy.1.                          ",
"                        R W V.C.2.m V.wX3Xd d s V 7.! m 9 b 9 b 9 9 M W ! Q <.O.Q Q 2.8.p.K.eX0XwXI.9.~                         ",
"                      %.@.@.o.Y G F s r.A s m U.O.N N C K.qX:XV.9 9 9 9 8 s B C m J ! ! 3X:X+X9XjXjXU.i.a.                      ",
"                  U.3.Q K 8.dXpXN Z m G C C gXdX4XN N N K.dXgXgXb C C m 4 9 s m 9 b 9 0 +Xi.p.%XrXvXvX8X@XG.B.                  ",
"                mX{.2.! Z 3XqXE.Z L D L Z Z +Xn.L D P E  .E C N b N N m d m b 9 9 5 ~ ~ 9 h 2.C.{.rXnXnXvXcX0X%X                ",
"                9Xn.C 9 5 4 5 b C ..+.g.0.0.q.0.h.q.k.A.A.M.g.6.4.6...Z m m N m b 9 ^ gXV.3 2XU.2.K.<XjXvXMXMXvX                ",
"              p.9.u.U.3 4 s D X.X...4.4. .6.4.+.f.6.0.g.f.g.f.6.g.h.m.A.m.6.E G V C V K.V.3 Y.#XV O.#XL.OX%X8X=XV.              ",
"            R ! 9 3XU.3 8 V Y $.+.4.f.f.0.g.6.0.q.$.s.s.0.q.6.4.$...+.s.g.A.M.M.q...G K Z m W U 8 V E.Y.<.e.t.7.@.<.            ",
"          C N b 3 3 8 s G E ..h.4. ...P P G V V C g f e f l k _ I S ` %.$.0.q.h.m.g.g.h.+.E 3XgX#X8 Y Z L.Y.3XO.@.e.OX          ",
"          ,Xn 5 < 0 m Z E X...+.D D D m d p d G D g j r a f a S w p 1 w r _ o.5.q.m.h.S.f. .E 4XY.8 V Z e.,X3Xn.%.e.&X          ",
"        gXY.~ gX8 V N L E E D F i 8 1 4 8 8 C D C 0 i 7 i d d S h _ H 8 3 7 p a I o.o.k.M.b.+.L N 9 2.2.1.<XcX%Xe.e.&XMX        ",
"        J b gXpXM C N L Z V m 8 1 g g ` #.| +.o.} %.0.#.%.o.Y Y V S ` I j i s 8 8 S S | h.N.M.5.L m U.OXC U.=X&X2.2.{.xX        ",
"      / J 3 w.U C N b N 9 s d g I ' j.N./.(.|.XXS.N.^.N.N.S.N.M.f.b.b.0.} Y S i , < 8 a | k.N.k.4.D m V N A O.O.Q 3.P.rXbX      ",
"      1.R 3 m C N b 9 p i g Y o.s.N.*X}.}./.S.k.q.0.k.g.h.b.b.k.5.q.M.x.M.k.s.E g 7 , < d %.^.N.g.+.L 4XgX9 8 G O.w.P.%XcX      ",
"    $Xp.R 0 C C b 9 p f g Y o.h./.XX}.m.h.s.*.{ ' _ _ _ ` _ [ ] I [ $.4.f.m.b.0.` d w $ @ p 5.A.b.6...P D m 4 D e.U.C.D.8XhX    ",
"    cX%XA m P N m d 7 d ` s.M.XX/.c.#.I H a - # # & & & 6 : r q - e y f ] %.A.S.g.Y f 7 $ % S 0.k.g.q.5.L m 4 i U.$Xu.l.#XiX    ",
"    nX0Xm D C m g i i E 6.S.).~.=.I p % $ X # & & f r k k f d 2 2 1 , 1 q l 0.k.S.0.Y w $ @ 7 X.*.g.g.g...C 9 , +XL.u.Z.9XzX    ",
"  hXzX=Xm C C d s s G } k.v.A.:.l s , $ 7 6 c { { !.>.!.`.!.].>.{ _ e < 7 7 l ' d.f.x.| 7 X % i o.M.M.m.0. .m , W y.w.D.jXbXzX  ",
"  gXaXU.m C p e d D  .6.m.~.z.k 7 1 6 l [ =.!.'. XoX'.oX*X|.oX|. X*X).j.S g e : z | N.0.G # O 7 o.M.M.M.h.4.V 2 0 8.L.4XgXaXiX  ",
"  gX9X1.B 8 qXgXK ..g.g.^.k.X.2 q _ #.*././.}.*X;X;XoXXX(.A.).~.^.}./.}._.z.l * w j :.c.*.6 O $ S d.N.|.N.f.E < < 8.2XgX6XyXtX  ",
"  iXV.C b U.pXs  .g.A.b.^.k.a * y [ h.N.|..X X'.A.=.c y > : : u { A.S.}.}.c.{ q + i ] c.~.' # @ a o.M./.S.h.o.i < C gX6XV.1XiX  ",
"  R.8.n 3 Z.D.D f.^.^.h.}.;.t - l d.A./.(./.&.c > > ; o o * # o . ; u *.^.(.!._ 2 < r { x.+.7 # & [ N.XX^.f.+.V m C gXY.7.y.6X  ",
"5XG./ b 3 $ i E m./.M.A.}.c - : _ h.}./.N.;.> ; o : > y u v u : * : o : | g.(.*.p < p { N.k.k * @ S k.^.S.q.+.V C V hX@X7.9.R.yX",
"Q.G.9.5 < 2 g $.N.^.h.(.A.l w w _ k.}.c.[ > ; > x c ,.>.!.z.:.c v u o = q #._.N.j 1 q { k.0.Y - X f g.^.^.0...L D s 9XzXU.J.1XtX",
"7X>XG.n 3 s E 0.h.M.S.'.j.y a e &.~._.;.u ; > v >.[.-X-XkX;X].).v.[ . . $ o.|.A.g , p ;.k.5.| e X p k./.S.h.+.L C 8 D.bXzX8XaXtX",
"yX6X7XA < V E q.0.h.S.).o.e U k :.N.'.-.; o : _ N.;XlXlXlX*X|.`.v.[ - # e c.|.h.w @ e j.N.5.} a $ i 0.(.(.f.E E s < O.zXjXdXaXtX",
"aXgXdXZ s E 5.f.+.g.}.~.Y f h l *.s.'.:.: o o t { (.;XlXNX-X;X].c.' r c ;.}._.+.2 O j A.S.4.+.t $ p s. X(.0. .D 9 3 R +XI.W.5XzX",
"hXiX4XZ d E 4.+.4.M._.A.' f 8 f { j.*Xv.u @ o O t #.A. X*X*X;X;X*X_.`.[.;X.Xh.p O # ' A.^.k.Y & @ l q.}.A.5. .Z 8 V K p.^ B.1XgX",
"gXwX#XZ V +.5.....M.XX^.$.z p j k _ !.`.v.k y O o * k v.).'.oX}. X}.|.*X}.d.j 1 @ a k.(./.5.e $ % H k.XXg.4.L B V Z b h Z B.7XaX",
"gX6X,X@.D +.+.X...A.^.^.d.[ f _ j _ v.}.'.v.{ y O # 6 : t _ ;.k.x.N.A./.d.Y 7 e w z.~.M.M.I % , 6 o.m.^.g.+.D P Z 2.O.< Z p.6XzX",
"  8X<Xn.L <.C.E +.m.S.A.c.*.H f f l *.~.}.}.(.:.u & 7 - - * t t l z I k q 7 $ 7 o.A.M.d.o.2 $ , _ s.N.N.6.+.K C N u.pXZ.Z >XgX  ",
"  xXrX=XP  .gXL  .g.g.g.N.c.#.p h p j *./.|.}.).!.{ f q & O O % 2 6 & & & 7 l &./.}.*.G V X t s +.x.^.m.+.E C N n dX,X< Q 1XaX  ",
"  xXrX8XK P.Y.E g.0.5.0.m.^.m._ T i w f &.c._.*XoX(.A.z.c r 6 7 8 w 7 p a ' &.k.N.#.H M 2 - e G m.M.k.g. .P N b 5 4XU 5 / :XaX  ",
"  eX4X@X! C E ..5.L G +.h.N.S.d.I 8 7 p I c { ~.'.XXoX*X].].).`.A.;.;.:.&.j.x.d.&.Y s < 7 l S 0.S.N.k.+.C B b 9 3 8 9 b / i.6X  ",
"  iXW.p.K C } 0.5.M g +.s.f.^.A.x.&.f w f y u c { ;.v.~.^.S.N./.A.k.M.b.5.%.] f r 2 < 3 S [ 5.m.M.h.5.K 9 3 gXK.8 M 4XQ ! 1.R.  ",
"    a.1.! 0 Y m...9 i I 4.6.S./.N.c.j.' S f f y t u [ c :.z.z.z.&.] [ c l l e w w S G G 5.k.M.A.h.0.Y 0 < V.gXK.m C wXqXR a.    ",
"    9.) 1.h G x. .b 8 g F E m.M.N._.N.c.N.#.] z [ T g q e t : t > t y f j a r k S #.0.$.k.^.M.g.} S i 3 , V.9 m C OXpXY.J G.    ",
"    J.y.:Xe.Y k. .B 3 8 g F 6.h.g.~.N.m.(.A.~.z.:.{ [ _ I I l d e r f z ' ] #.%.d.m./.A./.N.%.| g i 3 3 T 3 b N Z K.u.N ! i.    ",
"      OX6XR.E k.+.N 9 < < s } 5.f.k.m.}.|.(.}..X^./.).z.v.,.,.,.>.v.v.!.A.c./.~.^./.(.c.d.| S V 8 < U.2X2Xb N P m 9 J J /       ",
"      %X8XK.X.0. .L B 3 < 8 D %.0.0.0.q.N.N.M.(.A./. X|. X X|.(.(.(.~.'._.(.}.^.A.d.*.$.} g 8 8 3 3 ~ U.m Z Z N 9 R y.8.1.      ",
"        :XV.+.6.E C P.Z.< 3 m Y %.4.6.0.g.g.g.N.m.M.(.S.^./. X}.|. X(._./.(.(.A.x.*.} S 8 < < 4 9 m G Z P C B 9 9 @XqXJ.        ",
"        K.i.@. .L P pXpXw < 9 D ' X.} Y ..4.+.k.k.0.m.m.m.m.m.m.k.f.$.4.0.g.f.4.+.D d i 8 s V G G  .L C C m 9 9 n.nXcX#X        ",
"          D.e...L E OXE.s 7 8 9 E } X.G L  .o.f.b.4. .F G ..$.+.0.0.5.+. .+.+.+.+.$.| ` ` G G D N P Z m m V.2X@X0XMXmX          ",
"          r.1.<.E  .N K.Z.7 < 9 M Y %.G M S S o.h.M.g.} S V g D E D K E E ..4.4.+.$.| E G C P Z M m 8 9 3 Y.4X8XmXmXMX          ",
"            7.w.,Xh.P b 9 8 3 9 m G #.Y V 9 d S o.q.5.$.} F s 8 g p g g d C F G G E L F D m s < Y.gX< 3 3 9 Z %XnXnX            ",
"              i.3X#X2.N 3 2XU.5 9 V o.| F 9 3 8 S #.%. .$.Y V V M 4 0 m m C D g p e 7 2 $ , , , U.2X3 9 m B J Y.zX              ",
"                wX4XC.! 4 2XU.5 3 8 G }  .D 9 5 s r j } 6.0.o.Y m 3 3 5 9 b b ~ U.wX2X3 < 3 < < < 3 m U.V.! ! Y.                ",
"                K.Y.OXP.D.s 9 9 3 4 a ` E E D D s 8 i g G +.0.f.0.} Z C N Z N 2.@.Y.W I h 0 8 9 s W &XhX:X1.Q C.                ",
"                  J.@XeX0Xn.A 9 3 3 8 g G L Z ..F s 8 i p j } 4.4.6.X...E L E L E L P 5.4.E L P Q P.9XaXiXK.<.                  ",
"                      xXcXP.F Z ~ Z 8 V V L P .. .L V s 1 i f I +.5.E  .Z <.+XZ E  ...0.q.n.t.! Q V.wXiXgX                      ",
"                        eXi.Q 7.K.#XZ.7.2.8.2.<. . .U Z 8 3 0 i d S g X.F G 3X<.P O.u.+XeX9XOX3.<.p.E.6X                        ",
"                          y.8.C.%XY.w.1.9.R.qX1XV.t.u.2.C Z ! 9.>X3X@Xl.W g V F @.U.eXzXgXhX<Xr.~ 2.w.                          ",
"                            n.D.C.w.^ 9.J.wXwXE.y.w.V.n.8.Q w.+XdXaXpX@X7.U A Z W P.jXzXgX@Xn.2.! @.                            ",
"                                p.a.p.I.$X#XR.G.i.i.E.K.3.! 1.J.R.R.V.w.1.W Z U y.,XeXzXR.i.2.!                                 ",
"                                    :XqX:XR.W.T.T.U.,XU.u./ 1.1./ / <.9.i.T.i.J.4XwXxXfXT.B.                                    ",
"                                        jXjXfXjX9XjXfX9X#XT.G.( Q Q / p.7X1X7X7XgXzXzXgX                                        ",
"                                              nXnXxXxXxXzXgXiXW.H.G.I.yX5X5XyXtXuX                                              ",
"                                                        zXgXgX5XyXwXsXuX                                                        "
};
