/* XPM */
static char *_5b8bfde87f047edfcf4a10fcb1b8732oCOmqfSGKaSYpvKp[] = {
/* columns rows colors chars-per-pixel */
"64 64 21 1 ",
"  c None",
". c #BEA100",
"X c #BFA101",
"o c #BEA200",
"O c #BFA200",
"+ c #C1A100",
"@ c #C1A101",
"# c #C0A301",
"$ c #FDD600",
"% c #FFD600",
"& c #FED700",
"* c #FED602",
"= c #FCD800",
"- c #FFD800",
"; c #FFD801",
": c #FFFFFD",
"> c #FEFEFE",
", c #FEFEFF",
"< c #FFFEFF",
"1 c #FEFFFF",
"2 c white",
/* pixels */
"                                                                ",
"                                                                ",
"                                                                ",
"                                                                ",
"                                                                ",
"                                                                ",
"                                                                ",
"                                                                ",
"                                                                ",
"                                                                ",
"                                                                ",
"                                                                ",
"                                                                ",
"                                                                ",
"                                                                ",
"                                                                ",
"                            OOOOOOOO&O                          ",
"                          OO&&&22&&&O&O                         ",
"                         O&&&222-&2&&O&O                        ",
"                         O&&222&&&&2&O&O                        ",
"                         O&&22-&&&&&&O-O                        ",
"                         O&222&&&-&&&O&O                        ",
"                         O222&&&&&&&&+&O                        ",
"                         O22&&&&&&&&2O&O                        ",
"                         O2&&&&&-&&22O&O                        ",
"                         O&&&&&&&&222O&O                        ",
"                         O&&-OOOOO222O&O                        ",
"                         O&-OO+O+OO2&O&O                        ",
"                         O2&O-&222O&&O&O                        ",
"                         O2&O&222&O&&O&O                        ",
"                         O2-O&222&O&2O&O                        ",
"                         +&&O222&&O&2+&O                        ",
"                         O&&O222&&O&2O&O                        ",
"                         O&&O22&&&O&2O&O                        ",
"                         O&2O22&&&O&2O&O                        ",
"                         O22O2&&&&O&2O&O                        ",
"                         O22O2&&&&O&&O&O                        ",
"                         O22OOO+OOO&&O&O                        ",
"                         +22&OOOOO-&&O&O                        ",
"                         O2&&&&&&&&22O&O                        ",
"                         O&&&&&&&&222O&O                        ",
"                         O&&&&&&&2222O&O                        ",
"                         O&&&&&&2222&+-O                        ",
"                         O2&-&&2222&&O&O                        ",
"                         O2&&&2222&2&O-O                        ",
"                         O&&22222&2&2O&O                        ",
"                          OO-222&&&2OOO                         ",
"                            OOOOOOOOO                           ",
"                                                                ",
"                                                                ",
"                                                                ",
"                                                                ",
"                                                                ",
"                                                                ",
"                                                                ",
"                                                                ",
"                                                                ",
"                                                                ",
"                                                                ",
"                                                                ",
"                                                                ",
"                                                                ",
"                                                                ",
"                                                                "
};
