/* XPM */
static char *_960d15488304d98d68289cbac0a26515vGzBoLGwWjUu5Ni[] = {
/* columns rows colors chars-per-pixel */
"64 64 9 1 ",
"  c None",
". c #BEA100",
"X c #BFA200",
"o c #C1A100",
"O c #C0A301",
"+ c #FED700",
"@ c #FFD801",
"# c #FEFFFF",
"$ c white",
/* pixels */
"                                                                ",
"                                                                ",
"                                                                ",
"                                                                ",
"                                                                ",
"                                                                ",
"                                                                ",
"                                                                ",
"                                                                ",
"                                                                ",
"                                                                ",
"                                                                ",
"                                                                ",
"                                                                ",
"                                                                ",
"                                                                ",
"                               XO                               ",
"                              X$@X                              ",
"                              X++X                              ",
"                              X+$O                              ",
"                              X++X                              ",
"                              X+$X                              ",
"                              X+$O                              ",
"                              X++X                              ",
"                              X++X                              ",
"                              X++X                              ",
"                              X++X                              ",
"                              X++X                              ",
"                              X++X                              ",
"                              X++X                              ",
"                              X++X                              ",
"                              X++X                              ",
"                              X++X                              ",
"                              X++X                              ",
"                              X++X                              ",
"                              X++X                              ",
"                              X++X                              ",
"                              X++X                              ",
"                              X++X                              ",
"                              X++X                              ",
"                              X++X                              ",
"                              X++X                              ",
"                              X++X                              ",
"                              X++O                              ",
"                              X+$O                              ",
"                              X++X                              ",
"                              X$+X                              ",
"                               XX                               ",
"                                                                ",
"                                                                ",
"                                                                ",
"                                                                ",
"                                                                ",
"                                                                ",
"                                                                ",
"                                                                ",
"                                                                ",
"                                                                ",
"                                                                ",
"                                                                ",
"                                                                ",
"                                                                ",
"                                                                ",
"                                                                "
};
