/* XPM */
static char *_69cda324c334f40c0b3811e636f7db8dCC7iiSLU32dBPXy[] = {
/* columns rows colors chars-per-pixel */
"64 64 27 1 ",
"  c None",
". c #BDA100",
"X c #BEA000",
"o c #BEA100",
"O c #BFA101",
"+ c #BEA200",
"@ c #BFA200",
"# c #C0A000",
"$ c #C1A100",
"% c #C0A301",
"& c #FBD700",
"* c #FDD501",
"= c #FED500",
"- c #FDD600",
"; c #FFD600",
": c #FED700",
"> c #FED602",
", c #FFD602",
"< c #FCD800",
"1 c #FFD801",
"2 c #FEFEFC",
"3 c #FFFFFD",
"4 c #FEFEFE",
"5 c #FEFEFF",
"6 c #FFFEFF",
"7 c #FEFFFF",
"8 c white",
/* pixels */
"                                                                ",
"                                                                ",
"                                                                ",
"                                                                ",
"                                                                ",
"                                                                ",
"                                                                ",
"                                                                ",
"                                                                ",
"                                                                ",
"                                                                ",
"                                                                ",
"                                                                ",
"                                                                ",
"                                                                ",
"                                                                ",
"                   ++++++++++++++++$+++++$+$+                   ",
"                 $+::1:::::::::::::::888888::++                 ",
"                +:::::::::::::::::::::888888:::+                ",
"                +:::8888:::::::::::::1:888888:1+                ",
"                +::8:::::::::::::::::::8888888:+                ",
"                +:::::::::::::::::::::::8888888+                ",
"                +::::::::::::::::::::::::888888$                ",
"                +:::::::++++++++++++$+$++:88888+                ",
"                +8:::::+++++++++++++++++$+:8888+                ",
"                +88::::$+::1::::::::::::++::888+                ",
"                +888:::++:::::::::::::::++::888+                ",
"                $8888:1+$1:1::::::::::::++:::88+                ",
"                +888888++::::::1::::::::++1:::8+                ",
"                +888888++::1::::::::::::++:1:::+                ",
"                +:88888++8:::1::::::::::++::::&+                ",
"                +::8888++88:::1:::::::::++:::::+                ",
"                +1:8888++88:::::::1:::::++:::::+                ",
"                +:::888++888::::::::::::++:::::+                ",
"                +::::88++8888:::::::::1:++:::::+                ",
"                $:::::8++88888::::::::::++:::::+                ",
"                +::::::$+888888:::::::::++:::::+                ",
"                +::::::++8888888::::1:::++:::::+                ",
"                +1:::::++88888888::::::&++:::::+                ",
"                +:1::1:++:8888888:::::::++:::::+                ",
"                +:::1::+++$+++++++++++++++1::::+                ",
"                +:::::::++++$+++++++++$++::1:::+                ",
"                +::8::::::1:88888888::1::::::8:+                ",
"                +:8::::::::::88888888:::::1::8:+                ",
"                +1:88:::::::::88888888::::::81:+                ",
"                +::::8:::::::::88888888::::8::1+                ",
"                 ++:::::::1:::1::8888888:::::++                 ",
"                   ++++++++++++++$+++++++++++                   ",
"                                                                ",
"                                                                ",
"                                                                ",
"                                                                ",
"                                                                ",
"                                                                ",
"                                                                ",
"                                                                ",
"                                                                ",
"                                                                ",
"                                                                ",
"                                                                ",
"                                                                ",
"                                                                ",
"                                                                ",
"                                                                "
};
