/* XPM */
static char *_89a012e880240ac86ef1166a9b1e2c8T7fggIfHuHaNqg0O[] = {
/* columns rows colors chars-per-pixel */
"64 64 21 1 ",
"  c None",
". c #BEA100",
"X c #BFA101",
"o c #BEA200",
"O c #BFA200",
"+ c #C1A100",
"@ c #C1A101",
"# c #C0A301",
"$ c #FDD600",
"% c #FFD600",
"& c #FED700",
"* c #FED602",
"= c #FCD800",
"- c #FFD800",
"; c #FFD801",
": c #FFFFFD",
"> c #FEFEFE",
", c #FEFEFF",
"< c #FFFEFF",
"1 c #FEFFFF",
"2 c white",
/* pixels */
"                                                                ",
"                                                                ",
"                                                                ",
"                                                                ",
"                                                                ",
"                                                                ",
"                                                                ",
"                                                                ",
"                                                                ",
"                                                                ",
"                                                                ",
"                                                                ",
"                                                                ",
"                                                                ",
"                                                                ",
"                                                                ",
"                          O&OOOOOOOO                            ",
"                         O&O&&&22&&&OO                          ",
"                        O&O&&2&=222&&&O                         ",
"                        O&O&2&&&&222&&O                         ",
"                        O=O&&&&&&=22&&O                         ",
"                        O&O&&&=&&&222&O                         ",
"                        O&#&&&&&&&&222O                         ",
"                        O&O2&&&&&&&&22O                         ",
"                        O&O22&&=&&&&&2O                         ",
"                        O&O222&&&&&&&&O                         ",
"                        O&O222OOOOO=&&O                         ",
"                        O&O&2OO#O#OO=&O                         ",
"                        O&O&&O222&=O&2O                         ",
"                        O&O&&O&222&O&2O                         ",
"                        O&O2&O&222&O=2O                         ",
"                        O&#2&O&&222O&&#                         ",
"                        O&O2&O&&222O&&O                         ",
"                        O&O2&O&&&22O&&O                         ",
"                        O&O2&O&&&22O2&O                         ",
"                        O&O2&O&&&&2O22O                         ",
"                        O&O&&O&&&&2O22O                         ",
"                        O&O&&OOO#OOO22O                         ",
"                        O&O&&=OOOOO&22#                         ",
"                        O&O22&&&&&&&&2O                         ",
"                        O&O222&&&&&&&&O                         ",
"                        O&O2222&&&&&&&O                         ",
"                        O=#&2222&&&&&&O                         ",
"                        O&O&&2222&&=&2O                         ",
"                        O=O&2&2222&&&2O                         ",
"                        O&O2&2&22222&&O                         ",
"                         OOO2&&&222=OO                          ",
"                           OOOOOOOOO                            ",
"                                                                ",
"                                                                ",
"                                                                ",
"                                                                ",
"                                                                ",
"                                                                ",
"                                                                ",
"                                                                ",
"                                                                ",
"                                                                ",
"                                                                ",
"                                                                ",
"                                                                ",
"                                                                ",
"                                                                ",
"                                                                "
};
