/* XPM */
static char *player_back1708619963[] = {
/* columns rows colors chars-per-pixel */
"57 64 167 2 ",
"   c None",
".  c #272C39",
"X  c #282C3D",
"o  c #7A5636",
"O  c #7D5936",
"+  c #7B5738",
"@  c #7D5939",
"#  c #7A562F",
"$  c #292C40",
"%  c #1E0C6E",
"&  c #1D0C70",
"*  c #210D6E",
"=  c #25166D",
"-  c #210F71",
";  c #241274",
":  c #281775",
">  c #2B177D",
",  c #2D187D",
"<  c #382B67",
"1  c #3B297C",
"2  c #392975",
"3  c #462E5E",
"4  c #432B60",
"5  c #805C3C",
"6  c #8F6948",
"7  c #946D4A",
"8  c #966D47",
"9  c #9B714C",
"0  c #9E7959",
"q  c #9C7552",
"w  c #A47954",
"e  c #A17C5B",
"r  c #A17650",
"t  c #A4805F",
"y  c #A68261",
"u  c #CF9154",
"i  c #D09154",
"p  c #D29E70",
"a  c #DFA36D",
"s  c #DCA576",
"d  c #DAA87B",
"f  c #E1AC7D",
"g  c #EBB27F",
"h  c #2F1982",
"j  c #2D1781",
"k  c #321A84",
"l  c #341C89",
"z  c #381E8B",
"x  c #391F90",
"c  c #3C2589",
"v  c #292595",
"b  c #272799",
"n  c #282798",
"m  c #26299B",
"M  c #292A9C",
"N  c #262697",
"B  c #3C2193",
"V  c #3E219A",
"C  c #2C2DA2",
"Z  c #332FAB",
"A  c #2934AF",
"S  c #2532AF",
"D  c #3330AB",
"F  c #2533B2",
"G  c #2A36B1",
"H  c #2C3AB5",
"J  c #2F3DB9",
"K  c #303CB4",
"L  c #303EBA",
"P  c #4D318F",
"I  c #412596",
"U  c #432896",
"Y  c #43259E",
"T  c #4B2B9D",
"R  c #472B9A",
"E  c #4D3496",
"W  c #553A94",
"Q  c #5B3883",
"!  c #683F8F",
"~  c #653D97",
"^  c #4526A1",
"/  c #4D2BA5",
"(  c #522EA9",
")  c #4138A6",
"_  c #4F31A2",
"`  c #5131A6",
"'  c #5D3DA5",
"]  c #5533AA",
"[  c #5A34AE",
"{  c #5C3BAD",
"}  c #5539A2",
"|  c #5D34B1",
" . c #6137B4",
".. c #633CB3",
"X. c #3141BE",
"o. c #5C478F",
"O. c #5A469B",
"+. c #776087",
"@. c #5F40A7",
"#. c #4544B3",
"$. c #585EBA",
"%. c #4B42A9",
"&. c #6443AB",
"*. c #6449A6",
"=. c #6444B3",
"-. c #6A43B7",
";. c #6B4DB5",
":. c #6C44B9",
">. c #6E49B9",
",. c #704DB6",
"<. c #734CBB",
"1. c #6D52B6",
"2. c #7757BC",
"3. c #7C64B7",
"4. c #3446C2",
"5. c #3649C6",
"6. c #374AC8",
"7. c #3A4ECC",
"8. c #3B50CE",
"9. c #3E54D3",
"0. c #4B57C3",
"q. c #5E5EC3",
"w. c #4057D6",
"e. c #4158D7",
"r. c #455DDD",
"t. c #7F57C3",
"y. c #7F58C2",
"u. c #5D64C1",
"i. c #465FE0",
"p. c #4761E1",
"a. c #4963E5",
"s. c #4B67E9",
"d. c #4D69EB",
"f. c #4F6DF0",
"g. c #506FF2",
"h. c #5372F6",
"j. c #5575FA",
"k. c #5778FD",
"l. c #597AFF",
"z. c #825AC5",
"x. c #8E76C6",
"c. c #957CCB",
"v. c #856CC2",
"b. c #A68796",
"n. c #A489A8",
"m. c #A990B7",
"M. c #DCAE85",
"N. c #DEB087",
"B. c #E4B388",
"V. c #F6BB86",
"C. c #FDBF86",
"Z. c #F7BE8C",
"A. c #F9BE8A",
"S. c #EBBC91",
"D. c #FAC08E",
"F. c #EBC29E",
"G. c #FAC291",
"H. c #FBCA9D",
"J. c #F6C599",
"K. c #EAC5A4",
"L. c #FDCEA3",
"P. c #FFDBB9",
"I. c #FCD4B0",
"U. c #A790CB",
"Y. c #BEA9E5",
"T. c #BAA5E4",
"R. c #C2ACE4",
/* pixels */
"                                                                                                                  ",
"                                                                                                                  ",
"                                        G G G G A A G G A A G G H A A                                             ",
"                                        G H G G H H G H H A H G G H H                                             ",
"                                G G G G 4.8.7.6.w.e.e.r.e.r.8.8.6.7.4.G G G G     G G G G G G G G                 ",
"                                G G G G 5.8.8.0.e.i.i.r.r.r.w.8.8.9.4.G G G G     G G G G G G G G                 ",
"                            G G 4.7.9.9.d.h.a.r.r.r.i.i.r.i.r.r.s.h.d.e.9.7.4.G J 6.8.e.r.r.e.e.w.G G             ",
"                            G A 5.9.r.r.g.k.s.r.r.r.r.r.i.r.r.r.d.l.g.r.e.9.4.G X.8.9.r.r.r.r.i.e.G G             ",
"                        G A 4.7.e.r.f.j.s.p.p.r.r.p.r.p.r.r.r.r.i.p.d.j.d.r.e.7.8.r.r.r.r.r.a.h.h.e.9.G G         ",
"                        G G 5.8.e.r.g.k.s.r.p.r.r.r.r.r.r.r.p.r.r.r.s.k.g.r.e.8.9.r.r.r.i.r.a.k.h.p.e.G G         ",
"                    G G 4.7.e.r.r.r.h.k.s.r.r.r.r.r.r.r.p.r.r.r.r.r.d.k.g.r.e.8.9.r.a.h.h.h.h.k.h.r.r.6.5.G G     ",
"                    G G 5.7.r.r.r.r.g.k.s.r.r.r.r.p.p.r.r.r.r.r.r.r.d.k.g.p.e.7.9.r.a.l.k.k.k.k.j.i.r.8.7.G G     ",
"                    G G 6.8.r.r.r.r.p.a.f.h.h.h.s.r.r.r.r.r.d.h.h.h.d.a.r.9.9.7.9.r.i.a.s.k.h.a.a.r.r.r.e.H G     ",
"                    G A 6.8.r.r.r.p.r.r.g.k.k.k.d.r.p.r.r.e.d.l.k.k.g.r.e.7.8.8.9.i.r.r.a.k.h.r.r.r.r.r.e.G G     ",
"                G G 4.5.w.r.r.r.r.r.r.r.p.a.g.k.h.h.h.h.h.h.h.k.g.a.r.9.9.8.6.H X.9.9.i.r.a.a.r.r.p.r.r.r.5.5.H G ",
"                G G 7.8.e.r.r.r.r.r.p.r.r.r.f.k.k.k.k.k.k.k.k.k.f.r.e.7.7.8.4.A J 8.9.i.r.i.r.r.r.r.r.r.r.8.7.G G ",
"                G G 6.8.e.r.r.r.9.9.9.9.9.i.p.a.a.a.a.s.a.a.a.s.r.9.9.8.w.r.w.5.X.X.X.r.r.i.i.r.r.r.i.r.r.r.w.H G ",
"                G G 6.9.r.p.r.i.9.8.8.8.r.r.i.r.r.r.r.r.r.r.r.r.9.7.7.8.0.p.e.8.5.G X.p.r.r.r.r.r.i.i.r.r.r.r.G G ",
"                G G 6.8.9.9.9.9.9.e.r.e.r.p.r.i.r.r.r.r.e.9.9.9.9.r.9.r.9.p.r.e.8.A H 8.w.r.r.i.i.r.r.i.r.i.e.H G ",
"                G G 6.8.7.7.7.7.r.p.r.r.r.r.r.r.r.r.p.r.e.8.8.8.9.p.r.p.r.r.r.i.8.A X.8.w.r.r.i.r.i.r.r.r.p.e.G G ",
"                G G 6.7.9.9.r.9.r.i.i.r.r.r.r.p.r.r.r.p.r.9.9.r.r.r.r.r.r.w.w.i.e.5.X.X.X.r.r.r.r.i.r.r.r.i.r.H G ",
"                G H 6.9.p.p.p.p.r.r.r.r.r.r.r.r.p.r.r.r.p.p.p.r.r.r.r.a.e.7.8.p.r.8.5.A X.r.i.r.i.r.i.r.r.i.e.H G ",
"                F F 6.8.9.9.9.9.9.9.r.r.r.i.r.r.r.r.r.r.r.r.r.r.r.r.9.9.w.e.e.9.9.8.5.A H w.w.i.r.r.r.r.r.9.8.G G ",
"                F F 6.8.8.8.8.8.8.8.e.i.r.r.r.i.r.r.p.r.r.p.r.r.r.r.r.8.9.p.e.7.8.8.5.G X.8.8.r.r.i.i.r.r.8.8.G G ",
"                b.b.$.7.9.9.r.9.9.9.p.r.r.r.p.r.i.i.r.r.r.r.r.r.r.9.9.r.r.r.r.8.8.r.8.A J 8.9.r.r.i.r.r.r.8.7.G G ",
"                D.D.u.8.r.i.p.i.p.r.r.p.i.r.r.r.r.r.r.p.r.p.p.p.9.7.9.i.r.r.9.7.9.i.w.A H 8.8.i.r.r.i.i.r.8.7.H G ",
"                V.V.u.7.9.9.r.i.i.r.r.r.i.r.r.r.r.r.r.r.r.9.9.9.9.r.r.r.r.9.9.r.w.9.8.G J 8.8.r.i.r.r.9.9.8.7.G G ",
"                A.A.u.8.9.8.9.p.r.r.i.r.r.r.r.p.p.p.r.p.9.8.9.8.9.a.r.r.9.8.9.p.r.8.4.G H 8.9.p.r.i.r.8.8.8.8.G G ",
"                a a $.7.8.8.9.9.r.r.r.r.r.r.r.9.9.9.9.9.9.r.e.9.r.i.r.9.9.e.9.9.8.8.8.X.X.X.4.9.w.i.r.8.7.X.X.    ",
"                u i $.7.8.8.8.7.r.i.p.a.r.p.9.8.8.8.8.8.9.p.r.r.r.i.9.8.9.a.r.8.8.8.8.8.7.A H 8.8.i.r.8.7.G A     ",
"                +.+.0.7.8.8.8.8.9.9.9.9.9.9.9.9.9.9.9.9.r.i.r.r.r.r.r.9.9.9.9.8.8.8.8.8.5.G J 8.8.9.9.8.7.G G     ",
"                F F 6.9.7.8.8.8.8.7.8.8.8.8.r.p.p.r.a.r.r.r.r.p.r.r.i.p.r.8.8.8.8.8.8.8.6.G H 8.8.8.8.8.8.G G     ",
"                  G X.4.7.7.7.7.8.8.8.8.9.w.r.r.i.r.i.r.r.r.r.r.r.9.9.9.9.8.8.8.7.8.7.4.L G H 8.8.8.8.8.7.G G     ",
"                    A G 6.8.9.9.8.8.8.7.e.p.r.r.r.r.i.i.i.i.r.a.9.8.8.8.8.8.8.8.8.9.5.A G G H 8.8.8.8.7.7.G G     ",
"                      G X.4.4.X.7.8.7.8.w.e.e.e.e.e.e.e.w.e.e.e.9.8.8.8.8.8.8.X.4.X.X.G G G H 4.4.8.9.p.r.G G     ",
"                        G G G A 5.8.8.9.8.7.7.8.8.7.7.8.7.7.7.7.8.8.8.9.8.8.5.G G G G         G H 8.9.k.h.H G     ",
"                        v n n v K 4.4.4.7.7.8.8.8.8.8.8.7.8.8.8.7.7.6.4.4.5.H N m G           G H 8.9.k.h.G G     ",
"                    ; ; - = - ; C G G G 5.8.8.8.9.7.7.9.7.9.9.7.9.9.4.G G G m * *             G H 9.9.k.h.G G     ",
"                    k k %.O.c h v M m N J 4.4.4.4.4.4.4.4.4.4.4.4.4.H n M D ) O.O.            G H 4.5.s.s.7.7.    ",
"                ; ; x ^ U.Y.=.^ , ; - * m G G G F S G G G G G G G F N = k ^ 1.R.x.& -             G H 7.9.k.j.G A ",
"                3 3 *.1.v.x.T B l k E O.D D M M #.u.#.Z C m C Z #.q.%.h l x } c.3.@.o.            G H 4.5.d.s.7.7.",
"            + + O O U.Y.' I j ; x Y c.R.1.T k * 3.R.3.^ l - l Y 2.R.x.Y x = j x =.T.m.o +             G H 7.9.k.l.",
"            e y w w b.n.' / k ; I / 2.c.=./ l = *.c.>./ z ; z / >.c.2./ B ; l / *.n.b.r r             G H 4.5.p.a.",
"        @ 5 K.P.D.C.6 o ~  .k - /  ./ Y (  .z - z V (  .I & B  .( x /  .T ; z  .! # 8 D.s o o             G G A A ",
"        e e F.L.G.Z.7 O ~ | k ; / ( ] ( |  .I , I / | -.T > U  .| ] ] ] Y - k / Q O 9 G.B.e 0             G G G G ",
"    5 5 F.L.A.V.H.L.7 + ~  .k ; x ^ >.z.-.| ( Y ] | >.z...^ ( | :.z.-.^ x ; ; ; < O q L.L.P.K.o o                 ",
"    + 5 S.H.Z.Z.N.M.8 5 W / k ; R ` >.t.-.-.( Y ] ..<.y...Y ` ..:.t.=.] U ; ; ; 3 O q H.H.I.F.0 0                 ",
"    O 5 g A.L.L.6 o     - ; ; ; =.z...( t.z.{ V -.z.y.z.=.V =.z.>.| -.z.{ ; ;     O 9 A.Z.L.L.P.K.@ @             ",
"    @ 5 p s N.N.6 +     ; ; ; ; { <...] -.<.] Y { <.<.<.{ Y [ <.-.] ..<.} ; ;     + 9 s f H.L.I.F.@ @             ",
"        + O o O             : ; x ^ Y Y Y Y Y ^ ^ ^ Y Y Y Y Y ^ Y ^ Y ^ B ; ;         o 8 A.Z.L.S.@ @             ",
"        @ @ @ @             ; ; I / ` ` / / / ` ` ` ` ` ` ` / / / ` / / B ; ;         @ 7 s d B.d @ @             ",
"                            ; ; T  .<.z.:.| <.t.t.y.y.y.t.z.:.| -.z.<.| T ; ;             + @ @ + @ @             ",
"                            ; ; ` ..<.<.-. .<.y.t.t.t.t.t.t.<...-.<.>...T ; ;             @ @ @ @ @ @             ",
"                            ; ; =.z.] Y :.t.z.z.t.t.t.z.t.t.z.z.-.Y { z.' ; ;                                     ",
"                            ; ; ' ,.} V @.<.,.1.;.<.;.,.>.,.,.,.{ V ` <.' ; ;                                     ",
"                                ; ; ; ; ; ; ; ; ; ; ; : ; ; ; ; ; : ; : ;                                         ",
"                                , , , , , , : = ; : = = ; > > > > > > = =                                         ",
"                            X X P  .| [ | | < .     X . < ^ Y ^ ^ ^ 2 . X                                         ",
"                            X . P { [ | | | < .       . < Y U U U I 2 . X                                         ",
"                            X . c ^ ^ ^ ^ / < .         $ $ X X X X $                                             ",
"                            X . c U U U I U < .           X X X X X X                                             ",
"                                $ $ X $ $ $                                                                       ",
"                                X X X X X X                                                                       ",
"                                                                                                                  "
};
