/* XPM */
static char *player_l1708619963[] = {
/* columns rows colors chars-per-pixel */
"52 64 217 2 ",
"   c None",
".  c #211202",
"X  c #2B1C0B",
"o  c #271717",
"O  c #272C3A",
"+  c #282C3D",
"@  c #272D37",
"#  c #532400",
"$  c #5D2F13",
"%  c #462522",
"&  c #64342D",
"*  c #613318",
"=  c #4F423D",
"-  c #694C3A",
";  c #7A5634",
":  c #7D5939",
">  c #7A5739",
",  c #7B572F",
"<  c #271D5F",
"1  c #292C40",
"2  c #322A5E",
"3  c #1D0D75",
"4  c #25156F",
"5  c #220F74",
"6  c #241374",
"7  c #29157A",
"8  c #251378",
"9  c #341F6F",
"0  c #382568",
"q  c #392876",
"w  c #573B55",
"e  c #4E3458",
"r  c #402962",
"t  c #684944",
"y  c #755343",
"u  c #69475D",
"i  c #6A565F",
"p  c #796857",
"a  c #7D664E",
"s  c #634263",
"d  c #78546B",
"f  c #786E68",
"g  c #5F5076",
"h  c #805C36",
"j  c #815C38",
"k  c #82572B",
"l  c #8B5F42",
"z  c #936B44",
"x  c #846852",
"c  c #987859",
"v  c #A67D57",
"b  c #A0754F",
"n  c #946664",
"m  c #917172",
"M  c #A16E73",
"N  c #A67077",
"B  c #A67178",
"V  c #A4886D",
"C  c #B68664",
"Z  c #B99576",
"A  c #CB8F59",
"S  c #C98C56",
"D  c #CD9055",
"F  c #D49354",
"G  c #CD8D4F",
"H  c #C69569",
"J  c #C89C76",
"K  c #C08F63",
"L  c #D9A778",
"P  c #E5AD7B",
"I  c #E9AD76",
"U  c #ECB27B",
"Y  c #E6AA6E",
"T  c #341C86",
"R  c #321A8A",
"E  c #3C2787",
"W  c #28398A",
"Q  c #3D2199",
"!  c #2D3A99",
"~  c #1C2CB2",
"^  c #1629B6",
"/  c #1F2CAC",
"(  c #212EAE",
")  c #2934AF",
"_  c #2531AE",
"`  c #212FB0",
"'  c #2331B1",
"]  c #2A36B1",
"[  c #2C39B5",
"{  c #2E3DBA",
"}  c #303FBB",
"|  c #333BB1",
" . c #4D2F8C",
".. c #43279C",
"X. c #452998",
"o. c #4D3497",
"O. c #583B9B",
"+. c #48358E",
"@. c #4325A2",
"#. c #4D2AA6",
"$. c #5532AA",
"%. c #5A39A9",
"&. c #5C33B3",
"*. c #5F3DB0",
"=. c #653CB4",
"-. c #613FAC",
";. c #1E4998",
":. c #254D97",
">. c #3141BE",
",. c #2F48B7",
"<. c #6B43B8",
"1. c #744DBD",
"2. c #714DB7",
"3. c #7756B9",
"4. c #6A4DAD",
"5. c #6F69AF",
"6. c #796DA7",
"7. c #6F6CB5",
"8. c #5F5799",
"9. c #2E3FC0",
"0. c #2E41C2",
"q. c #3445C2",
"w. c #3649C6",
"e. c #394DCB",
"r. c #364ACA",
"t. c #3B50CE",
"y. c #3E54D2",
"u. c #3C56DB",
"i. c #364DD1",
"p. c #3F59E0",
"a. c #4057D6",
"s. c #4158D7",
"d. c #455DDD",
"f. c #7D55C2",
"g. c #455FE1",
"h. c #4760E1",
"j. c #4964E5",
"k. c #4D6AEC",
"l. c #4B67E9",
"z. c #4F6DF0",
"x. c #516FF2",
"c. c #5271F5",
"v. c #5575FB",
"b. c #5778FD",
"n. c #587AFF",
"m. c #8B738C",
"M. c #8273A3",
"N. c #8A7AA7",
"B. c #937EA3",
"V. c #866FBC",
"C. c #825BC5",
"Z. c #825AC9",
"A. c #8B69C9",
"S. c #9279C6",
"D. c #8F7AC1",
"F. c #9A8885",
"G. c #969089",
"H. c #A5899E",
"J. c #A98B98",
"K. c #AB959A",
"L. c #B3939B",
"P. c #BB999A",
"I. c #AC8D8B",
"U. c #B7A799",
"Y. c #8C81B2",
"T. c #9382AC",
"R. c #AC99B3",
"E. c #A891A9",
"W. c #B1A6A5",
"Q. c #C19A8F",
"!. c #E98799",
"~. c #E98799",
"^. c #ED9995",
"/. c #CBA888",
"(. c #DAB194",
"). c #CEA597",
"_. c #EEB989",
"`. c #E9B484",
"'. c #F6BB85",
"]. c #F6BE8C",
"[. c #FCBE89",
"{. c #EFA794",
"}. c #EABC94",
"|. c #F5B69B",
" X c #EDA88B",
".X c #CBB5AB",
"XX c #F6B7AA",
"oX c #E5BDA5",
"OX c #F599A3",
"+X c #FBC48F",
"@X c #FFCA8E",
"#X c #F7C08E",
"$X c #F6C191",
"%X c #FAC491",
"&X c #FFCC90",
"*X c #FAC99E",
"=X c #F9C79A",
"-X c #FFD190",
";X c #FACDA4",
":X c #FAC8AB",
">X c #FFD2A5",
",X c #FBD2AC",
"<X c #F9C9B0",
"1X c #FBD6B4",
"2X c #FEDAB5",
"3X c #FFDCBA",
"4X c #EDC8A6",
"5X c #FFE1BA",
"6X c #988BC7",
"7X c #A68ED4",
"8X c #A4A5DB",
"9X c #B8A2DE",
"0X c #BDA8E2",
"qX c #FCD5CE",
"wX c #F4E6D9",
"eX c #FBFCFC",
"rX c #E8EBEE",
/* pixels */
"                                                                                                        ",
"                                                                      ] ] ] ] ] ] ] ]                   ",
"                                                                      ] ] ] ] [ [ [ ]                   ",
"                                ] ] ] ] ] ] ] ] ] ] ] ] ] ] ]     ] { e.y.d.s.d.s.s.a.] ]               ",
"                                ) ] ] ] ] ) ] ] ] ] ] ] ] ] ]     ] } y.y.d.d.d.d.g.s.] ]               ",
"                        ] ] ] ] w.t.e.e.a.d.d.s.s.d.y.e.e.t.q.) } e.e.e.y.d.d.h.h.v.z.e.w.] ]           ",
"                        ] ] ] ] w.t.t.t.s.h.d.d.h.d.s.t.t.t.q.) >.t.t.t.y.d.d.d.h.n.z.y.e.] ]           ",
"                ] ] ] ] y.s.l.c.h.s.d.d.d.d.h.d.d.d.l.v.l.d.d.s.a.t.t.e.a.d.l.v.v.b.b.c.z.e.e.] ]       ",
"                ] ] ] ] y.h.c.b.l.d.d.h.d.d.d.d.d.d.k.b.k.d.d.h.s.e.t.t.y.d.j.n.b.n.v.b.c.t.e.] ]       ",
"            ] ] w.e.y.s.c.c.l.h.d.h.d.d.h.d.d.h.d.h.h.h.k.v.k.d.d.d.s.e.a.d.d.h.h.h.l.b.c.d.a.] ]       ",
"            ) ) w.t.s.d.c.b.l.d.d.d.d.d.d.d.h.d.d.h.h.d.l.n.z.d.d.d.s.t.a.d.d.d.d.d.h.b.v.d.s.) ]       ",
"        ] ] w.e.s.d.h.d.c.b.c.c.j.d.h.d.d.d.d.d.d.d.l.c.v.b.z.d.d.h.s.t.t.t.a.d.d.d.g.h.h.d.d.e.e.] ]   ",
"        ) ) e.t.d.h.d.d.c.b.b.b.l.d.d.d.d.h.h.d.d.d.k.b.b.b.z.d.d.h.s.t.t.t.a.d.h.d.d.d.h.d.d.t.e.] ]   ",
"    ] ] w.e.t.t.t.t.d.d.h.j.c.b.c.c.l.h.w.[ d.v.c.c.v.b.x.h.h.d.s.y.y.d.y.[ q.d.d.d.d.d.d.d.d.d.a.] ]   ",
"    ] ] e.t.t.t.t.t.d.d.d.d.c.b.b.b.l.h.q.) s.n.b.b.b.b.z.d.d.d.s.e.y.d.y.) } d.h.d.d.h.h.d.d.d.s.[ ]   ",
"    ] ] e.t.s.s.d.s.d.d.d.h.h.j.j.j.h.d.q.) e.l.j.j.j.l.h.h.d.d.d.d.d.h.y.) } y.a.d.d.d.d.d.h.d.s.] ]   ",
"    ) ) e.t.d.d.d.h.d.d.d.d.h.d.d.d.h.h.q.~ e.g.d.d.d.d.d.d.d.h.d.d.d.d.t.) { t.a.d.d.d.d.d.d.d.d.[ ]   ",
"] ] w.e.s.s.h.d.y.y.d.d.d.h.d.d.d.h.w.{ N.).5.{ t.d.h.d.d.h.d.d.d.h.s.a.t.w.q.} >.g.d.h.h.d.h.d.s.[ ]   ",
"] ] t.t.d.d.d.d.y.t.d.d.d.d.h.d.h.h.0.~ H.@XM.` e.g.d.d.d.h.d.d.h.d.s.t.t.a.w.) } d.d.d.d.d.d.d.s.[ ]   ",
"] ] t.t.y.y.a.y.s.s.d.d.d.h.w.>.>.>.N.P.(.&XM.` w.h.h.d.s.y.s.h.s.a.a.s.a.e.w.) >.h.d.h.d.d.d.y.a.] ]   ",
"] ] e.t.t.t.t.e.d.d.g.g.d.h.{ _ ' ^ L.&X%X&X6.~ r.h.d.d.s.t.y.h.s.e.a.d.s.t.w.) } d.d.d.d.d.d.t.e.] ]   ",
"] [ s.s.s.s.s.s.d.d.w.>.q.0.B.L.L.L.(.$X].%X).L.5.>.y.d.s.t.t.y.a.s.s.h.a.} >.w.e.d.d.d.d.d.d.t.e.] ]   ",
"] ] d.d.d.h.h.h.h.h.{ ~ ' ~ P.@X%X%X$X].].$X+X@XN._ w.h.s.t.t.t.a.h.h.d.t.) } t.y.d.d.d.d.h.d.t.e.] ]   ",
"    q.q.y.y.w.q.q.0.B.L.L.J.oX>X:X;X,X;X;X>X:X>XN._ w.h.s.t.y.s.s.h.s.a.e.) { t.t.a.a.h.s.a.a.t.e.] ]   ",
"    ] ] e.t.] ` ` / ).&X$X+X1X5X5X5X3X3X2X1X1X2XY._ w.d.u.t.u.h.d.h.s.e.w.) { t.t.e.y.d.d.e.t.t.e.] ]   ",
"        { q.6.n H.H.}.].*X>XV a x x x a /.2X1X2X6Xd.d.d.i.,.,.w.w.a.a.t.w.) { t.t.t.t.a.a.t.e.>.>.      ",
"        ] ] C F #X%X].].,X5X- . X X X . V wX1X2X8Xb.x.h.0.^ ' ( } a.e.e.q.) { t.t.t.t.e.t.t.e.) ]       ",
"            S A _.$X;X:X,X2XK.G.= o f G.V a /.5X8Xb.d.q.5.H.E.E.7.>.q.a.w.) ,.t.t.t.t.t.e.t.e.] ]       ",
"            A A _.#X,X1X1X1XwXrXi o W.rXp . V 5X8Xb.a./ 6.-X>X5XR.( } e.w.) { a.t.t.t.t.t.e.e.] ]       ",
"            A A _.#X,X1X1X2XQ.m.y o W.rXf . V 5X6Xi.i.i.M.Y `.5XR.( } e.e.>.>.>.q.t.t.t.a.l.d.[ ]       ",
"            A A _.$X,X1X1X2Xx & & & .XeXf . V 5XY.~ w.g.6.G L 5XR.) } a.e.e.w.) } t.t.t.a.v.z.] ]       ",
"            A A _.'.,X1X1X2Xl $ * * .XeXW.V /.5XY.' r.g.T.G Y >XE.] [ a.t.a.w.) ] q.q.e.a.v.c.] ]       ",
"            A A `.'.,X1X1X2Xk # # # .XeXwX2X2X5XY.` w.g.M.G L &XL.( } t.t.e.e.] ] ] [ t.a.b.z.] )       ",
"            A A '.$X=X*X,X2XZ v v b oXqX3X1X,X2XY.` w.u.N.Y Q.B.5.>.w.e.t.t.w.) ] ] [ q.w.j.l.y.y.      ",
"            A A =X;X].'.,X1X2X2XqX5XXXOX<X1X1X2XY.' q.i.T.&XH.~ } t.t.t.e.t.w.] ]     ] [ e.y.b.c.] ]   ",
"              A P `.].%X=X;XXXXX:X2X<XXX<X1X1X2XY.( { 0.N.@XH.' } y.t.t.e.q.>.]       ] [ q.w.l.l.y.y.  ",
"                S S }.>X[.'.^.~.XX1X1X3X1X1X1X2XY.' ] ~ M.-XH.' >.t.e.t.w.) )             ] ] e.y.b.v.[ ",
"                  S {.|.{.{.^.^.=X;X;X;X;X;X,X>XN.' 4.6.I.U m.] } y.e.q.q.]               ] [ q.w.d.d.[ ",
"                    !.!.!.!.|.%X].'.$X$X%X$X#X@XN.~ Y.-XU D m _ } y.w.) ]                     ] ) ) )   ",
"                    !.!.!.!.P `.P I P P P P P U F.g 6.K.V m 8.>.>.q.>.]                       ] ] ] ]   ",
"                            D D D D S D D D D D F F m ;.;.:.,.a.w.) ]                                   ",
"                            x n m N N N N N M M n n g W W W ! | | ]                                     ",
"                            3 3 ..=.&.&.&.&.#.@.R 3 5 5 6 6 6 5 5                                       ",
"                            +.O.-.=.&.$.=.=.$.@.T 5 9 0 0 r r r r                                       ",
"                        7 5 Y.0XA.Z.%.Q <.Z.*.@.R R e : : : : h h                                       ",
"                        6 5 5.V.3.4.X.Q $.4.o.Q r 2 u v b b z > :                                       ",
"                        6 5 3 3 5 5 5 5 5 3 5 5 w , Z qX;X[.H > :                                       ",
"                        +. . .E T T T  .7 R 9 0 i c L ,X*X[.H ; :                                       ",
"                    6 6 6X9XA.C.=.&.1.C.*.@.u , J qX*XU %X>XJ ; :                                       ",
"                    6 6 V.7XZ.1.<.=.<.1.O. .d z J 2X;X@X%X*XJ > :                                       ",
"                    8 6 #.&.&.&.1.C.%.@.s k H [.%X*X>X3X*X[.H ; :                                       ",
"                    8 6 %.2.=.=.2.1.%. .d z J +X=X;X,X,X|.P v t t                                       ",
"                    4 5 V.9XA.C.$.@.u ; H [.;X1X1X1X=X#XA ; w 5 8                                       ",
"                    E  .S.9XC.3.$.@.u ; H #X;X1X1X,X}.P C y s 5 8                                       ",
"                8 6 S.9XA.C.=.=.#.@.u ; /.2X,X;X%X[.C ; d Z.%.6 8                                       ",
"                6 6 V.6XC.2.%.$...Q s y Z 4X}.}.`.P C - 8.A.O.6 8                                       ",
"                8 6 8 6 6 6 6 6 8 8 8 8 w j : : : j e 6 o.C.%.6 6                                       ",
"                6 6 4 4 7 7 7 7 7 7 4 4 w > > y y > e 8 X.3.O.8 6                                       ",
"                    + O E ..#...X.@.0 @ < 8 4 6 8 6 4 6 6 6 6 6 6                                       ",
"                    + O E X.X.X.Q X.2 @ < 8 6 4 6 7 7 7 7 7 6 4 4                                       ",
"                    + + + + 1 + 1 +         1 @ q @.@...@.@.q O +                                       ",
"                    O + + + + + + +         + @ 0 X.X.X.X.X.q O +                                       ",
"                                                1 1 1 1 1 1 1                                           ",
"                                                + + + + + + +                                           "
};
