/* XPM */
static char *player_face1708619963[] = {
/* columns rows colors chars-per-pixel */
"52 64 211 2 ",
"   c None",
".  c #281805",
"X  c #291817",
"o  c #301E08",
"O  c #32210D",
"+  c #272C39",
"@  c #282C3C",
"#  c #2B202A",
"$  c #1F0F14",
"%  c #532500",
"&  c #5C2E13",
"*  c #5F3015",
"=  c #623419",
"-  c #502D28",
";  c #66362F",
":  c #7B5737",
">  c #7D5939",
",  c #7C5836",
"<  c #2A2C41",
"1  c #302C55",
"2  c #1D0D72",
"3  c #17086F",
"4  c #24136F",
"5  c #321D6C",
"6  c #200F73",
"7  c #241274",
"8  c #2A167B",
"9  c #2A1679",
"0  c #392568",
"q  c #3B3C65",
"w  c #3B3076",
"e  c #493275",
"r  c #5C514E",
"t  c #775B55",
"y  c #6D4C43",
"u  c #65467A",
"i  c #7E5A74",
"p  c #7A7170",
"a  c #815D3C",
"s  c #81603B",
"d  c #9F5E48",
"f  c #86674A",
"g  c #916B48",
"h  c #856952",
"j  c #9E7754",
"k  c #97685F",
"l  c #A1784E",
"z  c #A47A57",
"x  c #A3684D",
"c  c #8B6B7B",
"v  c #936E6F",
"b  c #A67B6B",
"n  c #A77276",
"m  c #B07B70",
"M  c #BB977A",
"N  c #B78A71",
"B  c #CC8F55",
"V  c #CD9154",
"C  c #D29253",
"Z  c #D2914F",
"A  c #CD9D78",
"S  c #E39F7F",
"D  c #DBA87B",
"F  c #CBA47E",
"G  c #E6AE7A",
"H  c #E8AC75",
"J  c #EAB17D",
"K  c #331C83",
"L  c #391F8A",
"P  c #371E8B",
"I  c #361D90",
"U  c #3A2487",
"Y  c #3B2588",
"T  c #272699",
"R  c #3D2194",
"E  c #3C239C",
"W  c #1A2AB1",
"Q  c #1C2DB5",
"!  c #2934AF",
"~  c #2330AF",
"^  c #212FB1",
"/  c #2432B3",
"(  c #2A36B1",
")  c #2D3AB5",
"_  c #2E3DBA",
"`  c #333AB4",
"'  c #2A2EAA",
"]  c #44279B",
"[  c #472999",
"{  c #4B3290",
"}  c #4628A1",
"|  c #4D2CA2",
" . c #4727A2",
".. c #512DA4",
"X. c #5937A7",
"o. c #5C34B2",
"O. c #5F3DB0",
"+. c #572EB2",
"@. c #6136B4",
"#. c #653CB5",
"$. c #3141BE",
"%. c #695286",
"&. c #665693",
"*. c #7B6384",
"=. c #7E6F95",
"-. c #6545AE",
";. c #6846AF",
":. c #6946B5",
">. c #734EB8",
",. c #7859BC",
"<. c #725EAE",
"1. c #776CA9",
"2. c #7B75B4",
"3. c #7666AB",
"4. c #2E41C2",
"5. c #3445C3",
"6. c #3648C6",
"7. c #364BCB",
"8. c #394DCB",
"9. c #3B50CE",
"0. c #354ED2",
"q. c #3E54D2",
"w. c #4057D6",
"e. c #4158D7",
"r. c #445DDD",
"t. c #4E5AC5",
"y. c #7E57C2",
"u. c #7F59C4",
"i. c #5666D3",
"p. c #7571C4",
"a. c #455FE0",
"s. c #4761E2",
"d. c #4964E5",
"f. c #4B67E9",
"g. c #4D6AED",
"h. c #4F6DF0",
"j. c #506EF2",
"k. c #5272F6",
"l. c #5575FA",
"z. c #5778FD",
"x. c #597AFF",
"c. c #87768A",
"v. c #927283",
"b. c #8877A6",
"n. c #8C79AE",
"m. c #E77F97",
"M. c #8159C4",
"N. c #927CC6",
"B. c #8B6EC9",
"V. c #958885",
"C. c #978792",
"Z. c #A6899A",
"A. c #B8979A",
"S. c #A99188",
"D. c #9E89A9",
"F. c #AB94AA",
"G. c #AB99B3",
"H. c #B19CB2",
"J. c #AE94A6",
"K. c #B6A8A0",
"L. c #DE8B82",
"P. c #C79888",
"I. c #C49F99",
"U. c #E9859A",
"Y. c #EE9B97",
"T. c #E19780",
"R. c #CAA385",
"E. c #C8A697",
"W. c #DDB698",
"Q. c #D9AE8E",
"!. c #EAB687",
"~. c #F4BD8C",
"^. c #F8BC87",
"/. c #F4AD9E",
"(. c #F1AB96",
"). c #E5B997",
"_. c #F2B592",
"`. c #F69DA6",
"'. c #DBB8A5",
"]. c #DCBEB4",
"[. c #F8A4A9",
"{. c #F4B9AA",
"}. c #F6B3A5",
"|. c #FCC38C",
" X c #FFCB8E",
".X c #F7C18E",
"XX c #F5C293",
"oX c #FAC593",
"OX c #FCCB9D",
"+X c #FAC798",
"@X c #FFD39E",
"#X c #FBCCA1",
"$X c #F5C9AD",
"%X c #FFD2A3",
"&X c #FCD3AC",
"*X c #FCCAB7",
"=X c #FBD6B4",
"-X c #FDD9B6",
";X c #FFDBBA",
":X c #EEC6A1",
">X c #FFE2BB",
",X c #A890D6",
"<X c #BCA8E2",
"1X c #A893D3",
"2X c #C0AAE4",
"3X c #F2D9CF",
"4X c #F6E5D5",
"5X c #E6E8E9",
"6X c #FEFFFF",
"7X c #F6F9FA",
"8X c #F2EEEB",
/* pixels */
"                                                                                                        ",
"                                                                                                        ",
"                        ( ( ( ( ( ( ( (                                                                 ",
"                        ( ( ( ( ( ) ( (                                                                 ",
"                    ( ! 6.9.w.e.e.r.9.9.$.(           ( ( ( ( ( ( ( ( ( (                               ",
"                    ( ( 8.9.r.a.r.a.w.9.$.)         ( ( ( ( ( ( ( ( ( ( (                               ",
"                ( ( 6.8.g.l.d.r.a.r.r.r.9.9.$.! ( ( $.9.8.8.9.e.e.8.9.8.6.( ( ( (                       ",
"                ( ( 8.8.j.x.d.r.r.r.a.a.9.9.$.( ( ( $.q.9.9.e.a.e.9.9.9.6.( ( ( (                       ",
"            ( ( 6.8.g.k.z.l.k.l.d.s.e.q.$.) $.9.w.e.d.k.g.r.r.r.r.e.d.l.g.w.w.8.6.! (                   ",
"            ( ( 8.9.j.z.z.z.z.z.d.a.q.9.$.! $.9.w.r.g.z.g.r.r.r.a.r.f.z.k.r.e.9.8.! (                   ",
"            ( ( w.r.k.z.d.d.a.d.w.9.$.) $.8.q.r.g.k.g.d.d.r.s.r.a.r.a.d.f.l.j.r.e.8.6.( (               ",
"            ( ! w.r.k.z.d.r.r.r.q.9.$.! 6.9.e.r.g.z.g.r.r.r.r.r.r.r.r.r.f.l.k.r.e.9.8.( (               ",
"        ( ( 6.8.r.r.d.d.a.a.w.9.$.) $.6.q.r.r.r.g.z.l.k.g.r.r.r.a.r.d.l.l.l.j.9.9.9.8.8.6.! (           ",
"        ( ( 8.9.r.r.r.a.a.r.w.9.$.! 6.9.e.r.r.r.h.z.z.z.g.r.r.r.r.r.f.z.z.z.g.9.9.9.9.9.8.! (           ",
"        ( ( w.r.r.r.r.r.r.a.9.9.) ! 8.r.r.r.9.$.w.d.h.z.l.k.k.k.g.r.a.d.d.d.d.r.r.r.e.9.8.( (           ",
"        ( ( w.r.r.r.a.r.r.a.w.9.$.! 9.r.r.d.$.! 6.r.g.z.z.z.z.x.j.r.r.a.r.r.r.r.a.r.r.9.8.! !           ",
"        ( ( r.r.r.r.r.r.e.w.$.$.$.6.w.r.r.r.6.! ( $.9.d.d.d.d.d.d.r.r.q.w.a.r.r.r.r.r.r.q.6.6.( (       ",
"        ( ( e.a.r.d.r.r.w.9.) ! 6.9.r.a.r.s.$.( ~ ' 6.s.a.a.r.r.r.r.w.8.q.a.a.r.a.r.r.r.a.9.7.! (       ",
"        ( ( e.a.r.r.r.a.w.9.` ! 6.9.e.r.a.a.6.! 1.E.1.4.9.a.a.r.r.r.r.r.e.q.q.q.q.s.a.r.r.9.8.) (       ",
"        ( ( e.a.a.r.r.r.9.8.$.! 6.9.e.r.a.s.5.Q D. Xb.Q 5.a.a.r.r.r.r.a.e.9.9.8.9.r.r.a.r.9.8.( (       ",
"        ( ( e.a.r.a.r.r.w.9._ ! 6.9.e.a.8.$.2.A.W.OX'.A.2.$.8.a.a.r.r.a.r.r.q.r.r.q.q.q.q.9.8.( (       ",
"        ( ( e.a.r.a.r.a.9.9._ ! 6.9.e.a.$.W Z. X+X#XOX#XD.W 4.s.a.r.r.r.s.r.a.r.r.8.8.9.9.9.8.) (       ",
"        ( ( e.a.r.r.a.r.w.9._ ! 8.r.8.5.1.A.Q.OXOX#XOX@X'.J.2.$.8.s.a.r.r.r.r.r.r.r.e.r.q.9.8.( ( ( (   ",
"        ( ! r.a.r.a.r.r.9.9._ ! 9.d.$./ Z.oX+X#XOX#X#XOXOX@XZ.W $.r.d.a.s.r.r.r.r.r.r.r.r.9.7.) ( ( (   ",
"        ( ( 9.w.r.r.r.r.q.9._ ~ 9.a.8.4.F.@XOXOX#X#X&X&X&X&X].G.D.4.7.4.7.a.r.r.a.a.a.r.r.e.q.6.6.( ( ( ",
"        ( ( 8.9.r.r.a.a.q.q._ ^ q.r.q.0.G.@X@X%X%X%X&X;X-X=X=X>XG.W / / 5.d.s.d.s.s.a.r.a.a.r.0.7.( ( ( ",
"        ( ( 8.9.r.r.w.w.5._ b.Z.i.a.q.0.G.&XN t f t t h M >X=X=X].G.=.< 1 q q q w 7.7.0.q.r.i.F.D.) (   ",
"        ( ( 8.9.r.a.9.9.) ~ I. XN.a.q.0.K.&X> $ O O o . h >X=X=X=X>XM . O O O . # ^ / 0.q.a.i.oX!.` (   ",
"            $.$.9.w.9.9.) ! A. X2.0.7._ F.%XK.N r O r V.K.;X=X=X=X=X'.V.p X - C.V.D.D.4.5.q.i.~.).` !   ",
"            ! ( 8.9.9.9.) ~ E. X2.0._ ^ F.@X=X5Xp $ V.5X3X=X=X=X=X=X3X5XK.$ r 5X3X@X'.Q / 9.t..X).` (   ",
"            ( ( 8.9.9.9.6.$.1.b.t.0.&.*.E.OX3X5XV.# t n K.=X=X=X=X=X'.N p - t 5X3XOX).*.=.7.t.b.b.      ",
"            ( ( 6.9.9.9.9.q._ ^ 7.0.V.C !.+X4X7XS.; : - N =X=X=X=X=XR.- ; ; p 7X8XOXXXC N 8.7./ /       ",
"            ( ( r.d.q.9.6.$.) ( 7.0.c B !.#X4X6XS.& = & b ;X&X+X&X=XR.& * * h 6X8XOX.XV N 8.8.( (       ",
"            ( ( j.x.e.9.) ! ( ( 7.0.N Z !.#X4X6XN % % % l ;X#X^.:X>XA % % % > 6X8XOXXXC N 9.8.( (       ",
"            ( ( g.x.e.9._ ( ( ( 4.4.<.c.E.oX*X4XP.g x j A =X$X:X#X;XW.l z x N 3X3XoX).c.c.$.$.(         ",
"            ! ! h.x.e.9.) (     ~ / 6.0.F. X/.`.[.[.*X>X-X=X=X=X=X=X=X>X*X[.[.`.[.~.'.9.7./ (           ",
"            9.q.d.f.7.5.) (       ( $.4.C.H (./.}.}.}.}.$X=X=X=X=X=X$X}.[.}.}./.(.G P.$.5.( (           ",
"        ! ( k.x.q.9.) !             ) / c B H oX+X#X[.m.}.=X=X=X=X-X{.U.`.#XOXoX!.C m ! !               ",
"        9.9.d.g.8.6.) (             T T %.c M G ~.+X_.Y./.{.{.{.{.{.}.Y.(.oX.XG A c c.( (               ",
"    ( ( k.x.q.9.( (             7 7 6 4 T Q c Z H ^..XoX/.U.U.U.U.U.Y.oX.X^.J V b ^ ^                   ",
"    ( ) r.s.6.6.) (             K L L L E T %.c A H G G T.L.L.L.L.L.T.J H H A c i T T                   ",
"        ! ! ( !             2 4 | #.@.@.L 7 T Q *.C B B B V B B V V V V B B n ^ ' 6 7 7 7               ",
"        ( ( ( (             %.%...[ X.@.L 7 T ` %.k n n n n m P.S.n n n n k c ` ' L L L K               ",
"                        , : W.>X%.3 [ @.L 7 [ #.R 3 E +.o.+.u.<XN.+.+.o. .3 K @.#.@.o.@.+.7 6           ",
"                        l l ).=Xv.u { [ L 7 L ..R 8 [ :.#.#.y.N.M.#.#.:.X.K K | ..@.o...[ u u           ",
"                    > > Q.oX~.oX^.^.i 3 7 7 7 7 P } -.M.M.u.-.E #.M.u.u.:. .R 7 8 @...4 e ^.!.> >       ",
"                    > > D +X~.~._.^.c 5 5 7 7 7 K R ..;.:.;.X.R | ;.;.;.X.R I 7 8 ..{ 0 e ^.^.z j       ",
"                    > > ).;X+X^.~.OXz a     7 7 7 6 7 7 6 7 7 6 4 7 7 4 6 7 7 7 9 7 5 a s |.oX-X$Xf >   ",
"                    > , R.W.D D D D z ,     7 7 w { U K K U U U Y Y U K U E Y 7 7 7 0 > g XXXX&X:Xf ,   ",
"                        > : : : > ,         7 3 <.<Xu.E O.M.y.M.u.u.:.E :.<XD.4 7     > g #XOXXX!.> >   ",
"                        > > > > > >         Y { <.,X,.| -.y.y.y.u.u.:.| -.1XB.Y {     > g #X#XXX!.a >   ",
"                                        7 2 3.2X,.E O.u.y.y.y.y.y.u.u.u.:.E -.<X1X2 0 > g =X=X#XXXa >   ",
"                                        K K 3.,X,.} :.y.y.y.y.y.y.y.y.u.>.| ;.,Xn.K 8 y t :X).).Q.a >   ",
"                                    7 7 X.M.M.u.u.u.y.y.y.y.y.y.y.y.y.y.y.y.y.y.y.y.>.7 5 > > : >       ",
"                                    7 4 -.M.,.M.u.y.y.y.y.y.y.y.y.y.y.y.y.y.y.y.y.M.:.7 0 > > > >       ",
"                                    7 4 X.M.u.M.u.,.y.y.y.y.y.y.y.y.y.y.y.y.y.y.y.M.:.9 7               ",
"                                    7 7 X.>.>.>.>.>.>.>.>.>.>.>.>.>.>.>.>.>.>.>.>.>.;.7 7               ",
"                                        7 7 7 9 9 7 7 9 9 7 7 7 7 7 8 7 7 8 7 7 7 9 7                   ",
"                                        7 7 4 4 9 8 9 9 8 8 8 7 8 8 7 7 9 9 9 4 7 7 7                   ",
"                                            @ @ e o.o.o.o.O.O.    } } } E } Y @ @                       ",
"                                            + + e o.+.o.o.o.o.    E [ [ [ E Y + @                       ",
"                                            @ + w  .} } } } ]     @ @ < < < @                           ",
"                                            @ + w ] ] ] [ [ [     @ @ @ @ @ @                           ",
"                                                @ < < @ < < <                                           "
};
