/* XPM */
static char *player_r1708619963[] = {
/* columns rows colors chars-per-pixel */
"52 64 213 2 ",
"   c None",
".  c #211202",
"X  c #2B1C0B",
"o  c #271717",
"O  c #272C3A",
"+  c #282C3C",
"@  c #532500",
"#  c #5E2F14",
"$  c #49322E",
"%  c #65352D",
"&  c #623419",
"*  c #795636",
"=  c #7D5934",
"-  c #7D5939",
";  c #775435",
":  c #704E3E",
">  c #5D4832",
",  c #292C41",
"<  c #312A5C",
"1  c #1E0D74",
"2  c #25166F",
"3  c #210F73",
"4  c #241375",
"5  c #2A167B",
"6  c #27147D",
"7  c #321E6C",
"8  c #3E2A64",
"9  c #362868",
"0  c #3A2778",
"q  c #442D5E",
"w  c #533754",
"e  c #4C325A",
"r  c #442B62",
"t  c #4C3161",
"y  c #684842",
"u  c #67525A",
"i  c #746A60",
"p  c #7B7076",
"a  c #665A69",
"s  c #805C36",
"d  c #805427",
"f  c #895C48",
"g  c #956D49",
"h  c #846C54",
"j  c #886E56",
"k  c #9E7658",
"l  c #967454",
"z  c #A1774D",
"x  c #A37858",
"c  c #976863",
"v  c #937270",
"b  c #A36F71",
"n  c #A77276",
"m  c #B0845C",
"M  c #BD8A61",
"N  c #A68B74",
"B  c #AF8C6B",
"V  c #CC8E54",
"C  c #CB8F59",
"Z  c #C28A5E",
"A  c #CD9055",
"S  c #D49354",
"D  c #CD8D4F",
"F  c #D19D6F",
"G  c #D29F71",
"H  c #CB976B",
"J  c #DAA678",
"K  c #D6A375",
"L  c #E7A96D",
"P  c #E6AD7B",
"I  c #E7AB76",
"U  c #ECB27B",
"Y  c #341C8A",
"T  c #331C83",
"R  c #2D1786",
"E  c #3C2688",
"W  c #283A8B",
"Q  c #3C2293",
"!  c #2E3B9B",
"~  c #1C2CB2",
"^  c #172AB6",
"/  c #1F2CAC",
"(  c #212EAE",
")  c #2934AF",
"_  c #2732AC",
"`  c #212FB1",
"'  c #2331B1",
"]  c #2A36B1",
"[  c #2C39B5",
"{  c #2E3DBB",
"}  c #303FBB",
"|  c #333BB2",
" . c #43269C",
".. c #442999",
"X. c #4E3595",
"o. c #47348D",
"O. c #4526A1",
"+. c #4A29A3",
"@. c #532EA8",
"#. c #5A35AB",
"$. c #5836AA",
"%. c #5C33B2",
"&. c #5F3CB0",
"*. c #603CAD",
"=. c #633BB3",
"-. c #1E4998",
";. c #254D97",
":. c #3141BD",
">. c #2F4FB0",
",. c #74638A",
"<. c #6745AD",
"1. c #6942B6",
"2. c #6B43B8",
"3. c #6644B2",
"4. c #734DBA",
"5. c #7552B9",
"6. c #735FAD",
"7. c #796CA5",
"8. c #6C68B2",
"9. c #58519E",
"0. c #2E40C1",
"q. c #3445C2",
"w. c #3649C6",
"e. c #394DCB",
"r. c #364AC9",
"t. c #3B50CE",
"y. c #3E54D2",
"u. c #3D57DE",
"i. c #354ED2",
"p. c #4057D6",
"a. c #445DDD",
"s. c #4158D7",
"d. c #7D56C2",
"f. c #7F58C3",
"g. c #455FE2",
"h. c #4660E1",
"j. c #4964E5",
"k. c #4B66E8",
"l. c #4E6BED",
"z. c #516FF2",
"x. c #5372F6",
"c. c #5576FB",
"v. c #5778FD",
"b. c #587AFF",
"n. c #4F6DF0",
"m. c #9A7B8C",
"M. c #85749F",
"N. c #907A96",
"B. c #8575A1",
"V. c #8C7BA5",
"C. c #877AAC",
"Z. c #887EB2",
"A. c #877DB1",
"S. c #8A74B0",
"D. c #8159C4",
"F. c #8865C7",
"G. c #916FCC",
"H. c #927DC3",
"J. c #8E77C2",
"K. c #968A85",
"L. c #9E8299",
"P. c #AA8D9D",
"I. c #A1869C",
"U. c #AD9696",
"Y. c #B3949B",
"T. c #B1938D",
"R. c #9784A7",
"E. c #A998B3",
"W. c #A799A5",
"Q. c #B7A9A1",
"!. c #C39A8D",
"~. c #E98799",
"^. c #E98799",
"/. c #ED9895",
"(. c #D2AD94",
"). c #DBB194",
"_. c #CEA790",
"`. c #EAB88B",
"'. c #F6BB85",
"]. c #F3BC8A",
"[. c #FBBF89",
"{. c #F5BA86",
"}. c #EFA795",
"|. c #F5B79B",
" X c #ECB08E",
".X c #CDB8AF",
"XX c #F6B8AB",
"oX c #E5BEA4",
"OX c #F599A3",
"+X c #FCC38E",
"@X c #FDC68A",
"#X c #F6C191",
"$X c #FAC492",
"%X c #F9C99D",
"&X c #FBC895",
"*X c #FACDA5",
"=X c #F9C2AF",
"-X c #FFD2A5",
";X c #FAD2AD",
":X c #FBD6B4",
">X c #FEDAB5",
",X c #FFDCBA",
"<X c #FACCB1",
"1X c #FFE1B9",
"2X c #958BC8",
"3X c #AA90D7",
"4X c #A1A3DD",
"5X c #B7A2DE",
"6X c #BDA7E2",
"7X c #FCD6CF",
"8X c #F4E6D8",
"9X c #FBFBFC",
"0X c #E8EAED",
/* pixels */
"                                                                                                        ",
"                                                                                                        ",
"                    ] ] ] ] ] ] ] ]                                                                     ",
"                    ] ] [ ] ] [ ] ]                                                                     ",
"                ] ] y.a.s.a.s.a.y.e.} ]     ] ] ] ] ] ] ] ] ] ] ] ] ] ] ]                               ",
"                ] ) p.a.a.a.a.a.y.t.} ]     ] ] ] ] ] [ ] ] ] [ ] ] ] ] ]                               ",
"            ] ] w.e.n.c.j.a.a.a.y.t.e.e.:.) q.e.e.e.y.s.s.s.a.s.p.e.e.e.w.] ] ] ]                       ",
"            ] ] e.t.z.b.j.a.h.a.y.t.t.t.:.) q.e.t.t.p.a.h.g.a.a.s.e.e.t.w.] ] ] ]                       ",
"        ] ] w.e.l.x.c.v.x.x.j.a.p.e.e.t.p.p.a.a.k.x.l.a.a.h.a.h.a.a.a.a.h.z.k.s.p.) ) ] ]               ",
"        ] ) e.t.x.v.c.c.v.b.k.a.p.e.t.e.a.a.a.a.l.b.l.a.a.a.a.a.g.a.a.a.k.v.x.a.p._ ] ] ]               ",
"        ] ] p.a.x.c.k.j.j.j.a.a.y.e.s.a.a.a.l.x.l.j.h.a.a.h.a.a.a.h.a.a.h.j.k.x.n.p.p.e.w.] ]           ",
"        ) ] s.a.x.v.j.a.a.a.a.j.p.e.a.a.a.a.l.b.l.a.h.a.a.a.h.a.a.a.a.a.a.a.j.b.x.a.a.e.e.] ]           ",
"    ] [ w.w.a.a.j.j.h.a.a.a.p.y.t.e.a.a.a.a.n.v.x.x.l.a.g.a.a.a.a.h.a.a.k.x.c.c.x.a.a.a.p.w.w.] ]       ",
"    ] ] e.e.a.a.a.a.a.h.a.a.p.e.t.t.s.a.a.a.n.v.c.v.l.a.a.a.a.h.a.a.a.a.k.b.c.c.x.a.a.a.a.e.e.) ]       ",
"    ] ] p.a.a.a.a.a.a.a.a.a.q.[ t.a.p.p.s.a.h.j.n.c.x.x.x.x.a.{ e.a.j.x.x.c.x.j.j.a.a.p.p.p.e.e.w.] ]   ",
"    ] ] a.a.h.a.h.a.a.a.h.a.:.) t.h.t.t.s.a.a.a.n.b.v.c.c.v.a._ q.a.k.b.c.b.x.a.a.a.a.e.e.e.e.e.e.] ]   ",
"    ] ] a.a.a.a.h.a.a.a.p.t.{ ) t.h.s.a.a.a.a.h.j.j.j.k.j.k.y._ q.a.g.k.j.j.j.g.a.a.a.s.s.s.s.e.e.] ]   ",
"    ] ] s.a.a.h.a.a.a.h.p.t.:.] t.a.a.a.h.a.a.a.a.a.a.a.a.h.i.' q.j.a.a.a.a.a.a.a.a.a.a.g.a.a.p.e.[ ]   ",
"    ] ] a.a.a.a.h.a.a.h.:.} :.w.t.p.s.h.a.h.a.h.a.h.a.a.t.{ 8._.V.} e.a.a.a.a.a.a.g.s.p.p.a.a.s.p.w.w.] ",
"    ] [ s.h.a.h.a.a.a.a.:.) w.t.t.t.s.h.a.a.a.a.a.a.h.a.w._ 7.@XP.~ } j.a.g.g.a.a.a.p.p.p.a.a.a.a.p.e.] ",
"    ) [ t.p.a.a.h.a.a.h.:.) q.t.p.s.p.p.s.h.s.p.a.a.a.a.t.' 7.@X XY.V.q.:.:.e.g.a.a.a.s.s.p.p.p.p.e.e.[ ",
"    ] ) e.t.a.a.a.a.a.h.:.) w.t.s.a.p.t.s.h.p.e.s.g.a.j.r.~ 7.&X#X$XY.~ ` ` { g.g.h.h.a.s.p.e.e.e.e.e.] ",
"    ] [ e.e.a.a.h.a.h.a.w.q.:.:.p.h.s.s.p.p.t.t.p.a.t.0.8.U._.#X#X#X).Y.Y.Y.V.q.} q.p.s.a.s.s.s.a.a.p.] ",
"    ] ] e.t.a.a.a.a.a.h.p.t.{ ) p.a.h.s.p.e.t.t.s.a.e.' B.@X#X#X$X#X].$X$X&X!.` ' ( [ a.g.g.g.g.a.a.a.] ",
"    ] ] e.t.y.p.a.a.p.p.t.t.{ ) w.p.s.a.u.s.y.t.y.h.w._ C.-X*X;X*X*X*X;X*X-X#XR.P.P.R.q.q.q.r.p.p.q.q.  ",
"    ] ] e.t.t.t.a.a.y.e.t.t.} ) :.p.s.h.h.h.s.t.s.h.w.( R.>X:X:X,X,X1X,X,X7X>X@X$X$X(.` ` ` ' t.e.] ]   ",
"        :.:.e.t.y.p.t.t.t.t.{ ) :.t.p.p.e.q.:.:.t.g.g.u.2X>X:X1X(.h j j h h N *X*X].`.I.I.v ,.:.}       ",
"        ) ] e.t.t.t.t.t.t.t.} ) w.t.t.t.{ ` _ _ r.h.n.v.4X>X>X1XN . X X X . > >X:X#X#X$X[.S M ] ]       ",
"        ] ] e.e.t.e.t.t.t.t.} ) w.p.:.:.8.E.R.I.8.0.h.v.4X>X(.i v K.i X > K.U.:X:X*X*X#X].C Z           ",
"        ] ] e.e.t.t.t.t.t.t.} ) :.t.} ( E.1X-X&XB./ y.b.4X1XN . i 0XW.o u 0X0X:X:X:X;X].{.C C           ",
"        ] ] a.j.y.t.t.t.q.:.:.:.t.t.:.( E.1X`.L B.r.i.i.2X1XN . i 0XQ.O y K.T.:X:X:X:X#X{.C C           ",
"        ] [ x.v.p.t.t.t.{ ) w.y.p.e.} _ E.1XP V B.h.e./ R.1XN . i 9X.X% % % f :X:X:X;X#X`.C C           ",
"        ] ] z.v.y.t.q.q.[ ) w.t.e.y.} ` W.-XJ V 7.g.r.` R.1X).j Q.9X.X# # # f 1X:X:X;X].{.C C           ",
"        ) ) z.v.s.t.[ ] ] ] w.y.e.e.} ` P.@XJ V R.g.r.` 7.>X,X,X8X9X.X@ @ @ = >X:X>X;X{.{.C C           ",
"        y.y.j.k.r.q.[ ] ] ) w.e.y.e.w.0.8.L.H L 7.s.r.` R.7X:X:X,X7XoXz z x M >X;X%X%X#X`.C C           ",
"    ] ] x.b.y.e.[ ]     ] ] w.y.e.y.t.t.0.~ L.@XR.i.0.^ R.1X:X:X=XOXXX7X1X1X>X:X;X{.].%X#XC C           ",
"    y.y.j.k.r.q.[ ]       ] :.q.e.e.e.y.:.` L.@XR.0.:.' Z.>X:X:X<XXX=X:X:XXXXX%X%X$X].`.P C C           ",
"] [ c.v.y.e.[ ]             ] ) w.y.e.t.:.' L.@X7.~ ) ' Z.>X>X:X:X>X>X>XXX~./.{.@X%X#XC C               ",
"] [ s.a.w.q.[ ]               ] } q.e.y.:.' m.L T.7.9.~ A.-X*X*X<X*X*X*X%X/./. X}.XX XC C               ",
"    ) ) ) ]                     ] ) q.p.0.^ v D L @XR.^ B.$X#X#X#X#X].{.[.&X X~.~.~.~.                  ",
"    ] ] ] ]                       ] :.w.:.{ ,.v K.T.N.9.m.U P P P P P I I P  X^.^.^.^.                  ",
"                                    ] ) w.y.>.-.-.! p S S S C C A V A A A A V                           ",
"                                      ] | | ! W W W a c c b b n n n n n b c c                           ",
"                                        4 1 4 4 3 3 1 3 T O.+.%.%.%.%.%.O.1 1                           ",
"                                        8 8 r 8 r 8 7 3 Y O.#.=.&.%.#.2.*.X.o.                          ",
"                                        * = = * s s e 3 Y O.&.D.d.Q $.f.G.6XH.3 4                       ",
"                                        g z k k z z u 9 0 Q X.3.+.Q +.<.6.H.6.4 4                       ",
"                                    - ; H [.*X>X*X[.Z s w 3 4 3 1 3 4 1 4 1 1 4 4                       ",
"                                    g g K [.*X;X`.J x y t 6 T E Y T Y E E o.E 6 4                       ",
"                                * ; H @X&X*X[.[.m = e 3 Y O.&.D.4.=.=.D.G.6XH.3 4                       ",
"                                g g J #X&X%X`.I x y t R Q +.&.D.4.=.2.4.D.3XS.3 4                       ",
"                            - * F '.<X>X%X[.x s e 3 Y  .@.%.2.f.D.D.4.%.%.%...4 4                       ",
"                            - * F '.%X:X`.I k y r R Q @.$.=.2.d.d.D.4.=.=.=.#.E E                       ",
"                            - * F '.&X-Xm = t 1 Y O.*.f.f.D.2.#.=.D.D.D.D.D.G.5X2X3 4                   ",
"                            - * F @X`.#Xk y r R Q @.3.f.f.f.4.=.=.D.4.D.D.5.G.3XJ.4 4                   ",
"                            - * _.;Xm = r 6 Y O.=.D.d.d.f.d.d.f.4.%.=.D.D.D.5.D.2.4 4                   ",
"                            - * K %Xl : 8 3 E Q &.5.4.4.4.5.4.5.=.%.*.4.4.4.4.4.<.4 4                   ",
"                                - s r 6 4 4 4 4 4 4 4 5 4 4 4 4 4 4 5 4 4 4 4 4 5                       ",
"                                - s q 4 4 5 5 5 4 5 4 2 2 4 4 2 5 5 5 5 5 5 5 2 2                       ",
"                                    O O 0 O.O.O. .+.9 + +     O r =.#.%.*.=.X.O +                       ",
"                                    + O 0  .........9 O +     + 8 %.%.=.%.%.X., ,                       ",
"                                        , , O , , , ,             + < +. .O.O. .E + +                   ",
"                                        O O + + + +               O <  ... . . .E + +                   ",
"                                                                      , + , , , ,                       "
};
