/* XPM */
static char *wall21708619963[] = {
/* columns rows colors chars-per-pixel */
"64 64 210 2 ",
"   c #3327A2",
".  c #3329A6",
"X  c #332DAB",
"o  c #3430AE",
"O  c #362FB1",
"+  c #3634B3",
"@  c #3836B5",
"#  c #3639B7",
"$  c #3A3AB6",
"%  c #3735B8",
"&  c #3936B9",
"*  c #373BBB",
"=  c #393BBC",
"-  c #3542BE",
";  c #3A41BD",
":  c #4545BC",
">  c #4952BF",
",  c #3F36C6",
"<  c #3B3EC1",
"1  c #3F3EC8",
"2  c #3644C3",
"3  c #3C42C4",
"4  c #334BC5",
"5  c #3C4AC6",
"6  c #3E46CA",
"7  c #344EC9",
"8  c #3F48CC",
"9  c #3F51C5",
"0  c #3353CC",
"q  c #3C52CE",
"w  c #3C59CF",
"e  c #2F5DD1",
"r  c #3656D1",
"t  c #3E54D1",
"y  c #325BD3",
"u  c #3F5BD4",
"i  c #3161D7",
"p  c #3C64D5",
"a  c #3C69D6",
"s  c #3E66D9",
"d  c #3E6BDB",
"f  c #2C74DE",
"g  c #3E72DE",
"h  c #3C7FDE",
"j  c #2A7CE1",
"k  c #3F75E1",
"l  c #3F7CE4",
"z  c #4246C4",
"x  c #444AC4",
"c  c #4345CA",
"v  c #434CCC",
"b  c #4A4FC9",
"n  c #4455C6",
"m  c #4452CE",
"M  c #4A54CD",
"N  c #4C5BCE",
"B  c #525CCE",
"V  c #4254D0",
"C  c #4A56D0",
"Z  c #445BD3",
"A  c #4A5CD2",
"S  c #525CD2",
"D  c #4265CF",
"F  c #5662CF",
"G  c #5864CB",
"H  c #5B78CF",
"J  c #4667D7",
"K  c #4C63D5",
"L  c #4E6BD4",
"P  c #4266D9",
"I  c #4D6AD8",
"U  c #5363D4",
"Y  c #5963D2",
"T  c #5369D7",
"R  c #5B6AD7",
"E  c #556CD8",
"W  c #5B6FD9",
"Q  c #4472DC",
"!  c #4C76D9",
"~  c #5371D6",
"^  c #5372DB",
"/  c #5B73DA",
"(  c #5B7BDD",
")  c #6163CC",
"_  c #646DD6",
"`  c #6271D1",
"'  c #6977D7",
"]  c #6276DB",
"[  c #637BDC",
"{  c #707ADA",
"}  c #4376E0",
"|  c #437CE2",
" . c #4C7CE2",
".. c #517CE0",
"X. c #3F81E6",
"o. c #3490E7",
"O. c #4D80DC",
"+. c #5283DF",
"@. c #5C80DE",
"#. c #6482DE",
"$. c #6C85DD",
"%. c #6989DA",
"&. c #7990DF",
"*. c #4785E6",
"=. c #4C8DEA",
"-. c #5384E2",
";. c #5987E2",
":. c #538BE6",
">. c #5A8BE3",
",. c #538DE8",
"<. c #4793E5",
"1. c #4795EB",
"2. c #4C98EC",
"3. c #5693E5",
"4. c #5B91E4",
"5. c #5E99E5",
"6. c #5494EA",
"7. c #5B96EB",
"8. c #549CEE",
"9. c #489BF1",
"0. c #628AE3",
"q. c #698CE3",
"w. c #7889E0",
"e. c #6394E6",
"r. c #6B94E5",
"t. c #6C9CE6",
"y. c #6195E9",
"u. c #649CEC",
"i. c #6D9BE9",
"p. c #7195E6",
"a. c #7B93E1",
"s. c #799CE5",
"d. c #759DE9",
"f. c #4BA8EE",
"g. c #59A5ED",
"h. c #58A7F2",
"j. c #5DA5F2",
"k. c #53B2F5",
"l. c #63A2EE",
"z. c #6CA5EB",
"x. c #6CA9EF",
"c. c #74A4EB",
"v. c #7AA3EA",
"b. c #74AAEE",
"n. c #7CAEEE",
"m. c #79B2ED",
"M. c #65ABF2",
"N. c #6BABF1",
"B. c #74AFF1",
"V. c #61B0F6",
"C. c #6BB4F5",
"Z. c #6DBBF5",
"A. c #77B3F2",
"S. c #7CB4F2",
"D. c #73B9F6",
"F. c #7BBBF5",
"G. c #6EC2F3",
"H. c #74C1F3",
"J. c #7FC4F3",
"K. c #7CC2F9",
"L. c #8A90DD",
"P. c #8795E1",
"I. c #8CACE6",
"U. c #83ABED",
"Y. c #8BADEB",
"T. c #99A7E6",
"R. c #88B5ED",
"E. c #93B5EE",
"W. c #9BB3EC",
"Q. c #93BBEE",
"!. c #99B8EE",
"~. c #85B4F1",
"^. c #8FB6F0",
"/. c #83BAF3",
"(. c #8CBBF2",
"). c #94BCF2",
"_. c #A5ABE7",
"`. c #A4B9EC",
"'. c #8CC2F3",
"]. c #89C8F7",
"[. c #82C2F8",
"{. c #87C9FA",
"}. c #93C3F5",
"|. c #9AC3F2",
" X c #94CBF3",
".X c #9BCAF4",
"XX c #92CCF9",
"oX c #9CCEF8",
"OX c #96D1F7",
"+X c #9BD1FA",
"@X c #A6C6F2",
"#X c #A6CDF6",
"$X c #A9CDF4",
"%X c #B3CAF2",
"&X c #A3D0F7",
"*X c #ADD3F7",
"=X c #A6D5F9",
"-X c #ABD6F9",
";X c #AAD9FA",
":X c #B1D3F7",
">X c #BCD6F5",
",X c #B2D5F8",
"<X c #B4DCFA",
"1X c #BDE1F9",
"2X c #C6D7F6",
"3X c #C4E2F9",
"4X c #CCE7F9",
"5X c #D9E3F7",
"6X c #E4F2FD",
"7X c #FEFEFE",
/* pixels */
"8 8 8 8 8 8 8 8 8 8 8 8 8 6 c 8 8 8 8 8 8 8 8 8 8 8 6 8 8 8 8 8 8 8 8 8 8 8 8 8 8 8 8 8 8 8 8 8 8 8 8 8 8 8 8 8 8 6 8 8 8 8 8 8 ",
"8 8 8 8 8 c 8 8 8 8 8 8 8 8 8 8 8 8 8 8 8 8 8 8 8 8 8 8 8 9 8 8 8 8 8 8 8 8 8 8 8 8 8 1 8 8 1 8 8 8 8 8 8 8 8 8 8 8 8 8 8 8 8 8 ",
"8 8 8 c 8 8 8 8 8 8 8 8 8 8 8 8 8 q q 8 8 6 6 6 c 6 8 Z %.3.H L 8 8 8 8 8 6 6 8 8 8 8 8 8 6 8 8 8 8 8 8 8 8 6 8 8 8 8 8 8 8 1 8 ",
"8 8 8 8 8 6 8 8 8 8 8 8 8 8 r y y y y 0 6 6 8 q V K 0.).3X>X XI.>.u q 8 8 8 8 8 8 8 8 8 t q q r r 8 r 8 8 8 8 6 8 8 8 8 8 8 8 8 ",
"8 8 8 6 8 8 6 8 8 8 8 8 1 8 r 0 0 4 4 4 2 3 5 ~ e.n.'.1X4X4X$XR.c.-.! y q 8 8 8 8 8 8 r y i y e y r e e e r r 6 8 8 8 8 8 8 8 8 ",
"8 8 8 8 8 8 8 8 8 8 6 3 6 1 2 < * * * 2 5 ` 3.Q.oX XJ.H..Xg.<.f.3.@.( ! e y r q 8 8 8 r y y r r 7 0 0 0 0 e y 0 8 8 8 8 8 8 8 8 ",
"8 8 8 8 8 8 8 8 8 8 3 3 < 2 < < - ; n D &.|. XOX1XOXG.k.f.<.o.f p K K u y e y r y 8 8 8 t q 8 3 < < < < < < 4 2 1 6 8 8 8 8 8 8 ",
"8 8 8 8 c 8 8 8 8 6 6 6 6 1 6 2 9 %.+.z.R.'.J.Z.]. XJ.m.t.O.e 0 8 z 3 < < 4 7 0 7 r 6 8 8 8 8 6 < < < < < < < < < 1 1 8 8 8 8 8 ",
"8 8 8 6 8 8 8 8 8 8 8 8 8 8 q y z.z.|.l.z.3.j j <.>.%.[ L 9 2 < < * # + O + # * 2 3 6 6 8 8 6 6 6 6 6 6 6 6 8 6 6 6 6 8 8 8 8 8 ",
"8 8 8 8 8 q t r q q r 8 8 8 8 y g 5.! O.e e 4 2 - $ - ; # + o + + X X X O X # % 3 6 6 8 8 8 8 8 8 8 6 8 8 8 8 8 6 6 8 8 8 8 8 8 ",
"1 8 8 8 r y i e e e y y 8 8 6 8 q 5 4 3 5 2 = # o o X o X X X . X . X o % * < 6 6 8 8 8 8 8 8 8 8 6 8 8 8 8 8 8 6 8 8 8 8 8 8 8 ",
"8 8 8 8 8 r 7 7 4 2 7 2 2 2 1 6 3 6 3 6 3 3 = = # # @ o o o X X . o o # 2 6 6 8 6 8 6 6 8 8 8 8 8 8 6 8 8 8 8 8 8 8 8 6 8 8 8 8 ",
"8 c 8 8 8 < 3 * = * * * < % < < 3 < 6 3 6 6 6 6 6 3 3 < < * = % # # < 8 6 < < 3 3 3 3 6 8 8 8 8 8 6 8 8 m 8 t 8 t t v t 8 8 8 8 ",
"8 8 8 8 8 6 3 3 3 3 3 3 < 6 < 6 3 < 3 3 < 6 8 8 8 6 6 6 8 8 6 6 6 2 6 8 < < = < = < 3 3 8 8 8 8 8 8 8 8 t u u u t u t u t 8 8 8 ",
"8 8 8 8 8 8 8 8 8 8 8 8 8 6 6 6 3 < 3 = 3 < 8 8 8 m 8 V v v v v 8 8 8 8 8 6 6 6 3 6 3 8 8 8 8 8 c 8 8 8 t q t t t t t u u t t 8 ",
"8 8 8 8 8 8 8 8 8 8 8 8 6 6 6 3 3 3 < 3 3 6 8 t Z T E E T T R S Z 8 t V 8 8 6 8 8 8 8 8 8 8 8 8 8 8 8 8 8 3 < < 8 8 8 t t t 8 8 ",
"8 8 8 8 8 c 8 8 8 8 8 8 8 6 6 1 < < 3 < 3 8 t u E / [ ] [ [ [ #./ I u u u 8 8 8 8 8 v #.,.P 8 8 8 8 8 8 6 3 < < = 3 1 8 8 8 8 8 ",
"8 8 8 8 8 8 8 v V C V A 8 8 8 6 6 3 3 3 3 8 t u V C x M M M B N I V t V 8 6 S N 8 I U.[.}.A.} t 8 8 8 8 6 6 3 6 3 3 6 8 8 6 8 8 ",
"8 8 8 8 v V E E / / / / I t u t 8 8 8 8 8 8 8 8 8 = = @ # = = = < 3 z 3 3 3 L.T.u.S.XX;X;X(.v.*.V 8 8 8 8 8 8 8 6 6 8 8 8 8 6 8 ",
"8 8 8 t Z W ..[ ] W / W K Z u u u 8 8 8 8 8 8 8 8 6 = & # @ @ & = < = = = T.`.z.&X=X;X;XoX@XB.l.7.I v 8 8 8 8 8 8 8 8 8 8 8 6 v ",
"8 8 t t u Z S A M b 5 x 2 6 t t t 8 8 8 8 8 8 8 8 8 6 6 < 3 < 3 3 z B b F a.b.&X;X<XXXF.(.(.)./.N.u.^ m c 8 8 8 8 8 8 8 8 8 8 8 ",
"8 8 8 8 8 8 8 1 3 = & + + # < 8 8 8 6 3 3 3 6 6 3 8 8 8 8 8 8 8 8 R { P.`.#X:X].XXF.M.2.z.n.z.8.j.j.x.Q t t 8 8 8 8 8 8 8 8 8 8 ",
"8 8 8 8 8 8 < < < < = @ + o % < v 8 3 < = = = 3 < 3 8 8 8 8 V t d ^ p.2X|.*XK.C.D.N.n.d.s.s.:.D ..s.p.i.}  .u t t 8 8 8 8 c 8 8 ",
"8 8 8 8 8 6 < < 3 3 6 3 = = < 6 8 8 v 3 3 3 3 3 < 6 8 8 8 t s l l l ;.%Xn.j.8.-./ s.w.P.' H D D z B ` ~ -.-.,.g } s s t 8 6 8 8 ",
"8 8 8 6 8 6 3 6 6 8 8 8 8 8 8 8 8 8 8 8 8 6 6 6 6 6 8 8 8 t s k k s q N 5 q 5 ; x b > : : ; ; + $ @ $ # > L ~ a d X.k s 8 8 8 8 ",
"8 6 1 6 3 3 3 3 3 3 6 8 8 8 8 8 8 8 8 8 8 8 8 8 6 8 8 c 8 8 t t 8 6 < < = @ # + + # X O X o O + o o . X o o # * 2 8 w 8 8 8 8 8 ",
"6 3 3 < < < < < 1 3 8 8 8 8 8 8 A I t 8 8 8 8 8 8 8 8 8 8 8 8 v 8 8 6 6 = = # @ + + X .   . X . X X . . . . X o # # = < 3 8 8 8 ",
"8 3 < 3 < < < 6 6 6 8 8 8 8 v / r.N.=.u 8 8 8 8 8 8 8 8 m C C U t t 8 t 8 3 = @ # o X . .           . .   X + + + + # = < 3 v 8 ",
"8 3 3 < < 3 3 6 6 8 8 8 v s [ U.#X&XF.:.v 8 8 8 8 8 t A W ..[ / ( u u u u 8 3 = % % X X X X         X X X o # = & = # 1 6 6 8 8 ",
"8 8 < 6 6 6 6 6 8 8 v _ 5Xi.oX-X6X-X&X/.q.C 8 8 8 t Z W ] ] T B v t 5 V t u 6 3 < * % + O X . . . X + o o o # < 3 3 8 8 8 8 8 8 ",
"8 8 8 8 8 8 8 8 8 6 v  .Y.=X3X1X=X=X(.(.B.u.A v 8 t u Z M b z < < # = ; q 8 8 8 8 < = = # + X X X + # # + o # = 6 8 8 6 8 8 8 8 ",
"8 8 8 8 6 8 8 8 8 U [ `.+X3X<XoX[.#XM.b.}.(.(.( A t t < 1 = < < 3 = = < 6 8 8 8 v 3 < = = # # + + @ = = 3 = 1 8 8 8 8 8 8 8 8 8 ",
"8 8 8 8 8 6 A T [ c..X=X<X<X,Xl.l.}.b.).%X:XE.U.0.E v 6 3 3 3 6 6 3 3 6 6 8 8 8 8 6 6 6 3 6 < % * < 6 6 8 8 8 8 8 8 8 8 8 8 8 8 ",
"8 8 c M I q.i.>X>X).XXoX{.M.7X*.*.>.a._.W.P.#.0.i.e. .A V 8 6 8 8 v 8 8 8 8 8 8 8 8 6 8 8 6 6 6 6 8 8 8 v c 8 8 6 8 8 8 8 8 8 8 ",
"8 8 b / s.^.E.v.q.y.D.F.N.b.;.-.u V Y Y ) z 3 N 0.y.5.7.-.| p a 8 6 6 8 8 8 8 8 8 6 8 8 6 8 8 c 8 v V V C V V 8 8 v 8 8 8 8 8 8 ",
"8 8 z B $.a.#.:.} ^.!.7...T K 3 3 3 = = @ + @ = C I T ~ O.l X.g p 3 6 6 6 6 8 8 8 8 8 8 8 8 8 6 8 A R / / / T K t t 8 8 8 8 8 8 ",
"8 < < = x b Q k l  .-.v v 6 < < # # + + X O + @ 3 3 = $ 5 u 9 q < # < 6 < 6 6 8 8 8 8 8 8 8 8 8 t I E / W R S Z u t t t 8 8 8 8 ",
"8 < = = # < 6 q 6 8 3 = = = # % # X X X o + + = = < + + = * * # % # # < 3 < 6 8 8 6 8 8 8 8 8 8 u V m 8 c c 6 3 1 8 c 6 8 8 8 8 ",
"8 6 3 < 3 ; = + + # # X X O + O + X X X o = = = = @ = # < < = & = & 3 6 3 6 6 8 8 6 6 < 8 8 8 8 8 c 1 , , 1 , , 1 , 1 8 8 8 8 8 ",
"8 8 8 8 c 3 < = & = = % X + # # + + X X X + = @ = = = = 3 3 = # = = 6 8 c 8 8 8 1 < < < < 8 8 8 8 6 1 1 , , 1 , 1 1 6 8 8 c 8 8 ",
"8 8 8 8 8 8 8 1 3 3 6 < * = 3 # % # # # = < = 3 3 3 = = = < = = = < 3 v 8 8 8 c 8 6 < 3 8 8 8 8 c 6 6 6 1 8 1 1 6 6 8 8 8 8 8 8 ",
"8 8 8 8 6 c 8 6 6 6 8 6 < < = % + # # 6 6 6 8 8 8 c 6 < 3 3 ; 3 3 6 8 8 8 8 8 v C v 8 8 8 8 8 8 6 6 6 8 8 8 8 8 8 8 8 8 8 8 8 8 ",
"8 8 8 6 8 8 8 8 8 8 8 v 8 6 3 < = # < 3 8 8 v v M v m N 3 6 6 8 8 8 8 8 v 8 b ' p.S 8 8 8 8 8 8 6 < 3 3 8 8 8 8 8 8 8 8 8 8 8 8 ",
"8 8 8 8 8 8 6 6 3 6 6 6 8 8 8 8 3 6 3 8 v U Y U / R W W T t V 8 8 8 8 8 c v S v.Y.b.C 8 8 8 8 8 3 < < < 1 8 8 8 c 8 8 8 8 8 8 8 ",
"8 8 8 8 8 6 3 < < 3 3 6 8 8 8 8 8 V u Z W ] [ [ / ( / / E u u u 8 8 8 8 8 C w.!.$X|.b.C c c 8 8 8 6 3 6 8 8 8 8 v V V v 8 8 8 c ",
"8 8 8 8 8 6 3 < < < 3 3 8 8 8 8 8 q u u I T T Z A m M M 5 q q 8 8 8 8 c c _.^.#X,X*XoX4.u 8 8 8 8 8 8 6 8 8 8 t E W E Z 8 t 8 8 ",
"8 8 8 8 8 8 6 3 3 6 6 6 8 8 8 8 8 8 v 8 3 ; 8 6 3 3 3 < < 3 3 6 8 8 8 M I !.B.C./.oX[.K.1.s 8 8 8 8 8 8 8 8 c R ..{ W A u u t 8 ",
"8 8 8 8 8 8 8 8 8 8 8 8 8 8 8 8 8 8 3 = = = & 1 3 3 < = * < 3 8 8 8 ^ u.x.C.h.9.9.h.C.8.=.k u 8 8 8 8 8 8 8 8 v S C V t t t 8 8 ",
"8 8 8 8 t t t u t 8 v 8 8 8 8 8 8 6 3 < = = 6 6 6 6 6 3 3 6 6 8 u | N.F. X'.m.%.! h c.b.} l l a 8 8 8 c 8 8 8 8 8 8 8 8 8 8 8 8 ",
"8 6 8 t Z s u u s u q 8 8 8 8 8 8 8 6 6 6 8 8 8 6 8 8 8 8 8 V  .7.9.V.K.J.|.I.%.H I q.L./ p g l k t 8 8 8 8 8 8 8 c 8 8 8 8 8 8 ",
"8 8 8 8 5 8 v q 8 8 8 8 6 8 6 8 8 8 8 8 8 8 c 8 8 8 8 8 8 M t.~.XXXXk.+XC.5.H G > x < & , = 5 g k l k g t t u v 8 8 8 8 8 8 8 8 ",
"8 8 8 6 3 < < 3 < 3 3 8 c 8 8 8 8 8 8 8 8 8 8 8 8 8 v T U r.~.}.#X[.h.}.6.5Xn $ : % & + O X o = 0 p l l l k k s 8 8 8 8 8 8 8 8 ",
"8 8 8 3 1 < 3 = < < 3 8 8 8 8 8 8 8 8 8 8 8 8 8 8 v / 0.u.M.F.~.l.u.;.R 2 ) = = # % O O X O % % @ # 5 p P k a p 3 6 6 6 1 6 8 8 ",
"8 8 8 8 3 6 6 8 6 6 6 8 8 8 8 8 8 8 t 8 8 8 8 8 8 c J ,.9.2.8.E P V M = % # + + X X X X X + % O O + & = 5 ; 5 = = = = < < 6 6 8 ",
"8 8 8 8 8 8 8 8 v 8 q t t t u u Z u u t u t 8 8 8 < 8 a a d 5 6 3 = & + X X X X X . . . . X O + X + & = = = # < < # % = = 3 6 8 ",
"8 8 8 8 8 t t t t u w t u q t q q q q u u u u t < < * 3 ; = 3 3 = + O + + + X X . X . . X X X + + @ & < < 3 6 6 3 3 = = = 1 6 8 ",
"8 8 8 8 t u u t q 5 5 2 3 ; 3 ; 3 = = = q q 8 8 3 = = = = # 3 6 3 = = # = = # X X X X . X + # & * < 6 1 6 8 8 8 8 6 1 < 3 3 8 8 ",
"8 8 8 t t t q < ; * = 3 3 3 3 3 3 = # 3 < 3 = = < < = < < b v N 8 c 2 3 < = & @ + + o + + # * # 3 c C M M 8 8 8 8 8 8 8 3 8 8 8 ",
"8 8 8 8 8 8 < < = 3 3 6 6 8 v 8 6 3 < 3 < = = = < 3 6 3 v S R W T q 8 8 6 3 = = = & & & * 3 < 3 8 T W ] R C 8 8 8 8 8 8 8 6 8 8 ",
"8 8 8 8 8 8 6 6 6 6 6 8 8 8 8 8 6 6 6 8 3 3 = = 3 3 8 8 b B W W L u q 8 6 3 < 3 3 3 3 < 6 6 6 8 q Z R ..W K 8 8 8 8 8 8 8 8 8 8 ",
"8 8 8 8 8 8 8 8 8 8 8 t 8 t 8 8 8 8 8 8 6 6 3 3 3 6 6 3 3 z v M 5 8 3 < 3 8 3 6 6 6 8 8 8 8 8 3 2 ; v Z P V V 8 8 6 8 8 c 8 8 8 ",
"8 8 8 8 8 8 8 8 8 t u u s Z u t 8 8 8 8 8 8 6 6 6 6 8 8 3 3 3 3 3 3 6 6 6 v 8 8 8 8 8 8 8 8 8 < = # = v 8 8 8 8 8 8 8 8 8 8 8 8 ",
"8 8 8 8 8 8 8 8 8 t u u t t u u 8 8 8 8 8 8 8 8 8 8 8 6 8 6 8 3 8 6 6 6 8 8 8 8 8 8 8 8 8 8 8 6 < < 6 8 8 8 8 8 8 c 8 8 8 8 8 8 ",
"8 8 8 8 8 8 8 8 8 c 8 8 c 8 t 8 8 c 8 8 8 8 8 8 8 8 8 8 8 8 8 8 8 8 8 8 8 8 8 8 8 8 8 8 8 8 8 8 8 8 8 8 8 8 8 8 8 8 8 8 8 8 8 8 "
};
