/* XPM */
static char *wall1708619964[] = {
/* columns rows colors chars-per-pixel */
"64 64 212 2 ",
"   c #3327A2",
".  c #3329A6",
"X  c #332DAB",
"o  c #3430AE",
"O  c #362FB1",
"+  c #3634B3",
"@  c #3836B5",
"#  c #3639B7",
"$  c #3A3AB6",
"%  c #3735B8",
"&  c #3936B9",
"*  c #373BBB",
"=  c #393BBC",
"-  c #413FB9",
";  c #3542BE",
":  c #3A41BD",
">  c #4545BC",
",  c #4952BF",
"<  c #3F36C6",
"1  c #3B3EC1",
"2  c #3F3EC8",
"3  c #3644C3",
"4  c #3C42C4",
"5  c #334BC5",
"6  c #3C4AC6",
"7  c #3E46CA",
"8  c #344EC9",
"9  c #3F48CC",
"0  c #3F51C5",
"q  c #3353CC",
"w  c #3C52CE",
"e  c #3C59CF",
"r  c #2F5DD1",
"t  c #3656D1",
"y  c #3E54D1",
"u  c #325BD3",
"i  c #3F5BD4",
"p  c #3161D7",
"a  c #3C64D5",
"s  c #3C69D6",
"d  c #3E66D9",
"f  c #3E6BDB",
"g  c #2C74DE",
"h  c #3E72DE",
"j  c #3C7FDE",
"k  c #3F75E1",
"l  c #3F7CE4",
"z  c #4246C4",
"x  c #444AC4",
"c  c #4345CA",
"v  c #434CCC",
"b  c #4A4FC9",
"n  c #4455C6",
"m  c #4452CE",
"M  c #4A54CD",
"N  c #4C5BCE",
"B  c #5253C3",
"V  c #525CCE",
"C  c #4254D0",
"Z  c #4A56D0",
"A  c #445BD3",
"S  c #4A5CD2",
"D  c #525CD2",
"F  c #4265CF",
"G  c #5864CB",
"H  c #5B78CF",
"J  c #4667D7",
"K  c #4C63D5",
"L  c #4E6BD4",
"P  c #4266D9",
"I  c #4D6AD8",
"U  c #5363D4",
"Y  c #5963D2",
"T  c #5369D7",
"R  c #5B6AD7",
"E  c #556CD8",
"W  c #5B6FD9",
"Q  c #4472DC",
"!  c #4C76D9",
"~  c #5371D6",
"^  c #5679D7",
"/  c #5372DB",
"(  c #5B73DA",
")  c #5B7BDD",
"_  c #6163CC",
"`  c #646DD6",
"'  c #6271D1",
"]  c #6977D7",
"[  c #6276DB",
"{  c #637BDC",
"}  c #707ADA",
"|  c #4376E0",
" . c #437CE2",
".. c #4C7CE2",
"X. c #517CE0",
"o. c #3F81E6",
"O. c #3F88EA",
"+. c #3490E7",
"@. c #4D80DC",
"#. c #5283DF",
"$. c #5C80DE",
"%. c #6482DE",
"&. c #6C85DD",
"*. c #6989DA",
"=. c #6591DF",
"-. c #7990DF",
";. c #4785E6",
":. c #4C8DEA",
">. c #5384E2",
",. c #5987E2",
"<. c #538BE6",
"1. c #5A8BE3",
"2. c #538DE8",
"3. c #4793E5",
"4. c #4795EB",
"5. c #4C98EC",
"6. c #5693E5",
"7. c #5B91E4",
"8. c #5E99E5",
"9. c #5494EA",
"0. c #5B96EB",
"q. c #549CEE",
"w. c #489BF1",
"e. c #628AE3",
"r. c #698CE3",
"t. c #7889E0",
"y. c #6394E6",
"u. c #6B94E5",
"i. c #6195E9",
"p. c #649CEC",
"a. c #6D9BE9",
"s. c #7195E6",
"d. c #7B93E1",
"f. c #799CE5",
"g. c #759DE9",
"h. c #4BA8EE",
"j. c #59A5ED",
"k. c #58A7F2",
"l. c #5DA5F2",
"z. c #53B2F5",
"x. c #63A2EE",
"c. c #6CA5EB",
"v. c #6CA9EF",
"b. c #74A4EB",
"n. c #7AA3EA",
"m. c #74AAEE",
"M. c #7CAEEE",
"N. c #79B2ED",
"B. c #65ABF2",
"V. c #6BABF1",
"C. c #74AFF1",
"Z. c #61B0F6",
"A. c #6BB4F5",
"S. c #6DBBF5",
"D. c #77B3F2",
"F. c #7CB4F2",
"G. c #73B9F6",
"H. c #7BBBF5",
"J. c #6EC2F3",
"K. c #74C1F3",
"L. c #7FC4F3",
"P. c #7CC2F9",
"I. c #8A90DD",
"U. c #8795E1",
"Y. c #8CACE6",
"T. c #83ABED",
"R. c #8BADEB",
"E. c #99A7E6",
"W. c #88B5ED",
"Q. c #93B5EE",
"!. c #9BB3EC",
"~. c #93BBEE",
"^. c #99B8EE",
"/. c #85B4F1",
"(. c #8FB6F0",
"). c #83BAF3",
"_. c #8CBBF2",
"`. c #94BCF2",
"'. c #A5ABE7",
"]. c #A4B9EC",
"[. c #8CC2F3",
"{. c #89C8F7",
"}. c #82C2F8",
"|. c #87C9FA",
" X c #93C3F5",
".X c #9AC3F2",
"XX c #94CBF3",
"oX c #9BCAF4",
"OX c #92CCF9",
"+X c #9CCEF8",
"@X c #96D1F7",
"#X c #9BD1FA",
"$X c #A6C6F2",
"%X c #A6CDF6",
"&X c #A9CDF4",
"*X c #B3CAF2",
"=X c #A3D0F7",
"-X c #ADD3F7",
";X c #A6D5F9",
":X c #ABD6F9",
">X c #AAD9FA",
",X c #B1D3F7",
"<X c #BCD6F5",
"1X c #B2D5F8",
"2X c #B4DCFA",
"3X c #BDE1F9",
"4X c #C6D7F6",
"5X c #C4E2F9",
"6X c #CCE7F9",
"7X c #D9E3F7",
"8X c #E4F2FD",
"9X c #FEFEFE",
/* pixels */
"9 9 9 9 9 9 9 9 9 9 9 9 9 9 9 9 9 9 9 9 9 9 9 9 9 9 9 9 9 7 9 9 9 9 9 9 9 9 9 9 9 9 9 9 9 9 9 9 9 9 7 9 9 9 9 9 9 9 9 9 9 9 9 9 ",
"9 9 9 9 9 9 9 9 7 9 9 9 9 9 9 7 9 9 9 9 9 9 9 9 9 9 9 9 9 9 9 9 9 9 9 7 9 9 9 v 9 9 9 9 9 9 9 9 9 9 9 9 9 9 7 9 7 9 9 9 9 9 9 9 ",
"9 9 9 c 9 9 9 9 9 9 9 9 9 9 9 9 c 9 9 9 9 9 9 9 9 9 c 9 9 9 7 w K ^ 6.=.S 7 9 9 v c 9 7 9 w w 9 9 7 9 9 9 7 9 9 9 9 9 9 7 9 7 9 ",
"9 9 9 9 9 9 9 9 9 9 7 9 w 9 w 9 t t w t 9 9 9 2 9 9 9 9 7 w P $.R..X<X5X~.1.K m 8 9 7 6 t t u u u t 9 7 9 9 9 9 9 9 7 c c 9 9 9 ",
"9 9 9 7 9 9 9 9 7 q q r u u u u u p u u t 9 9 9 9 9 9 t t | >.b.~.-X6X6X3X[.N.=.~ 8 : 6 5 5 5 q t t 9 7 7 7 9 9 9 9 9 9 9 9 9 9 ",
"9 9 9 9 9 9 9 7 t r r r q q q 8 t t u u t 9 9 9 9 t u u E X.$.2.h.3.j.XXK.}.@XoX~.=.' : : ; * * 1 2 4 7 7 7 9 9 9 9 9 9 9 9 9 9 ",
"9 9 9 9 9 9 4 4 2 3 3 ; 1 * 1 1 3 9 9 w 9 c 8 t t u u r i U K d g +.3.h.z.J.@X3X@XXX[.-.K n : $ 1 1 3 2 2 4 7 9 c 9 9 9 9 9 9 9 ",
"9 9 9 9 c 7 2 4 1 2 1 1 1 1 1 1 7 9 9 9 9 9 q q q q 5 1 1 z 7 8 q r @.=.N.}.XX{.S.L.[.W.c.#.=.8 3 1 3 7 6 7 9 9 9 9 9 9 9 9 9 9 ",
"9 7 9 9 9 9 4 4 4 7 7 7 7 7 7 7 9 9 9 9 9 7 2 3 * * + O + * * * : ; n H { $.7.3.g g 9.v.x..Xc.c.r w 7 9 9 9 9 9 9 9 9 9 9 9 9 9 ",
"9 9 9 9 9 9 9 9 7 9 9 9 7 9 7 9 9 9 7 9 9 7 7 2 * # X O X X X + o o o $ : ; : ; 5 5 r r @.! y.h u w 9 7 9 t w w t 9 9 9 9 9 9 9 ",
"9 9 9 9 9 9 9 9 9 9 9 9 9 9 9 9 9 9 9 c 9 9 9 9 4 1 * + o X . X . X X X X X O + + + ; 6 3 8 6 6 9 9 7 7 u u r r u u u t 9 9 9 9 ",
"7 9 9 9 9 9 9 9 9 9 9 9 9 7 9 9 9 9 9 7 7 7 7 7 7 7 7 3 * + O . X X o o O + + * = 1 6 6 7 7 7 7 7 3 7 2 3 8 5 5 q 8 t 9 9 9 9 9 ",
"c 9 9 9 y 9 9 C 9 y y 9 9 9 9 9 9 9 9 9 7 4 4 4 4 3 4 7 7 4 + # # * = 1 1 1 4 7 9 7 7 7 7 7 4 1 2 2 # * * * * * 1 3 2 9 9 9 9 9 ",
"9 9 y y i i i i i i A y 9 9 9 9 9 9 9 9 1 4 = 4 1 1 1 4 9 9 7 4 4 6 9 9 7 7 9 c 9 9 7 4 4 1 1 4 3 2 4 4 3 1 2 4 2 2 9 9 9 9 9 9 ",
"9 y y i i i y y y y y y 9 9 9 9 9 9 9 9 9 4 4 4 4 7 4 7 9 9 9 9 9 v v v C v C v 9 9 1 1 = 1 4 1 7 9 9 9 9 9 9 9 9 9 9 9 2 9 9 9 ",
"7 7 y C w 9 7 7 1 4 4 9 9 9 9 9 9 9 9 y 9 c 9 9 9 9 9 7 y 9 y S K R T T E T I A y 9 7 1 4 4 4 4 2 4 9 9 9 9 9 9 9 9 9 9 9 9 9 9 ",
"c 9 7 9 9 2 2 1 1 1 4 7 9 9 9 9 9 9 P 2.e.v 9 9 7 7 c i i i I ( %.{ { [ [ { ( T i y 7 4 1 4 2 4 4 4 9 9 9 9 9 9 9 9 9 9 9 9 7 9 ",
"9 9 9 9 9 7 4 4 4 4 9 9 9 9 9 9 C | D. X).T.J 9 V N 7 9 y y m K N V M M M x S A i y 9 7 7 4 4 4 6 7 9 9 S C Z C C 9 9 9 9 9 9 9 ",
"9 9 9 9 9 7 7 9 9 9 9 9 9 9 9 A  .n.(.:X>XOXF.x.E.I.4 4 6 6 2 4 = = = = @ = = 9 9 9 9 7 7 7 9 9 y i y I ( ( ( W T E C y 9 9 9 9 ",
"9 9 9 9 9 9 9 9 9 9 9 9 9 c I 0.x.D.$X+X>X>X;X=Xb.].E.4 = 1 = * # @ @ & * = 4 9 9 9 9 9 9 7 y y i i i K W W ( [ { { W i y 9 9 7 ",
"9 9 9 9 9 9 9 9 9 9 9 9 m / x.v.).`._._.H.OX1X2X=Xm.-.G M V 7 4 z 4 4 1 7 7 7 7 9 7 7 9 7 7 y y y y 6 4 z z b M Z D A y y y 9 9 ",
"9 9 9 9 9 9 9 9 9 9 y y Q v.l.l.q.c.F.a.w.B.P. X|.1X&X].U.} R 7 c 7 9 9 9 9 7 7 7 7 4 7 7 7 9 9 9 1 @ + + # * 4 4 7 9 y v 9 9 9 ",
"9 7 9 9 7 y 9 y y A ..| a.u.g.^ P <.f.g.g.M.V.G.A.P.-X.X4Xs./ f y y 9 9 9 9 4 1 : = = = 2 4 9 9 1 % + + @ = 4 = 1 1 7 c 9 7 9 9 ",
"9 9 9 c y f d f h 2.>.#.~ ' G > F n H ] U.d.f.( >.q.q.M.*X,.o.l l d y 9 9 c 4 4 4 4 7 7 2 7 9 9 7 4 = = 4 7 7 4 1 4 4 9 9 9 9 9 ",
"9 7 c 9 f k o.h s ! L , # $ o $ # ; : > : , B x > 6 e 7 N w i k k f y 9 9 9 9 4 7 7 9 9 7 9 9 9 9 9 9 4 7 9 7 7 4 7 4 9 9 9 9 9 ",
"9 9 9 9 7 A 6 3 # # o X X X o @ + o o o o X @ @ + @ @ * 1 4 7 w y C 9 9 9 9 9 9 9 9 9 9 9 9 v c 9 9 9 9 9 7 7 4 4 4 4 6 4 4 9 9 ",
"9 9 9 7 1 * = + o X . .   . . . . X . . X X + + @ * * = 4 7 9 v 9 9 9 9 9 9 9 9 9 9 9 v 9 C I S 9 9 9 9 9 7 2 4 2 1 1 1 1 4 2 7 ",
"9 7 4 2 * * + + @ + X . . . .         . . X + + + = 4 7 9 y y C D S Z v 9 9 9 9 9 9 9 c i :.B.r./ c 9 9 9 9 9 9 4 4 1 1 4 1 7 7 ",
"9 9 7 7 2 % % % $ * o o X . .       . . X o + + = 4 7 i i i a ( ( { ( W S y 9 9 9 9 9 m <.H.+X-XT.{ f v 9 9 9 9 9 4 4 1 1 4 4 9 ",
"9 9 9 9 9 7 7 4 4 + o o + + X X . . + + + + = 1 7 7 i y i 6 w 9 N R [ [ ( A y 9 v c m r./.;X:X8X1X#Xa.7X` c 9 9 7 7 9 4 6 4 9 9 ",
"9 9 9 9 9 9 9 9 = + + + + % + o o o + + * = 4 7 c 9 9 y 4 $ = 1 4 4 m M A y y v v S x.C._.[.;X;X3X5X;XR...m 9 9 9 9 9 7 9 7 9 9 ",
"9 9 9 7 9 9 9 9 7 4 = 4 1 * + + o + # = 1 4 4 9 7 9 9 7 = = = 4 4 : = 2 4 y y S X./.`. Xm.x.%XP.+X2X5X#X].{ D 9 9 c 9 9 9 9 9 9 ",
"9 9 9 c 9 9 9 9 9 9 9 9 9 7 1 = % 2 4 7 4 4 9 9 9 9 9 7 7 7 7 7 4 4 4 4 7 v / 1.T.Q.,X*X`.m. Xx.x.1X2X2X-XoXb.{ E K 9 9 9 9 9 9 ",
"9 9 9 7 9 9 9 c 9 9 9 9 9 9 9 7 7 7 9 9 9 9 9 9 9 9 9 9 7 7 7 7 c 7 8 y S ..r.a.e.&.U.E.!.d.1.O.;.9XB.|.#XOX_.<X<Xa.r.U v c 9 9 ",
"9 9 9 9 9 9 9 y 9 C M Z C M 9 9 7 9 9 9 9 9 9 9 9 9 v 9 7 7 7 7 f a | >.0.i.i.e.N 1 z G Y V Z A >.,.m.V.H.D.7.r.g.Q.R.f.( m 9 9 ",
"9 9 9 9 7 y y y S E W ( ( E S 9 9 9 9 9 9 9 9 9 9 9 7 7 7 7 7 a f o.;.>.R L T S = @ @ @ = = 1 4 4 K U ,.9.`.(.k >.r.U.r.D c 7 9 ",
"9 7 9 9 w A y i A U T E ( W K y 9 9 9 9 9 9 c 9 9 7 7 4 7 4 # = e 0 i 6 $ $ 4 4 + + o X + + + # 1 1 c v v >.) o.k h b x > = 1 9 ",
"9 9 9 9 9 9 9 2 2 c c c c m i i y 9 7 9 9 9 9 9 9 7 1 4 = # + & # = = = # + 1 $ 1 + + + o X + + % 1 * * = 4 6 7 w 7 1 # & = 4 9 ",
"9 9 9 7 9 2 2 < < < < < 2 2 9 9 9 9 9 9 4 4 4 9 9 7 7 4 7 2 = = % = 1 = * & # 1 = = # o X X X + O + X X O + # + + $ 4 1 4 4 7 9 ",
"9 9 9 c 7 c z < 2 2 < < 2 2 4 9 9 9 9 = 1 = 4 4 9 9 v 7 9 4 1 # * = 4 4 = * = * @ * @ X X X o + + % + + + = = * * 4 4 7 9 9 9 9 ",
"9 9 9 9 9 9 7 7 7 2 4 7 7 7 7 7 9 9 9 9 2 4 7 7 c 9 9 9 9 7 1 1 * = 1 = 1 = 4 4 4 = 1 = + % + * # 4 * * 1 7 4 4 4 7 9 9 9 9 9 9 ",
"9 9 9 c 9 9 c 7 9 9 c 9 c 7 7 9 9 9 9 9 9 9 9 M m c 9 9 9 9 7 2 4 = 4 4 4 7 7 7 7 7 9 9 4 * * + * = 1 4 7 9 7 7 7 v 9 9 9 9 9 9 ",
"9 9 7 9 9 9 9 9 7 c 9 9 4 4 4 4 9 9 9 9 v 9 U s.] b 9 9 9 9 9 7 7 7 7 c Z v v M v v 9 9 4 : * 4 1 4 7 7 9 9 7 9 9 9 9 9 9 9 9 7 ",
"9 9 9 9 9 9 9 9 9 9 9 4 2 1 1 4 9 7 c 9 9 Z b.R.T.D 9 9 7 9 9 9 7 i y U ` W W W R U U v 7 6 7 7 9 9 9 9 7 7 7 7 7 7 9 9 c 9 9 9 ",
"9 9 9 9 9 C m v 9 9 9 9 7 2 7 9 9 9 9 9 Z m..X%X^.t.Z 9 9 9 9 9 i i i / ( ) ) [ { [ [ W A A y 9 9 9 9 9 4 4 1 = 1 4 7 9 9 9 9 9 ",
"9 9 y y A E W E y 9 9 9 9 9 7 9 9 9 9 i 1.oX1X1X%X(.'.c 9 9 9 9 9 w 9 v M m m S Z E E K i i y 9 9 9 9 9 7 4 1 4 1 2 7 9 9 9 9 9 ",
"9 y C i K W { [ T c 9 9 9 9 9 9 9 9 d 4.P.}.+X).A.C.!.I Z 9 7 c 7 4 1 = = 4 4 4 7 7 4 6 9 7 9 9 c 7 9 9 7 7 7 7 7 4 9 9 7 9 7 9 ",
"9 c y y y C S D 9 9 9 9 9 9 9 9 9 i k :.q.A.k.5.w.k.A.v.p.E y 9 6 4 4 * = 4 : 4 4 * # @ 1 4 7 9 9 9 9 9 9 9 9 9 9 9 c 9 9 9 9 9 ",
"9 9 9 9 9 7 9 9 9 7 9 9 9 9 9 9 f l l Q m.b.j ! =.T.XXOX).Z. .A 9 7 7 7 7 4 7 7 9 4 1 1 1 2 4 9 9 9 9 9 9 9 9 y i y C y 9 9 9 9 ",
"9 9 9 9 9 9 9 9 9 c 9 v 9 y y k k h d W U.*.! H *.Y.[.L.P.Z.w.0. .C 9 9 9 9 9 9 9 9 7 4 4 7 9 9 9 9 9 9 9 y i i i i a i i v 9 9 ",
"9 9 9 9 9 9 9 9 9 i y y f f l k h 8 * < < = x b G H 8.A.#Xz.OX+X/.a.Z c 9 9 9 9 9 9 9 9 9 9 9 9 9 9 9 9 v 9 6 9 y 9 9 6 9 9 9 9 ",
"9 9 9 9 9 9 9 9 d k k l l l a e $ + O O O % & - : : 7X6. Xk.}.%X X/.u.U E v 9 9 9 9 9 9 9 9 9 9 9 7 9 9 9 4 4 1 1 4 4 4 4 9 9 9 ",
"9 9 7 7 7 3 7 6 i f k a i 8 * @ + + O O O + + * $ $ _ 6 R $.0.x.).).B.p.1.( v 9 9 7 9 9 9 9 9 9 9 9 9 9 9 4 1 1 1 1 2 2 7 9 9 9 ",
"9 9 2 1 1 1 = = : 6 : 6 1 # @ O + % O O X . X X + + + # : N m J I q.5.w.9.J v c 9 9 9 9 9 y y 9 9 v 9 9 9 9 6 7 7 6 7 7 9 9 9 9 ",
"9 2 2 1 % % = = 4 + 1 = * & O O + O X . . . . X o X X o o # = 4 7 6 P s s 7 2 7 9 y C y y i i i y y y y y y w 9 9 9 7 c 9 9 9 7 ",
"9 9 7 1 * = 1 7 7 7 4 = 1 & @ + + X O . . . X . X o o + + o # = 4 4 = : 4 = * 2 y y i i i 0 w m y y e y y y y i y y y 9 7 9 9 9 ",
"9 9 4 4 2 2 9 c 9 9 9 9 4 1 1 = * + + X . X X X + + * = * % * 4 7 4 = # = = = z 7 8 v w = 1 = : 4 : : 3 4 6 6 6 y i P y 9 9 9 9 ",
"9 9 7 7 7 9 9 7 9 9 c M Z S 9 1 * * @ + + X + + + * = : 1 6 7 9 M m v 1 = = 1 1 1 1 4 4 1 * * 4 4 7 4 7 4 4 * 1 4 w y y 9 9 9 9 ",
"9 9 9 9 7 9 9 9 9 9 S E ( W U 9 4 ; 2 = & & * * * = 4 7 7 9 w U W R D v 7 7 1 1 = * & 1 1 4 4 7 c 9 9 7 7 4 2 = * 4 7 w 9 9 9 9 ",
"9 9 9 9 9 9 9 9 9 9 K W ( W F y 7 7 7 7 4 4 4 4 1 4 7 7 9 w i T ( W V b 7 c 7 4 * = 1 7 7 7 7 7 9 7 9 7 7 7 7 7 7 7 7 7 9 9 9 9 ",
"9 9 9 9 9 9 9 9 9 y i K A v 4 4 7 9 9 9 9 c 7 7 7 7 7 7 4 6 6 6 m v z 4 7 7 7 4 2 4 7 9 9 9 c 7 9 w C y C y 9 9 9 9 9 9 9 v 9 9 ",
"9 9 9 9 9 7 9 7 9 9 9 9 9 = # # 1 9 9 9 9 9 9 9 c 9 7 7 4 7 7 4 4 4 4 4 7 7 7 7 7 7 9 9 9 9 9 9 y i i i i i y 7 9 9 c 7 9 9 9 9 ",
"9 9 9 9 9 9 9 9 9 9 9 9 9 7 1 4 7 9 9 9 9 9 9 7 9 9 9 9 7 9 7 7 7 7 9 7 7 9 7 v 9 9 7 9 9 9 9 y i y A y y y y 9 9 9 9 9 7 9 9 9 ",
"9 9 9 7 9 9 9 9 9 9 9 9 9 7 v 7 9 9 9 9 9 9 9 9 9 9 9 9 9 9 9 9 7 c 9 9 9 9 9 9 9 9 9 9 9 9 9 9 y 9 9 9 9 9 9 9 9 9 9 9 9 9 9 9 "
};
